{"glyphs":{"0":{"ha":745,"x_min":-1,"x_max":692,"o":"m 370 975 q 629 868 547 968 l 633 871 l 633 868 l 629 865 q 692 667 692 770 l 692 316 q 629 122 692 197 l 623 122 l 623 119 l 626 108 l 602 87 l 598 87 l 598 94 l 591 94 l 588 84 l 591 73 q 370 1 534 13 l 370 186 q 470 323 470 220 l 470 677 q 370 789 450 777 l 370 975 m 619 920 l 626 920 q 636 913 626 913 l 636 903 l 629 903 q 623 913 623 903 l 619 913 l 619 906 l 609 906 l 619 920 m 488 757 l 491 736 l 498 736 l 494 740 l 494 743 l 501 757 l 488 757 m 557 729 l 564 722 l 567 726 l 567 729 l 557 729 m 588 316 l 588 309 l 609 309 l 609 302 l 612 302 l 612 309 l 602 316 l 588 316 m 321 790 q 221 678 241 778 l 221 323 q 321 186 221 221 l 321 1 q 100 74 157 14 l 103 85 l 100 95 l 93 95 l 93 88 l 90 88 l 65 109 l 68 119 l 68 123 l 62 123 q -1 317 -1 198 l -1 667 q 62 865 -1 770 l 58 869 l 58 872 l 62 869 q 321 975 144 969 l 321 790 m 82 907 l 72 907 l 72 913 l 68 913 q 62 903 68 903 l 55 903 l 55 913 q 65 920 65 913 l 72 920 l 82 907 m 104 612 l 119 590 l 119 585 l 111 579 l 127 579 l 134 612 l 104 612 m 124 730 l 124 726 l 127 723 l 134 730 l 124 730 m 90 317 l 79 310 l 79 302 l 82 302 l 82 310 l 103 310 l 103 317 l 90 317 z "},"1":{"ha":454,"x_min":0,"x_max":401,"o":"m 60 812 l 60 781 l 71 789 l 77 789 l 94 785 l 94 789 l 90 792 l 74 841 l 71 841 l 60 812 m 0 776 l 1 781 l 0 782 l 0 852 l 135 975 l 135 729 l 0 608 l 0 776 m 187 975 l 395 975 l 401 968 l 401 888 l 395 881 l 388 881 q 370 902 388 890 l 370 909 l 367 909 l 363 905 l 360 905 l 381 874 l 363 861 l 367 861 l 398 878 l 401 874 l 401 442 l 385 442 l 367 453 q 353 439 367 439 q 347 418 353 418 l 329 418 l 319 425 l 312 414 l 315 411 l 336 411 l 336 404 q 363 387 352 404 l 370 397 q 360 404 360 397 l 360 425 l 381 425 l 388 418 l 388 401 q 377 394 377 401 q 401 376 391 394 l 401 335 l 377 308 l 395 308 l 395 321 l 401 321 l 401 170 q 385 155 395 155 l 391 149 l 401 152 l 401 56 l 395 56 q 388 73 395 73 l 367 83 l 367 79 q 388 69 367 74 l 391 52 l 391 48 l 381 38 l 374 38 l 353 56 l 353 52 l 370 31 l 367 21 l 370 21 q 391 35 391 21 l 401 35 l 401 7 l 395 0 l 374 0 l 363 7 l 357 0 l 332 0 q 326 10 326 0 l 304 10 q 298 0 304 0 l 281 0 l 260 17 l 256 17 l 256 0 l 215 0 l 215 10 l 194 10 l 194 7 l 201 7 l 201 0 l 187 0 l 180 7 l 180 10 l 187 21 l 187 38 l 180 38 l 180 69 l 194 90 q 184 100 194 100 l 180 104 l 180 128 l 187 135 l 201 135 l 212 128 l 222 128 l 218 132 l 201 138 l 194 159 l 187 159 l 187 142 l 180 142 l 180 273 l 187 280 l 191 280 l 212 273 l 212 269 l 229 273 l 256 273 q 243 280 256 280 l 243 287 l 218 287 l 212 294 l 215 308 q 201 346 201 308 l 197 342 l 187 342 l 180 349 l 180 376 l 191 376 l 187 380 l 187 384 l 191 394 l 180 411 l 180 968 l 187 975 m 250 964 l 243 954 l 246 954 l 256 958 l 250 964 m 288 933 l 288 926 l 291 923 l 298 923 l 298 926 l 291 933 l 288 933 m 288 878 l 288 874 l 329 857 l 332 854 l 336 854 l 332 871 l 332 878 l 339 888 l 312 888 l 288 878 m 339 854 l 347 846 l 353 846 l 353 854 l 339 854 m 197 846 l 197 840 l 205 833 l 208 836 l 208 840 l 201 846 l 197 846 m 374 574 l 374 543 l 381 543 l 385 553 l 377 574 l 374 574 m 388 491 l 381 473 l 381 470 l 395 473 l 391 491 l 388 491 m 208 470 l 208 453 l 215 453 l 215 470 l 208 470 m 312 453 l 319 446 q 353 467 349 456 l 350 470 q 312 453 333 453 m 250 453 l 250 446 l 256 439 l 256 453 l 250 453 m 187 439 l 205 425 l 215 425 q 187 439 215 434 m 270 432 l 270 418 l 281 418 l 281 422 l 277 432 l 270 432 m 401 435 l 401 401 l 395 401 l 395 408 l 391 432 l 395 435 l 401 435 m 284 384 l 284 380 l 319 356 l 319 370 q 301 401 301 382 q 291 384 296 401 l 284 384 m 197 380 l 197 376 q 218 363 208 376 l 222 363 l 232 373 l 222 391 l 218 391 q 197 380 207 380 m 256 391 l 253 370 l 263 359 l 263 353 l 246 349 l 236 349 l 229 332 l 229 328 l 236 321 l 239 321 l 256 325 l 260 308 l 263 308 l 263 328 q 270 342 270 328 l 274 346 l 277 346 l 291 342 l 291 346 q 270 359 291 353 l 267 376 l 267 380 l 274 380 l 274 384 q 263 391 263 384 l 256 391 m 374 370 l 374 363 l 395 363 l 395 373 l 374 370 m 336 325 l 326 328 l 326 315 l 336 315 q 360 335 336 328 l 360 342 l 357 342 l 336 325 m 184 332 q 201 311 201 330 q 187 294 187 304 l 180 294 l 180 325 l 184 328 l 184 332 m 350 300 l 350 294 q 363 304 363 299 l 350 300 m 274 287 l 284 287 l 288 290 l 291 290 l 288 300 l 274 287 m 309 287 l 309 283 q 332 266 309 278 l 332 273 q 322 283 322 273 l 319 287 l 309 287 m 263 256 l 263 252 q 277 239 277 252 l 284 239 q 301 266 284 254 q 263 256 263 262 m 329 256 l 329 252 l 343 252 l 339 256 l 339 259 l 329 256 m 215 256 q 208 242 215 242 l 197 245 l 194 242 l 194 231 q 205 221 205 231 l 208 221 q 225 239 208 239 l 236 239 q 215 256 229 251 m 336 208 l 336 204 l 339 204 q 367 218 340 218 l 367 231 q 336 208 336 221 m 243 218 l 250 218 l 256 224 l 250 224 l 243 218 m 381 211 l 377 197 l 388 197 l 391 211 l 381 211 m 263 176 l 263 170 q 253 163 253 170 l 263 163 l 267 173 l 267 176 l 263 176 m 229 155 l 239 155 l 246 163 l 236 163 l 229 155 m 267 90 l 267 86 l 274 86 q 284 94 274 94 l 284 100 l 267 90 m 304 100 l 304 97 l 312 86 l 312 79 q 298 69 312 69 l 298 66 l 315 66 l 319 83 q 304 100 312 99 m 239 86 l 239 79 l 243 79 l 250 86 l 239 86 m 260 52 l 267 45 l 277 45 l 277 52 l 260 52 m 229 31 l 236 21 l 246 24 l 243 38 l 229 31 m 336 31 l 336 24 l 347 24 l 347 31 l 336 31 m 401 435 l 401 401 l 395 401 l 395 408 l 391 432 l 395 435 l 401 435 m 184 332 q 201 311 201 330 q 187 294 187 304 l 180 294 l 180 325 l 184 328 l 184 332 z "},"2":{"ha":560,"x_min":-2,"x_max":519,"o":"m 385 599 q 381 601 383 600 q 369 597 376 598 l 376 597 l 377 596 q 385 599 382 597 m 279 914 l 273 921 l 269 921 q 279 914 269 914 m 432 631 l 431 661 l 429 661 l 416 647 l 419 644 l 419 637 l 406 633 l 406 626 l 409 629 l 413 626 l 420 627 l 423 630 l 427 630 l 430 627 q 432 631 431 628 m 212 442 l 220 442 l 219 453 q 212 442 212 453 m 192 390 l 191 397 l 187 397 l 187 389 l 192 390 m 187 388 l 187 383 l 194 383 l 194 384 l 193 384 l 187 388 m 195 370 l 208 370 l 208 377 l 201 376 l 195 370 m 230 417 q 228 409 227 415 l 232 391 l 222 380 l 226 378 l 229 378 l 242 392 q 234 419 235 401 q 231 418 232 419 l 231 418 q 230 417 231 418 m 238 502 l 251 509 l 251 513 l 237 512 l 238 502 m 277 469 l 284 469 l 280 486 l 279 497 l 273 496 l 273 486 l 277 469 m 296 532 l 313 533 l 313 543 l 309 543 q 296 532 296 537 m 308 480 l 311 481 l 342 492 l 342 496 q 323 515 328 496 l 313 512 l 314 495 l 308 484 l 308 480 m 318 395 l 324 401 l 324 408 l 314 405 l 318 395 m 318 578 l 321 578 q 345 600 321 587 l 348 603 l 348 606 l 345 610 l 341 609 q 317 581 320 601 l 318 578 m 321 661 l 329 661 l 328 678 l 321 677 l 321 661 m 349 500 q 361 510 362 505 l 358 513 l 348 513 l 349 507 l 345 503 l 349 500 m 356 568 l 366 576 l 397 567 l 397 570 l 386 611 q 356 568 355 594 m 354 624 l 357 624 l 364 631 l 361 631 l 354 624 m 365 514 l 393 511 l 396 515 l 395 528 l 368 535 l 368 531 l 365 514 m 385 622 l 402 626 l 402 629 l 385 629 l 385 622 m 394 660 l 404 661 l 404 667 l 387 667 l 394 660 m 212 463 l 205 456 l 205 453 q 212 463 212 453 m 352 543 l 352 538 q 361 536 356 538 l 361 538 q 352 543 355 541 m 283 401 l 283 404 l 279 404 l 278 403 l 283 401 m 231 418 q 227 419 228 418 l 220 417 l 220 415 l 227 415 q 230 417 227 416 q 231 418 230 418 m 438 688 l 469 688 l 469 690 l 455 703 l 452 700 l 445 700 l 441 714 l 435 714 l 438 711 l 435 707 l 435 700 l 438 696 l 438 693 l 435 690 q 438 688 436 689 m 258 914 l 258 907 l 269 907 q 258 914 269 914 m 76 969 l 76 951 l 93 956 l 76 969 m 200 941 l 200 935 l 214 938 l 214 941 l 200 941 m 186 935 l 186 921 l 193 921 l 193 928 l 186 935 m 17 918 l 17 914 l 24 907 l 35 910 l 35 914 l 21 918 l 17 918 m 197 907 l 193 903 l 193 900 l 207 886 q 235 893 217 893 q 224 900 235 900 l 207 897 l 197 907 m 317 886 l 324 873 l 328 873 l 328 886 l 317 886 m 283 848 l 283 842 l 300 845 l 311 845 l 311 852 l 300 852 l 283 848 m 345 827 l 345 810 l 355 810 l 355 814 q 345 827 350 827 m 293 817 l 293 814 l 303 783 l 307 783 q 328 800 307 797 l 324 810 l 307 810 l 296 817 l 293 817 m 207 810 l 214 804 l 220 804 l 217 814 l 207 810 m 390 804 l 390 800 q 410 776 399 800 l 414 772 l 417 772 l 420 776 l 420 779 q 393 804 413 800 l 390 804 m 473 797 l 473 789 l 490 789 l 490 797 l 473 797 m 311 776 q 321 762 315 762 l 324 766 l 324 776 l 317 776 l 314 779 l 311 776 m 379 766 l 387 755 l 376 724 l 379 724 l 420 734 q 379 766 405 766 m 435 766 l 435 762 l 441 755 l 441 759 l 435 766 m 324 759 l 321 731 l 324 728 l 338 728 l 345 755 l 341 755 l 324 759 m 431 734 l 435 718 l 438 718 l 438 734 l 431 734 m 469 724 l 469 714 l 476 714 l 476 731 l 469 724 m 307 686 l 307 680 l 321 686 l 321 690 l 317 690 l 307 686 m 359 591 l 359 595 l 351 595 l 357 591 l 359 591 m 296 503 q 299 498 298 500 l 303 497 l 303 499 q 296 503 303 500 m 161 336 l 155 331 l 158 331 l 167 333 l 161 336 m 142 301 l 142 298 l 146 296 l 152 296 l 152 298 l 146 301 l 142 301 m 100 234 l 100 233 l 137 224 l 140 222 l 142 222 l 140 231 l 140 234 l 146 239 l 121 239 l 100 234 m 176 359 l 182 355 l 188 355 l 188 359 l 176 359 m 197 415 l 197 412 l 199 412 l 205 415 l 197 415 m 214 398 l 220 395 l 230 395 l 230 398 l 214 398 m 194 384 l 203 385 l 199 392 l 192 390 l 194 384 m 187 389 l 186 389 l 187 388 l 187 389 m 220 528 l 227 538 l 222 540 l 280 638 q 291 656 287 647 q 300 703 300 677 l 303 728 l 296 728 l 296 755 l 290 755 l 293 752 l 293 748 l 290 745 l 286 745 q 186 789 255 789 l 7 789 l 0 797 l 0 966 l 7 972 l 207 972 q 503 807 441 972 q 517 731 517 774 l 507 728 l 507 724 q 517 714 517 724 q 515 688 516 699 l 519 688 l 513 679 q 511 670 512 674 l 499 654 l 498 659 l 491 647 l 494 646 l 481 629 l 480 631 l 473 621 l 475 619 l 471 614 q 473 620 473 617 l 203 202 l -2 202 l 186 479 l 187 479 l 215 528 l 220 528 m 8 179 l 101 179 l 109 172 l 101 165 l 101 155 l 105 155 q 117 179 117 155 l 182 179 l 186 176 l 191 179 l 241 179 q 252 162 243 162 l 256 165 l 260 165 l 256 169 l 256 179 l 353 179 l 353 169 l 357 172 l 360 169 l 368 169 l 368 172 l 364 176 l 364 179 l 504 179 l 512 172 l 512 7 l 504 0 l 403 0 l 403 10 q 395 0 395 10 l 174 0 l 163 7 l 152 0 l 8 0 l 0 7 l 0 34 l 4 38 l 0 41 l 0 148 l 8 148 l 8 158 l 0 158 l 0 172 l 8 179 m 35 134 l 47 127 l 50 138 l 47 141 l 43 141 l 35 134 m 357 131 q 334 117 357 117 l 330 121 l 326 106 l 349 106 l 360 127 l 360 131 l 357 131 m 167 121 l 163 106 l 171 106 l 178 113 l 167 121 m 81 106 l 81 93 l 89 100 l 89 106 l 81 106 m 310 90 l 321 90 l 321 100 l 310 90 m 31 83 l 27 79 l 27 75 l 31 72 l 35 72 l 39 75 l 50 62 l 50 41 l 55 41 l 66 45 l 66 48 q 31 83 56 71 m 159 45 l 159 38 l 167 38 l 174 45 l 159 45 m 43 38 l 43 31 l 50 31 l 59 38 l 43 38 m 252 38 l 245 17 l 248 17 l 260 27 l 260 38 l 252 38 m 70 24 l 70 10 l 74 10 l 78 20 l 74 24 l 70 24 m 307 17 l 307 10 l 314 3 l 314 17 l 307 17 z "},"3":{"ha":581,"x_min":0,"x_max":545,"o":"m 186 591 q 238 607 188 607 q 300 703 300 633 l 303 728 l 296 728 l 296 755 l 290 755 l 293 752 l 293 748 l 290 745 l 286 745 q 186 789 255 789 l 7 789 l 0 797 l 0 966 l 7 972 l 207 972 q 503 807 441 972 q 517 731 517 774 l 507 728 l 507 724 q 517 714 517 724 q 500 652 512 652 l 496 673 l 479 673 l 476 669 l 473 669 l 465 676 l 465 683 l 469 686 l 469 690 l 455 703 l 452 700 l 445 700 l 441 714 l 435 714 l 438 711 l 435 707 l 435 700 l 438 696 l 438 693 l 435 690 q 462 652 452 680 l 462 645 l 458 621 l 441 624 l 438 624 l 452 607 l 428 607 l 431 572 l 420 569 l 420 559 l 428 549 l 397 531 q 379 549 379 531 l 352 549 l 352 538 q 407 511 369 538 q 424 503 407 503 q 448 473 448 491 q 528 376 490 473 l 524 372 q 541 321 537 372 q 531 314 531 321 q 545 290 545 308 l 541 290 l 545 286 q 521 203 539 203 l 528 190 l 521 176 l 496 179 l 493 179 l 483 172 q 465 183 465 177 l 465 186 l 469 190 l 469 193 l 465 193 l 448 186 l 448 179 q 473 165 448 170 l 473 155 l 462 145 l 445 145 l 438 138 l 438 131 q 479 104 450 131 q 390 41 425 41 q 338 17 390 36 q 317 38 330 17 l 307 35 l 307 38 l 303 48 l 307 58 l 290 58 l 279 66 l 279 62 q 303 7 302 35 l 245 3 l 241 3 q 235 24 235 3 q 224 41 224 24 l 220 41 l 220 21 q 200 14 200 18 l 203 3 l 200 0 l 7 0 l 0 7 l 0 176 l 7 183 l 145 183 l 159 172 l 162 172 l 159 176 l 159 179 l 179 186 l 190 186 q 197 176 190 176 l 203 176 q 228 190 203 190 l 279 210 l 283 186 l 283 176 l 290 176 q 314 155 290 167 l 334 155 l 334 169 q 324 176 324 169 l 324 186 l 328 203 l 334 203 q 341 190 341 203 l 345 190 l 349 207 l 311 228 l 303 235 l 303 245 q 317 279 303 258 l 317 321 l 321 324 l 300 376 l 314 369 l 317 372 l 317 382 l 293 382 l 279 397 l 283 400 l 283 404 l 279 404 l 269 400 q 187 423 256 419 l 186 591 m 76 969 l 76 951 l 93 956 l 76 969 m 200 941 l 200 935 l 214 938 l 214 941 l 200 941 m 186 935 l 186 921 l 193 921 l 193 928 l 186 935 m 269 921 q 258 914 269 914 l 258 907 l 269 907 q 279 914 269 914 l 273 921 l 269 921 m 17 918 l 17 914 l 24 907 l 35 910 l 35 914 l 21 918 l 17 918 m 197 907 l 193 903 l 193 900 l 207 886 q 235 893 217 893 q 224 900 235 900 l 207 897 l 197 907 m 317 886 l 324 873 l 328 873 l 328 886 l 317 886 m 283 848 l 283 842 l 300 845 l 311 845 l 311 852 l 300 852 l 283 848 m 345 827 l 345 810 l 355 810 l 355 814 q 345 827 350 827 m 293 817 l 293 814 l 303 783 l 307 783 q 328 800 307 797 l 324 810 l 307 810 l 296 817 l 293 817 m 207 810 l 214 804 l 220 804 l 217 814 l 207 810 m 390 804 l 390 800 q 410 776 399 800 l 414 772 l 417 772 l 420 776 l 420 779 q 393 804 413 800 l 390 804 m 473 797 l 473 789 l 490 789 l 490 797 l 473 797 m 311 776 q 321 762 315 762 l 324 766 l 324 776 l 317 776 l 314 779 l 311 776 m 379 766 l 387 755 l 376 724 l 379 724 l 420 734 q 379 766 405 766 m 435 766 l 435 762 l 441 755 l 441 759 l 435 766 m 324 759 l 321 731 l 324 728 l 338 728 l 345 755 l 341 755 l 324 759 m 431 734 l 435 718 l 438 718 l 438 734 l 431 734 m 469 724 l 469 714 l 476 714 l 476 731 l 469 724 m 307 686 l 307 680 l 321 686 l 321 690 l 317 690 l 307 686 m 349 686 l 352 673 l 355 673 q 366 686 360 673 l 349 686 m 390 673 l 393 669 l 393 665 l 390 662 l 390 659 l 397 659 l 404 680 l 390 673 m 473 655 l 473 645 l 465 645 l 465 648 l 473 655 m 479 648 l 483 648 l 500 645 q 486 621 500 627 l 479 621 l 479 624 l 483 627 l 479 631 l 479 648 m 269 617 l 269 610 l 276 604 l 279 604 l 276 617 l 269 617 m 473 621 l 486 610 l 462 583 l 458 583 l 458 593 q 473 621 473 610 m 324 604 l 324 597 l 331 590 l 359 590 l 359 597 l 376 597 l 387 590 l 393 590 q 345 610 393 602 l 338 610 l 324 604 m 207 593 l 203 590 l 203 583 q 224 569 224 578 l 228 569 l 228 576 q 220 590 220 576 l 207 593 m 303 566 l 303 555 l 311 555 l 317 562 l 303 566 m 217 541 l 210 528 l 224 528 l 231 534 l 231 538 l 217 541 m 331 514 l 334 514 l 341 521 l 338 521 l 331 514 m 296 503 q 311 486 303 488 l 314 486 l 303 511 l 296 503 m 224 486 l 224 479 q 241 469 233 479 l 245 469 q 228 486 243 478 l 224 486 m 382 431 q 400 410 400 431 l 410 410 q 417 428 410 428 l 420 424 l 448 431 l 452 431 q 458 420 458 431 q 479 414 464 414 l 479 407 q 455 366 455 382 l 465 355 l 465 352 q 448 341 457 352 l 435 341 l 435 314 l 410 307 l 404 314 l 397 293 l 400 279 l 390 269 l 400 252 l 400 245 q 372 235 400 238 l 369 238 l 366 235 l 366 231 q 376 217 374 231 l 369 210 q 390 193 390 210 q 420 176 390 185 q 428 193 422 193 l 424 197 l 424 200 l 428 203 l 428 207 l 445 203 l 448 203 l 420 220 l 417 217 l 414 217 l 410 220 l 410 224 l 417 241 l 465 245 l 465 248 l 458 258 l 441 255 l 424 262 l 424 276 l 428 279 l 424 283 l 424 296 l 435 307 l 458 307 l 455 290 l 458 286 l 465 286 l 469 303 l 465 328 l 469 324 l 473 324 l 479 331 l 479 334 l 476 338 l 476 341 q 496 355 496 350 l 486 372 q 500 393 494 393 l 503 390 l 503 393 l 490 414 l 496 424 l 496 431 l 493 428 l 490 428 l 486 431 l 483 428 l 479 428 q 473 438 473 428 l 420 438 q 410 469 414 438 l 431 476 l 435 473 l 445 473 l 445 476 q 417 486 432 476 q 390 455 390 467 l 382 431 m 296 424 l 296 417 l 307 417 l 314 424 l 296 424 m 314 417 l 314 410 l 324 410 l 324 417 l 314 417 m 455 410 l 455 400 l 465 404 l 465 407 l 455 410 m 387 362 l 379 349 l 382 345 l 379 341 l 400 341 l 393 352 l 407 355 l 407 362 l 387 362 m 507 334 l 514 328 l 521 334 l 507 334 m 517 269 l 517 266 l 524 258 l 524 269 l 517 269 m 473 252 l 473 248 l 483 224 l 479 207 l 486 207 q 500 214 486 214 l 500 220 q 490 238 490 220 l 496 248 l 496 252 l 473 252 m 517 231 l 521 228 l 531 228 l 531 238 l 524 238 l 517 231 m 293 231 l 296 231 q 321 200 296 220 q 296 186 317 186 q 279 220 279 206 l 293 231 m 162 155 l 179 149 l 183 152 l 186 152 l 179 169 q 162 155 163 162 m 431 169 l 424 155 l 424 152 q 441 162 441 156 l 435 169 l 431 169 m 127 162 l 127 159 q 155 149 130 149 l 159 149 q 138 162 155 162 l 127 162 m 486 159 l 490 159 l 507 152 l 507 145 l 493 131 l 486 131 l 479 138 l 479 152 l 486 159 m 93 149 q 73 124 93 141 q 100 100 79 124 q 111 114 102 114 l 107 117 l 111 134 l 111 138 q 100 149 100 138 l 93 149 m 210 138 l 207 124 q 224 111 224 124 l 228 111 l 228 121 l 224 138 l 210 138 m 393 138 l 393 134 l 400 127 l 404 127 l 404 134 l 400 138 l 393 138 m 162 107 l 162 104 l 165 100 l 165 96 l 162 93 l 165 93 l 169 96 l 186 93 l 193 93 l 193 107 l 176 111 l 162 107 m 96 79 l 96 69 l 104 76 l 100 79 l 96 79 m 235 58 l 235 45 l 248 45 l 248 58 l 235 58 m 145 55 l 145 41 l 149 41 l 152 45 l 155 45 l 159 41 l 159 45 q 145 55 159 50 m 149 35 l 149 31 l 152 21 l 159 21 l 162 35 l 149 35 m 124 24 l 121 10 l 149 10 l 149 17 l 141 24 l 124 24 z "},"4":{"ha":729,"x_min":-1,"x_max":673,"o":"m 673 406 l 671 406 l 654 396 l 654 378 l 673 399 l 673 250 l 481 250 l 481 254 l 485 257 l 485 260 l 481 264 l 477 264 l 464 250 l 433 250 l 433 257 l 436 254 l 439 254 l 439 264 q 398 281 414 264 l 398 298 l 380 298 q 363 288 380 288 l 363 281 q 391 267 363 276 l 395 250 l 6 250 l -1 257 l -1 264 l 9 278 l 9 281 q -1 288 -1 281 l -1 302 q 9 309 -1 309 l 9 330 q -1 372 -1 330 l -1 389 l 3 403 l -1 416 l -1 462 l 9 472 l 17 472 q 75 437 75 451 l 79 437 l 86 444 l 75 444 l 79 462 l 68 462 l 52 465 l 52 472 l 398 472 q 405 441 405 472 l 415 434 l 426 441 l 446 441 l 457 434 l 467 434 l 467 437 q 454 454 458 437 l 450 451 l 415 458 l 415 465 l 422 472 l 613 472 l 613 454 l 620 454 l 627 462 l 623 472 l 673 472 l 673 406 m 454 357 l 422 357 l 412 351 q 422 330 416 330 l 426 330 l 422 347 l 433 354 l 436 354 l 454 351 l 454 357 m 405 323 l 398 323 l 384 309 l 384 306 l 387 306 l 387 313 l 391 313 l 405 302 l 405 323 m 380 431 l 377 431 l 377 427 l 384 420 l 387 420 l 387 423 l 380 431 m 356 413 l 353 413 q 329 406 345 406 l 332 403 l 332 399 l 321 385 l 332 385 l 356 403 l 356 413 m 321 413 l 311 413 l 311 406 l 315 406 l 321 413 m 304 313 l 294 313 l 287 306 l 287 302 l 298 302 l 304 309 l 304 313 m 301 382 l 294 382 l 294 361 l 301 361 l 301 382 m 287 323 l 270 330 l 262 330 q 283 316 270 316 l 287 319 l 287 323 m 270 410 l 270 406 q 280 392 275 392 l 280 399 l 270 410 m 262 410 l 239 420 l 231 410 l 239 382 l 242 382 q 262 406 251 406 l 262 410 m 252 347 l 249 351 l 245 351 l 245 340 l 252 347 m 231 298 l 231 326 q 218 292 224 326 l 218 288 l 224 281 l 235 281 l 231 298 m 173 357 l 162 357 l 155 351 l 155 347 l 162 340 q 173 354 162 354 l 173 357 m 149 281 l 138 281 l 134 271 l 138 267 l 142 267 l 149 278 l 149 281 m 124 295 q 103 306 103 295 l 106 326 q 96 334 96 326 l 93 334 l 86 316 q 100 298 93 298 l 100 295 l 96 292 l 96 288 q 111 281 111 288 q 124 295 121 284 m 100 441 l 96 441 l 96 427 l 106 427 l 106 434 l 100 441 m 58 389 q 37 365 50 365 l 37 361 q 52 334 52 344 l 58 340 l 58 372 l 65 382 l 58 389 m 52 295 l 31 295 l 31 292 l 44 285 l 58 288 l 52 295 m 44 281 l 41 281 l 48 275 l 52 275 l 44 281 m 24 427 l 13 423 q 27 406 20 408 l 31 406 l 31 420 l 24 427 m 424 884 l 416 878 l 412 878 l 404 885 l 406 899 l 424 884 m 244 590 l 252 583 l 255 582 l 256 589 l 244 590 m 224 674 l 220 675 l 220 668 l 232 667 l 224 674 m 222 723 l 221 716 l 228 709 l 232 709 l 233 712 l 230 722 l 222 723 m 294 760 l 294 755 l 310 754 l 310 758 l 294 760 m 272 779 l 268 779 l 278 761 l 290 760 q 272 779 282 777 m 348 776 l 347 772 l 355 765 l 355 775 l 348 776 m 357 789 l 349 783 l 348 779 l 352 779 l 369 781 l 369 785 l 357 789 m 395 807 l 395 800 l 406 799 l 407 806 l 395 807 m 460 922 q 422 904 459 911 l 378 907 l 378 904 q 393 892 394 901 l 393 889 l 389 886 l 411 870 l 418 869 l 439 872 l 438 861 q 456 881 454 860 l 481 879 l 481 882 q 466 894 482 891 l 469 922 l 460 922 m 456 954 l 456 950 l 463 943 l 471 949 l 473 960 l 469 963 l 456 954 m 667 975 q 659 966 663 970 q 591 898 608 897 q 577 878 589 878 l 561 880 l 562 886 l 550 888 l 549 881 l 529 879 q 491 864 512 863 l 490 857 l 509 852 l 518 859 l 534 850 q 559 859 557 848 l 566 859 l 566 855 l 537 819 q 538 823 538 821 l 507 825 l 507 821 l 502 819 l 484 820 l 466 825 l 466 821 l 465 821 l 463 832 l 442 830 l 433 831 l 419 836 l 413 836 l 396 848 l 389 845 l 380 846 q 346 869 377 860 l 334 866 l 334 873 l 330 873 q 317 864 323 868 q 357 896 321 895 l 353 899 q 370 908 355 908 l 363 920 l 364 926 q 407 975 385 954 l 667 975 m 3 494 l 286 828 l 297 827 l 296 817 l 292 814 l 296 814 l 308 820 q 298 834 308 833 q 317 864 299 848 l 325 857 l 369 853 l 368 846 l 380 846 l 379 842 l 383 842 l 389 845 l 396 844 l 395 838 l 413 836 l 418 832 l 433 831 l 465 821 l 465 818 l 484 820 l 498 815 l 502 819 l 506 818 l 507 821 l 518 821 q 526 810 517 811 l 530 810 l 537 819 q 505 777 532 806 l 502 781 l 493 781 l 493 778 l 502 777 q 381 635 492 758 q 263 494 315 556 l 3 494 m 671 886 l 664 879 l 657 879 q 643 898 657 887 l 671 932 l 671 886 m 650 872 l 633 859 l 636 859 l 667 876 l 671 872 l 671 496 l 450 496 l 450 658 l 637 891 l 650 872 m 519 962 l 512 951 l 515 951 l 526 956 l 519 962 m 557 931 l 557 924 l 560 921 l 567 921 l 567 924 l 560 931 l 557 931 m 608 852 l 616 844 l 623 844 l 623 852 l 608 852 m 467 844 l 467 838 l 474 831 l 477 834 l 477 838 l 471 844 l 467 844 m 643 572 l 643 541 l 650 541 l 654 551 l 646 572 l 643 572 m 474 220 l 477 220 q 479 230 477 227 l 633 229 q 605 207 605 220 l 605 203 l 608 203 q 636 217 610 217 l 636 229 l 671 229 l 671 169 q 654 155 664 155 l 661 149 l 671 152 l 671 56 l 664 56 q 657 73 664 73 l 636 83 l 636 79 q 657 69 636 74 l 661 52 l 661 48 l 650 38 l 643 38 l 623 56 l 623 52 l 640 31 l 636 21 l 640 21 q 661 35 661 21 l 671 35 l 671 7 l 664 0 l 643 0 l 633 7 l 626 0 l 602 0 q 595 10 595 0 l 574 10 q 567 0 574 0 l 550 0 l 529 17 l 526 17 l 526 0 l 484 0 l 484 10 l 463 10 l 463 7 l 471 7 l 471 0 l 456 0 l 450 7 l 450 10 l 456 21 l 456 38 l 450 38 l 450 69 l 463 90 q 453 100 463 100 l 450 104 l 450 128 l 456 135 l 471 135 l 481 128 l 491 128 l 488 132 l 471 138 l 463 159 l 456 159 l 456 142 l 450 142 l 450 231 l 467 230 q 474 220 474 229 m 671 886 l 664 879 l 657 879 q 643 898 657 887 l 671 932 l 671 886 m 519 962 l 512 951 l 515 951 l 526 956 l 519 962 m 557 931 l 557 924 l 560 921 l 567 921 l 567 924 l 560 931 l 557 931 m 608 852 l 616 844 l 623 844 l 623 852 l 608 852 m 467 844 l 467 838 l 474 831 l 477 834 l 477 838 l 471 844 l 467 844 m 643 572 l 643 541 l 650 541 l 654 551 l 646 572 l 643 572 m 619 842 l 602 819 l 602 808 l 616 819 l 619 819 l 623 815 q 629 839 623 831 l 629 842 l 619 842 m 623 802 l 623 798 l 629 798 l 629 808 l 623 802 m 577 788 l 577 781 l 598 781 l 598 788 l 577 788 m 616 767 l 608 767 q 623 757 608 762 l 626 757 l 616 767 m 623 749 q 598 729 623 738 l 598 726 l 626 718 l 636 726 l 626 749 l 623 749 m 557 732 l 567 732 l 567 736 l 564 739 l 557 732 m 498 722 l 498 711 l 505 705 l 508 705 q 543 718 543 711 l 515 718 l 498 722 m 570 660 q 557 649 570 649 l 564 642 l 567 642 l 574 649 l 574 660 l 570 660 m 494 635 l 484 629 l 484 625 l 488 621 l 498 625 l 498 635 l 494 635 m 511 611 q 498 597 500 608 q 505 583 504 597 l 508 583 l 511 587 l 515 587 q 532 573 515 580 l 550 580 l 550 583 q 543 593 543 583 l 522 590 q 511 611 511 590 m 650 593 l 644 593 l 644 583 l 657 583 l 657 587 l 650 593 m 598 552 l 588 545 l 557 545 l 550 538 q 577 524 560 538 l 581 524 q 605 545 581 536 l 598 552 m 505 545 l 501 531 l 508 517 l 511 517 l 511 538 l 505 545 m 491 538 l 491 535 l 498 528 l 498 531 l 491 538 m 560 56 l 568 49 l 571 48 l 572 55 l 560 56 m 541 140 l 536 141 l 536 134 l 548 133 l 541 140 m 538 189 l 537 182 l 544 174 l 548 174 l 549 178 l 546 188 l 538 189 z "},"5":{"ha":591,"x_min":0,"x_max":545,"o":"m 303 566 l 303 555 l 311 555 l 317 562 l 303 566 m 531 812 l 531 806 l 538 799 l 538 812 l 531 812 m 321 819 l 321 806 l 324 806 l 328 816 l 324 819 l 321 819 m 483 833 l 476 812 l 479 812 l 490 823 l 490 833 l 483 833 m 296 833 l 296 826 l 303 826 l 311 833 l 296 833 m 400 840 l 400 833 l 407 833 l 414 840 l 400 840 m 286 878 l 283 875 l 283 871 l 286 867 l 290 867 l 293 871 l 303 857 l 303 837 l 307 837 l 317 840 l 317 844 q 286 878 308 866 m 534 885 l 545 885 l 545 895 l 534 885 m 331 902 l 331 888 l 338 895 l 338 902 l 331 902 m 407 916 l 404 902 l 410 902 l 417 909 l 407 916 m 290 930 l 300 923 l 303 933 l 300 937 l 296 937 l 290 930 m 124 24 l 121 10 l 149 10 l 149 17 l 141 24 l 124 24 m 149 35 l 149 31 l 152 21 l 159 21 l 162 35 l 149 35 m 145 55 l 145 41 l 149 41 l 152 45 l 155 45 l 159 41 l 159 45 q 145 55 159 50 m 235 58 l 235 45 l 248 45 l 248 58 l 235 58 m 96 79 l 96 69 l 104 76 l 100 79 l 96 79 m 162 107 l 162 104 l 165 100 l 165 96 l 162 93 l 165 93 l 169 96 l 186 93 l 193 93 l 193 107 l 176 111 l 162 107 m 393 138 l 393 134 l 400 127 l 404 127 l 404 134 l 400 138 l 393 138 m 210 138 l 207 124 q 224 111 224 124 l 228 111 l 228 121 l 224 138 l 210 138 m 93 149 q 73 124 93 141 q 100 100 79 124 q 111 114 102 114 l 107 117 l 111 134 l 111 138 q 100 149 100 138 l 93 149 m 127 162 l 127 159 q 155 149 130 149 l 159 149 q 138 162 155 162 l 127 162 m 431 169 l 424 155 l 424 152 q 441 162 441 156 l 435 169 l 431 169 m 162 155 l 179 149 l 183 152 l 186 152 l 179 169 q 162 155 163 162 m 517 231 l 521 228 l 531 228 l 531 238 l 524 238 l 517 231 m 473 252 l 473 248 l 483 224 l 479 207 l 486 207 q 500 214 486 214 l 500 220 q 490 238 490 220 l 496 248 l 496 252 l 473 252 m 517 269 l 517 266 l 524 258 l 524 269 l 517 269 m 507 334 l 514 328 l 521 334 l 507 334 m 387 362 l 379 349 l 382 345 l 379 341 l 400 341 l 393 352 l 407 355 l 407 362 l 387 362 m 455 410 l 455 400 l 465 404 l 465 407 l 455 410 m 314 417 l 314 410 l 324 410 l 324 417 l 314 417 m 296 424 l 296 417 l 307 417 l 314 424 l 296 424 m 138 452 l 159 452 l 152 458 l 145 458 l 138 452 m 382 431 q 400 410 400 431 l 410 410 q 417 428 410 428 l 420 424 l 448 431 l 452 431 q 458 420 458 431 q 479 414 464 414 l 479 407 q 455 366 455 382 l 465 355 l 465 352 q 448 341 457 352 l 435 341 l 435 314 l 410 307 l 404 314 l 397 293 l 400 279 l 390 269 l 400 252 l 400 245 q 372 235 400 238 l 369 238 l 366 235 l 366 231 q 376 217 374 231 l 369 210 q 390 193 390 210 q 420 176 390 185 q 428 193 422 193 l 424 197 l 424 200 l 428 203 l 428 207 l 445 203 l 448 203 l 420 220 l 417 217 l 414 217 l 410 220 l 410 224 l 417 241 l 465 245 l 465 248 l 458 258 l 441 255 l 424 262 l 424 276 l 428 279 l 424 283 l 424 296 l 435 307 l 458 307 l 455 290 l 458 286 l 465 286 l 469 303 l 465 328 l 469 324 l 473 324 l 479 331 l 479 334 l 476 338 l 476 341 q 496 355 496 350 l 486 372 q 500 393 494 393 l 503 390 l 503 393 l 490 414 l 496 424 l 496 431 l 493 428 l 490 428 l 486 431 l 483 428 l 479 428 q 473 438 473 428 l 420 438 q 410 469 414 438 l 431 476 l 435 473 l 445 473 l 445 476 q 417 486 432 476 q 390 455 390 467 l 382 431 m 224 486 l 224 479 q 241 469 233 479 l 245 469 q 228 486 243 478 l 224 486 m 296 503 q 311 486 303 488 l 314 486 l 303 511 l 296 503 m 331 514 l 334 514 l 341 521 l 338 521 l 331 514 m 217 541 l 210 528 l 224 528 l 231 534 l 231 538 l 217 541 m 293 231 l 296 231 q 321 200 296 220 q 296 186 317 186 q 279 220 279 206 l 293 231 m 220 590 l 217 587 l 203 587 l 203 583 q 224 569 224 578 l 228 569 l 228 576 q 220 590 220 576 l 220 590 m 144 600 l 144 604 q 155 615 155 604 l 169 622 l 182 618 q 196 635 189 634 l 199 632 l 203 632 l 214 646 l 193 650 l 193 673 q 207 684 207 673 l 220 684 l 220 646 l 217 615 l 218 606 q 238 607 227 607 q 365 557 313 594 l 362 557 l 362 546 q 407 511 379 546 q 424 503 407 503 q 448 473 448 491 q 528 376 490 473 l 524 372 q 541 321 537 372 q 531 314 531 321 q 545 290 545 308 l 541 290 l 545 286 q 521 203 539 203 l 528 190 l 521 176 l 496 179 l 493 179 l 483 172 q 465 183 465 177 l 465 186 l 469 190 l 469 193 l 465 193 l 448 186 l 448 179 q 473 165 448 170 l 473 155 l 462 145 l 445 145 l 438 138 l 438 131 q 479 104 450 131 q 390 41 425 41 q 338 17 390 36 q 317 38 330 17 l 307 35 l 307 38 l 303 48 l 307 58 l 290 58 l 279 66 l 279 62 q 303 7 302 35 l 245 3 l 241 3 q 235 24 235 3 q 224 41 224 24 l 220 41 l 220 21 q 200 14 200 18 l 203 3 l 200 0 l 7 0 l 0 7 l 0 176 l 7 183 l 145 183 l 159 172 l 162 172 l 159 176 l 159 179 l 179 186 l 190 186 q 197 176 190 176 l 203 176 q 228 190 203 190 l 279 210 l 283 186 l 283 176 l 290 176 q 314 155 290 167 l 334 155 l 334 169 q 324 176 324 169 l 324 186 l 328 203 l 334 203 q 341 190 341 203 l 345 190 l 349 207 l 311 228 l 303 235 l 303 245 q 317 279 303 258 l 317 321 l 321 324 l 300 376 l 314 369 l 317 372 l 317 382 l 293 382 l 279 397 l 283 400 l 283 404 l 279 404 l 269 400 q 152 424 254 424 l 7 424 l 0 431 l 0 593 l 1 594 l 0 594 l 0 687 l 7 687 q 14 667 7 667 l 20 673 l 20 680 q 0 694 20 687 l 0 801 l 24 798 l 27 798 l 27 801 l 0 812 l 0 853 l 10 853 l 10 860 q 0 867 0 860 l 0 975 l 16 975 l 17 970 l 20 970 l 24 975 l 90 975 l 90 970 l 62 970 l 62 956 l 41 956 l 37 953 l 34 953 q 48 943 34 943 l 52 922 l 55 925 l 58 925 l 55 928 l 55 936 l 65 946 l 79 949 l 79 960 l 83 956 l 90 956 l 96 975 l 101 975 l 110 970 l 110 975 l 144 975 l 144 963 l 141 946 q 151 939 151 946 l 151 925 l 141 922 q 113 946 135 946 l 113 943 q 131 918 131 932 l 124 911 l 121 915 l 103 915 l 103 895 q 93 887 103 887 l 93 880 q 113 860 113 880 l 117 863 l 121 863 l 151 857 l 155 860 l 155 853 q 144 846 144 853 l 144 836 l 151 836 l 151 842 l 169 839 l 176 839 l 176 842 l 169 842 l 169 849 l 182 853 l 182 836 l 172 836 l 172 822 l 176 819 l 176 815 q 162 794 162 809 l 151 794 l 141 804 l 148 812 l 141 832 l 134 832 l 134 819 l 131 819 l 124 825 l 127 829 l 127 832 l 121 832 l 100 825 l 100 819 q 144 794 119 819 l 144 766 l 151 766 q 165 787 151 774 l 169 784 l 186 784 l 179 808 q 207 836 179 819 l 207 839 l 220 839 l 220 812 l 214 787 l 220 787 l 220 774 l 214 774 l 214 784 q 186 770 188 784 l 186 766 l 189 766 l 189 774 q 217 749 217 770 l 203 739 l 182 739 l 186 756 l 186 763 l 182 763 q 176 749 182 749 l 182 718 l 176 711 l 176 708 q 186 701 186 708 l 189 705 l 193 705 l 203 694 l 203 691 q 186 677 186 691 l 189 673 l 186 670 l 182 673 l 172 673 l 155 670 l 151 691 l 148 691 q 127 680 136 680 l 127 673 l 141 670 l 131 639 q 144 618 140 639 l 138 608 l 121 615 l 117 612 l 121 600 l 144 600 m 198 975 l 193 966 l 196 963 l 203 963 l 207 974 l 206 975 l 220 975 l 220 915 l 214 915 l 207 922 l 210 922 l 207 932 l 199 932 l 199 915 q 179 908 199 908 l 179 905 l 203 898 l 203 890 l 199 887 l 199 884 l 203 880 q 186 860 191 874 q 165 895 178 860 l 162 895 l 158 877 q 169 870 169 877 l 151 867 l 134 877 l 131 877 l 131 887 l 138 895 l 155 895 q 165 918 155 910 l 162 918 l 165 922 l 165 925 l 158 946 l 169 953 l 179 943 l 182 943 l 189 949 q 179 975 189 966 l 198 975 m 220 849 l 214 849 l 210 867 l 214 890 l 220 884 l 220 849 m 545 795 l 414 795 l 404 802 l 393 795 l 266 795 l 258 802 l 258 829 l 262 833 l 258 837 l 258 943 l 266 943 l 266 954 l 258 954 l 258 968 l 266 975 l 349 975 l 355 968 l 349 961 l 349 950 l 352 950 q 362 975 362 950 l 420 975 l 424 971 l 428 975 l 473 975 q 483 958 475 958 l 486 961 l 490 961 l 486 964 l 486 975 l 545 975 l 545 795 m 486 159 l 490 159 l 507 152 l 507 145 l 493 131 l 486 131 l 479 138 l 479 152 l 486 159 z "},"6":{"ha":737,"x_min":-1,"x_max":690,"o":"m 360 640 q 627 532 543 635 l 631 536 l 631 532 l 627 529 q 690 331 690 434 l 690 317 q 627 123 690 199 l 621 123 l 621 120 l 624 109 l 600 89 l 596 89 l 596 96 l 589 96 l 586 85 l 589 75 q 358 1 531 13 l 359 172 l 368 172 l 368 175 l 364 186 q 468 324 468 220 l 468 342 q 359 455 447 446 l 360 640 m 617 584 l 624 584 q 634 577 624 577 l 634 567 l 627 567 q 621 577 621 567 l 617 577 l 617 570 l 607 570 l 617 584 m 486 421 l 489 401 l 496 401 l 492 404 l 492 408 l 499 421 l 486 421 m 555 393 l 562 387 l 565 390 l 565 393 l 555 393 m 586 317 l 586 311 l 607 311 l 607 303 l 610 303 l 610 311 l 600 317 l 586 317 m 321 790 q 221 678 241 778 l 221 323 q 321 186 221 221 l 321 1 q 100 74 157 14 l 103 85 l 100 95 l 93 95 l 93 88 l 90 88 l 65 109 l 68 119 l 68 123 l 62 123 q -1 317 -1 198 l -1 667 q 62 865 -1 770 l 58 869 l 58 872 l 62 869 q 321 975 144 969 l 321 790 m 82 907 l 72 907 l 72 913 l 68 913 q 62 903 68 903 l 55 903 l 55 913 q 65 920 65 913 l 72 920 l 82 907 m 104 612 l 119 590 l 119 585 l 111 579 l 127 579 l 134 612 l 104 612 m 124 730 l 124 726 l 127 723 l 134 730 l 124 730 m 90 317 l 79 310 l 79 302 l 82 302 l 82 310 l 103 310 l 103 317 l 90 317 z "},"7":{"ha":718,"x_min":-2,"x_max":673,"o":"m -1 821 l 1 821 l 18 831 l 18 848 l -1 827 l -1 977 l 191 977 l 191 973 l 187 970 l 187 966 l 191 963 l 195 963 l 208 977 l 239 977 l 239 970 l 236 973 l 233 973 l 233 963 q 274 945 258 963 l 274 928 l 292 928 q 309 939 292 939 l 309 945 q 281 960 309 951 l 277 977 l 666 977 l 673 970 l 673 963 l 663 949 l 663 945 q 673 939 673 945 l 673 924 q 663 918 673 918 l 663 897 q 673 855 673 897 l 673 838 l 669 824 l 673 810 l 673 765 l 663 755 l 655 755 q 597 789 597 776 l 593 789 l 586 783 l 597 783 l 593 765 l 604 765 l 621 762 l 621 755 l 274 755 q 267 786 267 755 l 257 793 l 246 786 l 226 786 l 215 793 l 205 793 l 205 789 q 218 772 214 789 l 222 776 l 257 768 l 257 762 l 250 755 l 59 755 l 59 772 l 52 772 l 45 765 l 49 755 l -1 755 l -1 821 m 18 963 l 24 963 l 24 973 l 18 966 l 18 963 m 191 924 l 195 928 l 205 928 q 212 918 212 928 l 215 914 l 218 914 l 218 932 l 191 932 l 191 924 m 195 886 l 198 883 l 208 883 l 205 886 l 208 904 l 198 914 l 195 886 m 218 869 l 250 869 l 260 876 q 250 897 256 897 l 246 897 l 250 880 l 239 873 l 236 873 l 218 876 l 218 869 m 267 904 l 274 904 l 288 918 l 288 921 l 285 921 l 285 914 l 281 914 l 267 924 l 267 904 m 292 796 l 295 796 l 295 800 l 288 807 l 285 807 l 285 804 l 292 796 m 316 814 l 319 814 q 343 821 328 821 l 340 824 l 340 827 l 351 842 l 340 842 l 316 824 l 316 814 m 351 814 l 361 814 l 361 821 l 357 821 l 351 814 m 368 914 l 378 914 l 385 921 l 385 924 l 374 924 l 368 918 l 368 914 m 371 845 l 378 845 l 378 866 l 371 866 l 371 845 m 385 904 l 402 897 l 410 897 q 389 911 402 911 l 385 907 l 385 904 m 402 817 l 402 821 q 392 835 397 835 l 392 827 l 402 817 m 410 817 l 433 807 l 441 817 l 433 845 l 430 845 q 410 821 421 821 l 410 817 m 420 880 l 423 876 l 427 876 l 427 886 l 420 880 m 441 928 l 441 901 q 454 935 448 901 l 454 939 l 448 945 l 437 945 l 441 928 m 499 869 l 510 869 l 517 876 l 517 880 l 510 886 q 499 873 510 873 l 499 869 m 524 945 l 534 945 l 538 956 l 534 960 l 530 960 l 524 949 l 524 945 m 548 932 q 569 921 569 932 l 566 901 q 576 893 576 901 l 579 893 l 586 911 q 572 928 579 928 l 572 932 l 576 935 l 576 939 q 562 945 562 939 q 548 932 551 943 m 572 786 l 576 786 l 576 800 l 566 800 l 566 793 l 572 786 m 614 838 q 635 862 623 862 l 635 866 q 621 893 621 883 l 614 886 l 614 855 l 607 845 l 614 838 m 621 932 l 642 932 l 642 935 l 628 942 l 614 939 l 621 932 m 628 945 l 631 945 l 624 952 l 621 952 l 628 945 m 648 800 l 659 804 q 645 821 652 819 l 642 821 l 642 807 l 648 800 m 241 0 l -2 0 l 422 729 l 666 729 l 241 0 m 210 201 l 202 193 l 206 193 l 218 197 l 210 201 m 186 149 l 186 144 l 191 142 l 198 142 l 198 144 l 191 149 l 186 149 m 131 48 l 131 45 l 178 33 l 182 31 l 186 31 l 182 43 l 182 48 l 191 56 l 159 56 l 131 48 m 229 236 l 237 231 l 245 231 l 245 236 l 229 236 m 361 307 l 361 302 l 370 298 l 374 300 l 374 302 l 366 307 l 361 307 m 458 589 l 466 584 q 506 600 501 591 l 502 602 q 458 589 482 589 m 347 523 l 347 518 l 355 513 l 355 523 l 347 523 m 371 508 l 371 498 l 383 498 l 383 500 l 380 508 l 371 508 m 431 515 l 431 513 l 471 495 l 471 505 q 450 528 450 514 q 438 515 444 528 l 431 515 m 441 684 l 441 680 q 466 671 454 680 l 470 671 l 481 678 l 470 690 l 466 690 q 441 684 452 684 m 355 478 l 351 463 l 363 456 l 363 450 l 343 448 l 332 448 l 323 435 l 323 433 l 332 428 l 336 428 l 355 431 l 359 418 l 363 418 l 363 433 q 371 443 371 433 l 376 446 l 380 446 l 395 443 l 395 446 q 371 456 395 450 l 367 468 l 367 471 l 376 471 l 376 473 q 363 478 363 473 l 355 478 m 447 431 l 435 433 l 435 423 l 447 423 q 475 437 447 433 l 475 443 l 471 443 l 447 431 m 463 412 l 463 408 q 479 415 479 412 l 463 412 m 376 403 l 387 403 l 391 406 l 395 406 l 391 412 l 376 403 m 416 403 l 416 400 q 443 388 416 397 l 443 393 q 431 400 431 393 l 427 403 l 416 403 m 363 380 l 363 378 q 380 368 380 378 l 387 368 q 407 388 387 379 q 363 380 363 385 m 439 380 l 439 378 l 456 378 l 451 380 l 451 382 l 439 380 m 551 670 q 543 661 551 661 l 530 663 l 526 661 l 526 652 q 538 645 538 652 l 543 645 q 562 658 543 658 l 575 658 q 551 670 567 667 m 382 555 l 382 551 l 386 551 q 418 564 387 564 l 418 575 q 382 555 382 566 m 503 612 l 511 612 l 518 618 l 511 618 l 503 612 m 435 557 l 430 546 l 442 546 l 446 557 l 435 557 m 526 583 l 526 578 q 515 573 515 578 l 526 573 l 530 581 l 530 583 l 526 583 m 486 568 l 498 568 l 507 573 l 495 573 l 486 568 m 288 322 l 288 320 l 296 320 q 308 326 296 326 l 308 330 l 288 322 m 292 404 l 292 401 l 301 393 l 301 389 q 284 381 301 381 l 284 379 l 305 379 l 309 391 q 292 404 301 403 m 256 320 l 256 315 l 260 315 l 268 320 l 256 320 m 280 295 l 288 290 l 300 290 l 300 295 l 280 295 m 243 280 l 252 273 l 264 275 l 260 285 l 243 280 m 328 354 l 328 349 l 341 349 l 341 354 l 328 354 z "},"8":{"ha":745,"x_min":-1,"x_max":713,"o":"m 373 936 l 382 938 l 382 941 l 373 941 l 373 972 l 376 972 q 672 807 610 972 q 686 731 686 774 l 676 728 l 676 724 q 686 714 686 724 q 669 652 681 652 l 665 673 l 648 673 l 645 669 l 642 669 l 634 676 l 634 683 l 638 686 l 638 690 l 624 703 l 621 700 l 614 700 l 610 714 l 604 714 l 607 711 l 604 707 l 604 700 l 607 696 l 607 693 l 604 690 q 631 652 621 680 l 631 645 l 627 621 l 610 624 l 607 624 l 621 607 l 597 607 l 600 572 l 589 569 l 589 559 l 597 549 l 566 531 q 548 549 548 531 l 521 549 l 521 538 q 576 511 538 538 q 593 503 576 503 q 617 473 617 491 q 696 376 659 473 l 693 372 q 710 321 706 372 q 700 314 700 321 q 713 290 713 308 l 710 290 l 713 286 q 690 203 708 203 l 696 190 l 690 176 l 665 179 l 662 179 l 652 172 q 634 183 634 177 l 634 186 l 638 190 l 638 193 l 634 193 l 617 186 l 617 179 q 642 165 617 170 l 642 155 l 631 145 l 614 145 l 607 138 l 607 131 q 648 104 618 131 q 559 41 593 41 q 507 17 559 36 q 486 38 499 17 l 476 35 l 476 38 l 472 48 l 476 58 l 458 58 l 448 66 l 448 62 q 472 7 471 35 l 414 3 l 410 3 q 404 24 404 3 q 393 41 393 24 l 389 41 l 389 21 q 373 18 378 20 l 373 180 q 397 190 376 190 l 448 210 l 452 186 l 452 176 l 458 176 q 483 155 458 167 l 503 155 l 503 169 q 493 176 493 169 l 493 186 l 496 203 l 503 203 q 510 190 510 203 l 514 190 l 517 207 l 479 228 l 472 235 l 472 245 q 486 279 472 258 l 486 321 l 490 324 l 469 376 l 483 369 l 486 372 l 486 382 l 462 382 l 448 397 l 452 400 l 452 404 l 448 404 l 438 400 q 373 422 427 417 l 373 583 q 393 569 393 578 l 397 569 l 397 576 q 389 590 389 576 l 376 593 l 373 591 l 373 604 q 407 607 385 607 q 469 703 469 633 l 472 728 l 465 728 l 465 755 l 458 755 l 462 752 l 462 748 l 458 745 l 455 745 q 373 789 428 783 l 373 889 l 376 886 q 404 893 386 893 q 393 900 404 900 l 376 897 l 373 899 l 373 936 m 438 921 q 427 914 438 914 l 427 907 l 438 907 q 448 914 438 914 l 441 921 l 438 921 m 486 886 l 493 873 l 496 873 l 496 886 l 486 886 m 452 848 l 452 842 l 469 845 l 479 845 l 479 852 l 469 852 l 452 848 m 514 827 l 514 810 l 524 810 l 524 814 q 514 827 519 827 m 462 817 l 462 814 l 472 783 l 476 783 q 496 800 476 797 l 493 810 l 476 810 l 465 817 l 462 817 m 376 810 l 382 804 l 389 804 l 386 814 l 376 810 m 559 804 l 559 800 q 579 776 568 800 l 583 772 l 586 772 l 589 776 l 589 779 q 562 804 582 800 l 559 804 m 642 797 l 642 789 l 659 789 l 659 797 l 642 797 m 479 776 q 490 762 484 762 l 493 766 l 493 776 l 486 776 l 483 779 l 479 776 m 548 766 l 555 755 l 545 724 l 548 724 l 589 734 q 548 766 574 766 m 604 766 l 604 762 l 610 755 l 610 759 l 604 766 m 493 759 l 490 731 l 493 728 l 507 728 l 514 755 l 510 755 l 493 759 m 600 734 l 604 718 l 607 718 l 607 734 l 600 734 m 638 724 l 638 714 l 645 714 l 645 731 l 638 724 m 476 686 l 476 680 l 490 686 l 490 690 l 486 690 l 476 686 m 517 686 l 521 673 l 524 673 q 534 686 529 673 l 517 686 m 559 673 l 562 669 l 562 665 l 559 662 l 559 659 l 566 659 l 572 680 l 559 673 m 642 655 l 642 645 l 634 645 l 634 648 l 642 655 m 648 648 l 652 648 l 669 645 q 655 621 669 627 l 648 621 l 648 624 l 652 627 l 648 631 l 648 648 m 438 617 l 438 610 l 445 604 l 448 604 l 445 617 l 438 617 m 642 621 l 655 610 l 631 583 l 627 583 l 627 593 q 642 621 642 610 m 493 604 l 493 597 l 500 590 l 528 590 l 528 597 l 545 597 l 555 590 l 562 590 q 514 610 562 602 l 507 610 l 493 604 m 472 566 l 472 555 l 479 555 l 486 562 l 472 566 m 386 541 l 379 528 l 393 528 l 400 534 l 400 538 l 386 541 m 500 514 l 503 514 l 510 521 l 507 521 l 500 514 m 465 503 q 479 486 472 488 l 483 486 l 472 511 l 465 503 m 393 486 l 393 479 q 410 469 401 479 l 414 469 q 397 486 412 478 l 393 486 m 551 431 q 569 410 569 431 l 579 410 q 586 428 579 428 l 589 424 l 617 431 l 621 431 q 627 420 627 431 q 648 414 633 414 l 648 407 q 624 366 624 382 l 634 355 l 634 352 q 617 341 626 352 l 604 341 l 604 314 l 579 307 l 572 314 l 566 293 l 569 279 l 559 269 l 569 252 l 569 245 q 541 235 569 238 l 538 238 l 534 235 l 534 231 q 545 217 543 231 l 538 210 q 559 193 559 210 q 589 176 559 185 q 597 193 591 193 l 593 197 l 593 200 l 597 203 l 597 207 l 614 203 l 617 203 l 589 220 l 586 217 l 583 217 l 579 220 l 579 224 l 586 241 l 634 245 l 634 248 l 627 258 l 610 255 l 593 262 l 593 276 l 597 279 l 593 283 l 593 296 l 604 307 l 627 307 l 624 290 l 627 286 l 634 286 l 638 303 l 634 328 l 638 324 l 642 324 l 648 331 l 648 334 l 645 338 l 645 341 q 665 355 665 350 l 655 372 q 669 393 663 393 l 672 390 l 672 393 l 659 414 l 665 424 l 665 431 l 662 428 l 659 428 l 655 431 l 652 428 l 648 428 q 642 438 642 428 l 589 438 q 579 469 583 438 l 600 476 l 604 473 l 614 473 l 614 476 q 586 486 601 476 q 559 455 559 467 l 551 431 m 465 424 l 465 417 l 476 417 l 483 424 l 465 424 m 483 417 l 483 410 l 493 410 l 493 417 l 483 417 m 624 410 l 624 400 l 634 404 l 634 407 l 624 410 m 555 362 l 548 349 l 551 345 l 548 341 l 569 341 l 562 352 l 576 355 l 576 362 l 555 362 m 676 334 l 683 328 l 690 334 l 676 334 m 686 269 l 686 266 l 693 258 l 693 269 l 686 269 m 642 252 l 642 248 l 652 224 l 648 207 l 655 207 q 669 214 655 214 l 669 220 q 659 238 659 220 l 665 248 l 665 252 l 642 252 m 686 231 l 690 228 l 700 228 l 700 238 l 693 238 l 686 231 m 462 231 l 465 231 q 490 200 465 220 q 465 186 486 186 q 448 220 448 206 l 462 231 m 600 169 l 593 155 l 593 152 q 610 162 610 156 l 604 169 l 600 169 m 655 159 l 659 159 l 676 152 l 676 145 l 662 131 l 655 131 l 648 138 l 648 152 l 655 159 m 379 138 l 376 124 q 393 111 393 124 l 397 111 l 397 121 l 393 138 l 379 138 m 562 138 l 562 134 l 569 127 l 572 127 l 572 134 l 569 138 l 562 138 m 404 58 l 404 45 l 417 45 l 417 58 l 404 58 m 339 899 l 336 897 l 319 900 q 309 893 309 900 q 336 886 326 893 l 339 889 l 339 789 q 257 745 284 783 l 254 745 l 250 748 l 250 752 l 254 755 l 247 755 l 247 728 l 240 728 l 243 703 q 305 607 243 633 q 339 604 327 607 l 339 591 l 336 593 l 323 590 q 315 576 323 576 l 315 569 l 319 569 q 339 583 319 578 l 339 422 q 274 400 285 417 l 264 404 l 260 404 l 260 400 l 264 397 l 250 382 l 226 382 l 226 372 l 229 369 l 243 376 l 222 324 l 226 321 l 226 279 q 240 245 240 258 l 240 235 l 233 228 l 195 207 l 198 190 l 202 190 q 209 203 202 203 l 216 203 l 219 186 l 219 176 q 209 169 219 169 l 209 155 l 229 155 q 254 176 254 167 l 260 176 l 260 186 l 264 210 l 315 190 q 339 180 336 190 l 339 18 q 323 21 334 20 l 323 41 l 319 41 q 309 24 319 24 q 302 3 309 3 l 298 3 l 240 7 q 264 62 241 35 l 264 66 l 254 58 l 236 58 l 240 48 l 236 38 l 236 35 l 226 38 q 205 17 213 17 q 153 41 153 36 q 64 104 119 41 q 105 131 94 131 l 105 138 l 98 145 l 81 145 l 71 155 l 71 165 q 95 179 95 170 l 95 186 l 78 193 l 74 193 l 74 190 l 78 186 l 78 183 q 60 172 78 177 l 50 179 l 47 179 l 22 176 l 16 190 l 22 203 q -1 286 4 203 l 2 290 l -1 290 q 12 314 -1 308 q 2 321 12 321 q 19 372 6 372 l 16 376 q 95 473 54 473 q 119 503 95 491 q 136 511 136 503 q 191 538 174 538 l 191 549 l 164 549 q 146 531 164 531 l 115 549 l 123 559 l 123 569 l 112 572 l 115 607 l 92 607 l 105 624 l 102 624 l 85 621 l 81 645 l 81 652 q 109 690 92 680 l 105 693 l 105 696 l 109 700 l 109 707 l 105 711 l 109 714 l 102 714 l 98 700 l 92 700 l 88 703 l 74 690 l 74 686 l 78 683 l 78 676 l 71 669 l 67 669 l 64 673 l 47 673 l 43 652 q 26 714 31 652 q 36 724 26 724 l 36 728 l 26 731 q 40 807 26 774 q 336 972 102 972 l 339 972 l 339 941 l 330 941 l 330 938 l 339 936 l 339 899 m 271 921 l 264 914 q 274 907 274 914 l 285 907 l 285 914 q 274 921 274 914 l 271 921 m 216 886 l 216 873 l 219 873 l 226 886 l 216 886 m 243 852 l 233 852 l 233 845 l 243 845 l 260 842 l 260 848 l 243 852 m 198 827 q 188 814 193 827 l 188 810 l 198 810 l 198 827 m 247 817 l 236 810 l 219 810 l 216 800 q 236 783 236 797 l 240 783 l 250 814 l 250 817 l 247 817 m 326 814 l 323 804 l 330 804 l 336 810 l 326 814 m 150 804 q 123 779 130 800 l 123 776 l 126 772 l 130 772 l 133 776 q 153 800 144 800 l 153 804 l 150 804 m 54 797 l 54 789 l 71 789 l 71 797 l 54 797 m 229 779 l 226 776 l 219 776 l 219 766 l 222 762 q 233 776 228 762 l 229 779 m 164 766 q 123 734 138 766 l 164 724 l 168 724 l 157 755 l 164 766 m 102 759 l 102 755 l 109 762 l 109 766 l 102 759 m 202 755 l 198 755 l 205 728 l 219 728 l 222 731 l 219 759 l 202 755 m 105 734 l 105 718 l 109 718 l 112 734 l 105 734 m 67 731 l 67 714 l 74 714 l 74 724 l 67 731 m 226 690 l 222 690 l 222 686 l 236 680 l 236 686 l 226 690 m 178 686 q 188 673 183 673 l 191 673 l 195 686 l 178 686 m 140 680 l 146 659 l 153 659 l 153 662 l 150 665 l 150 669 l 153 673 l 140 680 m 78 648 l 78 645 l 71 645 l 71 655 l 78 648 m 64 631 l 60 627 l 64 624 l 64 621 l 57 621 q 43 645 43 627 l 60 648 l 64 648 l 64 631 m 267 617 l 264 604 l 267 604 l 274 610 l 274 617 l 267 617 m 71 621 q 85 593 71 610 l 85 583 l 81 583 l 57 610 l 71 621 m 205 610 l 198 610 q 150 590 150 602 l 157 590 l 168 597 l 184 597 l 184 590 l 212 590 l 219 597 l 219 604 l 205 610 m 226 562 l 233 555 l 240 555 l 240 566 l 226 562 m 312 538 l 312 534 l 319 528 l 333 528 l 326 541 l 312 538 m 205 521 l 202 521 l 209 514 l 212 514 l 205 521 m 240 511 l 229 486 l 233 486 q 247 503 240 488 l 240 511 m 315 486 q 298 469 300 478 l 302 469 q 319 479 311 479 l 319 486 l 315 486 m 153 455 q 126 486 153 467 q 98 476 111 476 l 98 473 l 109 473 l 112 476 l 133 469 q 123 438 130 438 l 71 438 q 64 428 71 428 l 60 428 l 57 431 l 54 428 l 50 428 l 47 431 l 47 424 l 54 414 l 40 393 l 40 390 l 43 393 q 57 372 49 393 l 47 355 q 67 341 47 350 l 67 338 l 64 334 l 64 331 l 71 324 l 74 324 l 78 328 l 74 303 l 78 286 l 85 286 l 88 290 l 85 307 l 109 307 l 119 296 l 119 283 l 115 279 l 119 276 l 119 262 l 102 255 l 85 258 l 78 248 l 78 245 l 126 241 l 133 224 l 133 220 l 130 217 l 126 217 l 123 220 l 95 203 l 98 203 l 115 207 l 115 203 l 119 200 l 119 197 l 115 193 q 123 176 121 193 q 153 193 153 185 q 174 210 153 210 l 168 217 q 178 231 169 231 l 178 235 l 174 238 l 171 235 q 143 245 143 238 l 143 252 l 153 269 l 143 279 l 146 293 l 140 314 l 133 307 l 109 314 l 109 341 l 95 341 q 78 352 86 352 l 78 355 l 88 366 q 64 407 88 382 l 64 414 q 85 420 79 414 q 92 431 85 431 l 95 431 l 123 424 l 126 428 q 133 410 133 428 l 143 410 q 161 431 143 431 l 153 455 m 229 424 l 236 417 l 247 417 l 247 424 l 229 424 m 219 417 l 219 410 l 229 410 l 229 417 l 219 417 m 78 407 l 78 404 l 88 400 l 88 410 l 78 407 m 136 362 l 136 355 l 150 352 l 143 341 l 164 341 l 161 345 l 164 349 l 157 362 l 136 362 m 22 334 l 29 328 l 36 334 l 22 334 m 19 269 l 19 258 l 26 266 l 26 269 l 19 269 m 47 252 l 47 248 l 54 238 q 43 220 54 220 l 43 214 q 57 207 57 214 l 64 207 l 60 224 l 71 248 l 71 252 l 47 252 m 19 238 l 12 238 l 12 228 l 22 228 l 26 231 l 19 238 m 264 220 q 247 186 264 206 q 222 200 226 186 q 247 231 247 220 l 250 231 l 264 220 m 109 169 l 102 162 q 119 152 102 156 l 119 155 l 112 169 l 109 169 m 64 152 l 64 138 l 57 131 l 50 131 l 36 145 l 36 152 l 54 159 l 57 159 l 64 152 m 319 138 l 315 121 l 315 111 l 319 111 q 336 124 319 124 l 333 138 l 319 138 m 143 138 l 140 134 l 140 127 l 143 127 l 150 134 l 150 138 l 143 138 m 295 58 l 295 45 l 309 45 l 309 58 l 295 58 z "},"9":{"ha":731,"x_min":-1,"x_max":690,"o":"m 329 337 q 62 444 146 342 l 58 441 l 58 444 l 62 448 q -1 646 -1 543 l -1 659 q 62 853 -1 778 l 68 853 l 68 857 l 65 867 l 90 888 l 93 888 l 93 881 l 100 881 l 103 891 l 100 902 q 331 975 158 964 l 330 805 l 321 805 l 321 802 l 325 791 q 221 652 221 757 l 221 635 q 330 522 242 530 l 329 337 m 72 393 l 65 393 q 55 399 65 399 l 55 410 l 62 410 q 68 399 68 410 l 72 399 l 72 406 l 82 406 l 72 393 m 203 555 l 200 576 l 193 576 l 197 572 l 197 569 l 190 555 l 203 555 m 134 583 l 127 590 l 124 587 l 124 583 l 134 583 m 103 659 l 103 666 l 82 666 l 82 673 l 79 673 l 79 666 l 90 659 l 103 659 m 368 186 q 468 298 448 199 l 468 653 q 368 791 468 756 l 368 975 q 589 903 532 963 l 586 892 l 589 882 l 596 882 l 596 888 l 600 888 l 624 868 l 621 857 l 621 854 l 627 854 q 690 660 690 779 l 690 309 q 627 111 690 206 l 631 108 l 631 104 l 627 108 q 368 1 545 7 l 368 186 m 607 70 l 617 70 l 617 63 l 621 63 q 627 73 621 73 l 634 73 l 634 63 q 624 56 624 63 l 617 56 l 607 70 m 585 365 l 570 387 l 570 392 l 578 397 l 562 397 l 555 365 l 585 365 m 565 247 l 565 250 l 562 254 l 555 247 l 565 247 m 600 660 l 610 667 l 610 674 l 607 674 l 607 667 l 586 667 l 586 660 l 600 660 z "}," ":{"ha":406,"x_min":0,"x_max":0,"o":""},"!":{"ha":271,"x_min":0,"x_max":221,"o":"m 221 179 l 221 170 q 204 155 214 155 l 211 149 l 221 152 l 221 56 l 214 56 q 208 73 214 73 l 186 83 l 186 79 q 208 69 186 74 l 211 52 l 211 48 l 201 38 l 193 38 l 173 56 l 173 52 l 190 31 l 186 21 l 190 21 q 211 35 211 21 l 221 35 l 221 7 l 214 0 l 193 0 l 183 7 l 176 0 l 152 0 q 145 10 145 0 l 124 10 q 117 0 124 0 l 100 0 l 79 17 l 76 17 l 76 0 l 35 0 l 35 10 l 14 10 l 14 7 l 21 7 l 21 0 l 7 0 l 0 7 l 0 10 l 7 21 l 7 38 l 0 38 l 0 69 l 14 90 q 3 100 14 100 l 0 104 l 0 128 l 7 135 l 21 135 l 31 128 l 41 128 l 38 132 l 21 138 l 14 159 l 7 159 l 7 142 l 0 142 l 0 179 l 221 179 m 69 964 l 62 954 l 66 954 l 76 958 l 69 964 m 107 933 l 107 926 l 111 923 l 117 923 l 117 926 l 111 933 l 107 933 m 107 878 l 107 875 l 149 858 l 152 854 l 155 854 l 152 871 l 152 878 l 159 889 l 132 889 l 107 878 m 159 854 l 166 847 l 173 847 l 173 854 l 159 854 m 17 847 l 17 840 l 24 833 l 28 837 l 28 840 l 21 847 l 17 847 m 193 576 l 193 545 l 201 545 l 204 555 l 197 576 l 193 576 m 208 494 l 201 477 l 201 473 l 214 477 l 211 494 l 208 494 m 28 473 l 28 456 l 35 456 l 35 473 l 28 473 m 132 456 l 138 449 q 173 470 169 459 l 170 473 q 132 456 153 456 m 69 456 l 69 449 l 76 442 l 76 456 l 69 456 m 7 442 l 24 429 l 35 429 q 7 442 35 437 m 90 435 l 90 422 l 100 422 l 100 425 l 97 435 l 90 435 m 221 439 l 221 404 l 214 404 l 214 411 l 211 435 l 214 439 l 221 439 m 104 387 l 104 384 l 138 360 l 138 374 q 121 404 121 385 q 111 387 115 404 l 104 387 m 17 384 l 17 380 q 38 367 28 380 l 41 367 l 52 377 l 41 394 l 38 394 q 17 384 26 384 m 76 394 l 73 374 l 83 363 l 83 357 l 66 353 l 56 353 l 48 336 l 48 332 l 56 326 l 59 326 l 76 329 l 79 312 l 83 312 l 83 332 q 90 346 90 332 l 94 350 l 97 350 l 111 346 l 111 350 q 90 363 111 357 l 86 380 l 86 384 l 94 384 l 94 387 q 83 394 83 387 l 76 394 m 193 374 l 193 367 l 214 367 l 214 377 l 193 374 m 155 329 l 145 332 l 145 319 l 155 319 q 180 339 155 332 l 180 346 l 176 346 l 155 329 m 3 336 q 21 315 21 334 q 7 298 7 308 l 0 298 l 0 329 l 3 332 l 3 336 m 170 304 l 170 298 q 183 308 183 303 l 170 304 m 94 291 l 104 291 l 107 294 l 111 294 l 107 304 l 94 291 m 128 291 l 128 288 q 152 271 128 282 l 152 277 q 142 288 142 277 l 138 291 l 128 291 m 83 260 l 83 257 q 97 243 97 257 l 104 243 q 121 271 104 259 q 83 260 83 267 m 149 260 l 149 257 l 163 257 l 159 260 l 159 264 l 149 260 m 35 260 q 28 247 35 247 l 17 250 l 14 247 l 14 236 q 24 226 24 236 l 28 226 q 45 243 28 243 l 56 243 q 35 260 49 256 m 186 223 l 186 236 q 161 223 168 230 l 70 223 l 76 229 l 69 229 l 63 223 l 0 223 l 0 277 l 7 284 l 10 284 l 31 277 l 31 274 l 48 277 l 76 277 q 62 284 76 284 l 62 291 l 38 291 l 31 298 l 35 312 q 21 350 21 312 l 17 346 l 7 346 l 0 353 l 0 380 l 10 380 l 7 384 l 7 387 l 10 397 l 0 414 l 0 968 l 7 975 l 214 975 l 221 968 l 221 889 l 214 882 l 208 882 q 190 903 208 890 l 190 909 l 186 909 l 183 906 l 180 906 l 201 875 l 183 861 l 186 861 l 218 878 l 221 875 l 221 446 l 204 446 l 186 456 q 173 442 186 442 q 166 422 173 422 l 149 422 l 138 429 l 132 418 l 135 414 l 155 414 l 155 408 q 183 391 172 408 l 190 401 q 180 408 180 401 l 180 429 l 201 429 l 208 422 l 208 404 q 197 397 197 404 q 221 380 211 397 l 221 339 l 197 312 l 214 312 l 214 326 l 221 326 l 221 223 l 186 223 m 83 176 l 83 170 q 73 163 73 170 l 83 163 l 86 173 l 86 176 l 83 176 m 48 155 l 59 155 l 66 163 l 56 163 l 48 155 m 86 90 l 86 86 l 94 86 q 104 94 94 94 l 104 100 l 86 90 m 124 100 l 124 97 l 132 86 l 132 79 q 117 69 132 69 l 117 66 l 135 66 l 138 83 q 124 100 132 99 m 59 86 l 59 79 l 62 79 l 69 86 l 59 86 m 79 52 l 86 45 l 97 45 l 97 52 l 79 52 m 48 31 l 56 21 l 66 24 l 62 38 l 48 31 m 155 31 l 155 24 l 166 24 l 166 31 l 155 31 z "},"\"":{"ha":531,"x_min":-2,"x_max":477,"o":"m 216 971 q 178 940 216 949 l 174 943 l 174 937 l 178 933 l 174 930 l 174 926 l 186 916 l 208 933 l 216 933 l 216 930 l 212 926 l 212 922 l 216 919 l 212 902 l 212 874 l 216 857 l 212 857 l 216 854 l 216 843 l 212 833 l 216 816 l 216 757 l 208 730 l 216 722 l 216 719 l 212 715 l 216 712 l 216 574 l 208 568 l 204 568 l 204 571 l 208 588 l 204 591 l 200 591 l 191 564 l 204 560 l 204 553 l 128 553 q 150 591 132 578 l 150 612 l 158 612 l 158 633 q 174 647 174 633 l 170 647 q 132 629 132 639 q 120 619 132 619 l 116 616 l 116 612 q 132 602 132 612 l 140 591 l 124 571 l 124 564 l 128 560 l 128 557 l 99 553 l 44 553 l 40 557 l 36 553 l 32 553 l 3 557 l 7 581 l -2 588 l -2 595 l 3 595 l -2 619 l -2 661 l 3 664 l -2 667 l -2 692 l 3 695 l -2 699 l -2 719 l 3 733 l -2 747 l -2 771 l 7 778 l -2 805 l -2 895 q 24 909 -2 902 l 24 912 l 11 919 l 16 930 l 11 930 q -2 947 -2 930 l -2 967 l 7 967 l 7 950 l 11 950 l 16 954 l 28 950 l 28 947 l 24 943 l 24 940 l 28 937 l 48 937 q 57 947 57 937 l 53 950 l 53 954 l 57 964 l 53 960 l 48 964 l 44 964 l 32 960 l 11 967 l 11 975 l 62 975 l 66 971 l 70 975 l 158 975 l 158 971 q 124 960 158 964 l 124 957 q 158 950 150 957 l 162 950 l 186 971 l 200 971 l 204 967 l 208 971 l 216 971 m 200 861 l 195 861 l 200 850 l 208 850 l 208 854 l 200 861 m 204 846 l 195 846 l 195 843 l 200 833 l 208 833 l 208 836 l 204 846 m 191 709 q 174 684 191 699 q 186 674 186 684 q 166 650 180 674 l 174 650 q 200 681 174 667 l 200 702 l 191 709 m 174 850 l 162 850 l 162 843 l 166 843 l 174 850 m 166 916 q 132 899 143 916 l 162 881 l 166 881 l 166 884 q 158 899 158 884 l 150 899 l 150 902 l 158 902 l 166 909 l 166 916 m 150 750 l 140 750 l 140 733 l 150 733 l 144 736 l 144 740 l 150 750 m 140 861 l 136 861 l 124 857 l 124 854 l 132 846 l 140 861 m 132 681 l 116 677 l 116 671 l 124 664 l 132 671 l 132 681 m 124 933 l 116 933 l 116 926 q 108 916 108 926 l 78 916 l 78 909 l 99 905 q 124 933 124 925 m 108 677 l 90 677 l 90 674 l 108 674 l 108 677 m 99 612 l 78 609 l 90 598 l 99 606 l 99 612 m 90 874 l 78 867 l 70 884 q 57 871 63 884 q 70 854 64 871 l 66 850 l 82 854 l 78 857 l 78 864 l 90 864 l 90 874 m 82 730 l 66 730 l 62 719 l 86 712 l 82 730 m 66 937 l 62 937 l 62 933 l 66 916 l 74 916 l 74 919 l 66 937 m 70 688 l 62 688 l 32 677 l 32 674 l 57 674 q 70 681 57 681 l 70 688 m 28 778 l 16 778 l 16 774 l 20 764 l 24 764 l 28 778 m 28 681 q 16 688 16 681 l 7 688 l 16 674 l 28 674 l 28 681 m 477 971 q 439 940 477 949 l 435 943 l 435 937 l 439 933 l 435 930 l 435 926 l 447 916 l 469 933 l 477 933 l 477 930 l 473 926 l 473 922 l 477 919 l 473 902 l 473 874 l 477 857 l 473 857 l 477 854 l 477 843 l 473 833 l 477 816 l 477 757 l 469 730 l 477 722 l 477 719 l 473 715 l 477 712 l 477 574 l 469 568 l 465 568 l 465 571 l 469 588 l 465 591 l 460 591 l 451 564 l 465 560 l 465 553 l 389 553 q 410 591 393 578 l 410 612 l 418 612 l 418 633 q 435 647 435 633 l 431 647 q 393 629 393 639 q 380 619 393 619 l 376 616 l 376 612 q 393 602 393 612 l 401 591 l 385 571 l 385 564 l 389 560 l 389 557 l 359 553 l 304 553 l 300 557 l 296 553 l 292 553 l 263 557 l 267 581 l 258 588 l 258 595 l 263 595 l 258 619 l 258 661 l 263 664 l 258 667 l 258 692 l 263 695 l 258 699 l 258 719 l 263 733 l 258 747 l 258 771 l 267 778 l 258 805 l 258 895 q 284 909 258 902 l 284 912 l 271 919 l 276 930 l 271 930 q 258 947 258 930 l 258 967 l 267 967 l 267 950 l 271 950 l 276 954 l 288 950 l 288 947 l 284 943 l 284 940 l 288 937 l 309 937 q 317 947 317 937 l 313 950 l 313 954 l 317 964 l 313 960 l 309 964 l 304 964 l 292 960 l 271 967 l 271 975 l 322 975 l 326 971 l 330 975 l 418 975 l 418 971 q 385 960 418 964 l 385 957 q 418 950 410 957 l 422 950 l 447 971 l 460 971 l 465 967 l 469 971 l 477 971 m 460 861 l 455 861 l 460 850 l 469 850 l 469 854 l 460 861 m 465 846 l 455 846 l 455 843 l 460 833 l 469 833 l 469 836 l 465 846 m 451 709 q 435 684 451 699 q 447 674 447 684 q 427 650 441 674 l 435 650 q 460 681 435 667 l 460 702 l 451 709 m 435 850 l 422 850 l 422 843 l 427 843 l 435 850 m 427 916 q 393 899 404 916 l 422 881 l 427 881 l 427 884 q 418 899 418 884 l 410 899 l 410 902 l 418 902 l 427 909 l 427 916 m 410 750 l 401 750 l 401 733 l 410 733 l 405 736 l 405 740 l 410 750 m 401 861 l 397 861 l 385 857 l 385 854 l 393 846 l 401 861 m 393 681 l 376 677 l 376 671 l 385 664 l 393 671 l 393 681 m 385 933 l 376 933 l 376 926 q 368 916 368 926 l 338 916 l 338 909 l 359 905 q 385 933 385 925 m 368 677 l 351 677 l 351 674 l 368 674 l 368 677 m 359 612 l 338 609 l 351 598 l 359 606 l 359 612 m 351 874 l 338 867 l 330 884 q 317 871 323 884 q 330 854 324 871 l 326 850 l 342 854 l 338 857 l 338 864 l 351 864 l 351 874 m 342 730 l 326 730 l 322 719 l 347 712 l 342 730 m 326 937 l 322 937 l 322 933 l 326 916 l 334 916 l 334 919 l 326 937 m 330 688 l 322 688 l 292 677 l 292 674 l 317 674 q 330 681 317 681 l 330 688 m 288 778 l 276 778 l 276 774 l 280 764 l 284 764 l 288 778 m 288 681 q 276 688 276 681 l 267 688 l 276 674 l 288 674 l 288 681 z "},"#":{"ha":975,"x_min":-5,"x_max":947,"o":"m 178 269 l 171 259 l 174 259 l 184 262 l 178 269 m 433 330 l 408 330 l 400 323 l 400 319 l 421 323 l 433 323 l 433 330 m 441 378 l 425 398 l 417 398 l 413 395 l 417 385 q 433 378 433 385 l 437 374 l 441 371 l 441 378 m 445 343 l 437 350 l 433 350 l 433 343 l 437 340 l 445 340 l 445 343 m 489 412 l 485 416 l 461 412 l 461 409 l 481 406 l 489 406 l 489 412 m 497 298 l 493 298 q 481 292 493 292 l 481 288 l 493 288 l 497 292 l 497 298 m 438 444 l 429 437 l 438 431 l 438 444 m 526 305 l 513 309 l 505 302 l 526 302 l 526 305 m 462 420 l 458 423 l 454 423 l 458 413 l 462 413 l 462 420 m 462 378 l 446 378 l 446 372 l 454 372 l 462 378 m 532 393 l 536 396 l 536 401 l 532 404 l 528 400 q 532 393 531 398 m 543 343 l 536 334 l 543 324 l 543 343 m 543 353 l 541 351 l 543 348 l 543 353 m 311 402 l 311 395 l 315 393 q 316 398 315 396 l 311 402 m 303 347 l 306 350 l 303 353 l 303 347 m 304 325 l 311 333 l 303 342 l 303 325 l 304 325 m 486 438 l 488 440 l 488 441 q 486 438 486 439 m 361 437 q 360 440 361 439 l 359 439 l 361 437 m 587 345 q 608 357 608 352 l 597 357 l 597 360 l 585 357 l 585 355 l 588 353 l 588 350 l 587 349 l 587 345 m 251 361 q 262 378 252 378 l 255 385 l 247 385 l 247 364 l 251 361 m 251 361 l 251 357 l 238 357 q 262 344 238 352 l 262 347 l 258 351 l 258 354 l 262 357 l 251 361 m 201 427 l 203 427 l 203 440 l 194 433 l 194 427 l 195 427 l 195 433 l 201 433 l 201 427 m 255 437 l 251 440 l 242 440 l 242 437 l 251 435 l 255 437 m 267 420 l 262 420 l 271 412 l 273 414 l 267 419 l 267 420 m 494 323 l 500 323 l 498 330 l 493 324 l 494 323 m 519 373 l 513 372 l 512 367 l 512 363 l 516 363 l 519 373 m 328 372 l 331 364 l 334 364 l 334 368 l 333 372 l 328 372 m 429 350 l 424 353 l 418 350 q 423 337 423 347 q 429 350 423 348 m 651 434 l 645 439 l 645 426 l 648 426 q 651 434 649 431 m 597 439 l 593 436 l 593 433 l 604 436 l 604 439 l 597 439 m 568 419 l 576 412 l 584 419 l 568 419 m 701 370 l 684 374 l 656 363 l 649 363 l 636 378 l 641 360 q 624 343 641 343 l 624 340 l 628 336 l 665 363 l 680 363 l 689 357 l 713 374 l 713 378 l 701 370 m 595 367 q 597 360 596 364 l 600 363 l 600 385 l 593 385 l 584 378 l 587 378 l 594 381 l 597 368 l 595 367 m 597 272 l 602 272 l 606 275 l 609 275 l 606 285 l 597 277 q 597 272 597 275 m 668 285 l 668 279 q 682 288 682 283 l 668 285 m 654 309 l 644 312 l 644 299 l 654 299 q 678 319 654 312 l 678 325 l 675 325 l 654 309 m 581 312 q 588 325 588 312 l 592 329 l 595 329 l 609 325 l 609 329 q 588 342 609 336 l 587 345 q 584 343 586 344 l 584 347 l 587 349 l 585 355 l 584 357 l 585 357 l 585 359 l 585 363 l 592 363 l 592 366 l 587 364 l 585 367 q 581 372 581 369 l 574 372 l 571 352 l 581 342 l 581 336 l 564 332 l 554 332 l 547 315 l 547 312 l 554 305 l 557 305 l 574 309 l 567 315 l 581 315 l 581 312 m 574 308 l 578 293 q 581 297 579 295 l 581 308 l 574 308 m 648 426 q 646 422 647 425 l 640 422 l 640 419 l 674 395 l 674 408 q 656 439 656 420 q 651 434 654 439 l 652 433 l 652 426 l 648 426 m 588 412 l 588 399 l 599 399 l 599 403 l 595 412 l 588 412 m 568 433 l 568 426 l 574 419 l 574 433 l 568 433 m 219 272 l 229 272 l 233 275 l 236 275 l 233 285 l 219 272 m 295 285 l 295 279 q 309 288 309 283 l 295 285 m 303 325 l 302 325 l 281 309 l 271 312 l 271 299 l 281 299 q 305 319 281 312 l 305 325 l 304 325 l 303 323 l 303 325 m 273 414 l 301 395 l 301 408 q 283 439 283 420 q 273 422 278 439 l 267 422 l 267 420 l 279 420 l 273 414 m 215 412 l 215 399 l 226 399 l 226 403 l 222 412 l 215 412 m 195 427 l 195 426 l 201 419 l 201 427 l 195 427 m 534 596 l 510 596 l 502 589 l 502 585 l 523 589 l 534 589 l 534 596 m 543 644 l 526 665 l 519 665 l 515 661 l 519 651 q 534 644 534 651 l 538 641 l 543 637 l 543 644 m 547 610 l 538 616 l 534 616 l 534 610 l 538 606 l 547 606 l 547 610 m 591 679 l 587 682 l 563 679 l 563 675 l 583 672 l 591 672 l 591 679 m 599 565 l 595 565 q 583 558 595 558 l 583 555 l 595 555 l 599 558 l 599 565 m 540 711 l 531 704 l 540 697 l 540 711 m 627 572 l 615 575 l 606 568 l 627 568 l 627 572 m 564 686 l 559 690 l 556 690 l 559 680 l 564 680 l 564 686 m 564 645 l 548 645 l 548 638 l 556 638 l 564 645 m 633 660 l 637 663 l 637 668 l 634 671 l 630 667 q 633 660 633 665 m 645 610 l 638 600 l 645 591 l 645 610 m 645 620 l 642 617 l 645 614 l 645 620 m 419 667 l 415 671 l 412 669 l 412 662 l 416 659 q 419 667 416 664 m 405 614 l 408 616 l 405 619 l 405 614 m 406 591 l 412 600 l 405 609 l 405 591 l 406 591 m 587 705 l 590 707 l 589 707 q 587 705 588 706 m 463 704 q 462 707 463 705 l 461 706 l 463 704 m 689 611 q 710 623 710 618 l 699 623 l 699 627 l 687 623 l 687 622 l 690 620 l 690 616 l 688 615 l 689 611 m 353 627 q 364 645 354 645 l 357 652 l 349 652 l 349 631 l 353 627 m 353 627 l 353 624 l 340 624 q 364 610 340 618 l 364 614 l 360 617 l 360 621 l 364 624 l 353 627 m 303 693 l 304 693 l 304 707 l 296 700 l 296 693 l 296 693 l 296 699 l 303 699 l 303 693 m 344 707 l 344 703 l 357 700 l 357 703 l 353 707 l 344 707 m 368 686 l 364 686 l 372 679 l 375 681 l 368 686 l 368 686 m 596 589 l 602 589 l 600 597 l 595 591 l 596 589 m 621 640 l 615 639 l 614 633 l 614 630 l 618 630 l 621 640 m 429 639 l 433 631 l 436 631 l 436 634 l 435 638 l 429 639 m 531 616 l 526 619 l 520 616 q 525 604 525 614 q 531 616 525 614 m 753 701 l 747 706 l 747 692 l 749 692 q 753 701 751 698 m 699 706 l 694 703 l 694 699 l 706 703 l 706 706 l 699 706 m 670 686 l 677 678 l 686 686 l 670 686 m 803 637 l 786 641 l 758 630 l 751 630 l 738 644 l 743 627 q 726 610 743 610 l 726 606 l 730 603 l 766 630 l 782 630 l 791 623 l 814 641 l 814 644 l 803 637 m 699 627 l 702 630 l 702 651 l 694 651 l 686 644 q 699 627 696 644 m 653 473 l 653 467 l 664 467 l 664 473 l 653 473 m 592 366 l 595 367 q 587 378 593 376 l 580 374 l 585 367 q 592 366 588 366 l 592 366 m 611 394 l 618 387 l 629 387 l 629 394 l 611 394 m 591 427 l 591 421 l 594 421 l 601 427 l 591 427 m 622 540 l 622 536 l 629 526 l 629 519 q 615 509 629 509 l 615 507 l 633 507 l 636 523 q 622 540 629 538 m 618 431 l 618 427 l 625 427 q 635 435 625 435 l 635 441 l 618 431 m 789 758 l 800 758 l 807 766 l 797 766 l 789 758 m 824 779 l 824 772 q 814 766 814 772 l 824 766 l 827 776 l 827 779 l 824 779 m 745 745 l 741 730 l 751 730 l 755 745 l 745 745 m 804 819 l 810 819 l 817 825 l 810 825 l 804 819 m 699 741 l 699 737 l 703 737 q 730 753 704 753 l 730 768 q 699 741 699 757 m 845 896 q 838 882 845 882 l 827 886 l 824 882 l 824 872 q 835 862 835 872 l 838 862 q 855 880 838 880 l 866 880 q 845 896 859 891 m 749 508 l 749 505 l 763 505 l 759 508 l 759 511 l 749 508 m 683 508 l 683 505 q 697 492 697 505 l 704 492 q 721 518 704 507 q 683 508 683 515 m 728 538 l 728 535 q 752 518 728 530 l 752 526 q 742 535 742 526 l 739 538 l 728 538 m 699 538 l 704 538 l 707 542 l 711 542 l 707 551 l 699 544 q 699 538 699 541 m 770 551 l 770 545 q 783 555 783 550 l 770 551 m 755 575 l 745 578 l 745 566 l 755 566 q 780 585 755 578 l 780 591 l 777 591 l 755 575 m 683 564 l 683 578 q 690 591 690 578 l 694 595 l 697 595 l 711 591 l 711 595 q 690 609 711 602 l 689 611 q 686 610 688 610 l 686 613 l 688 615 l 687 622 l 686 623 l 687 623 l 686 625 l 686 629 l 694 629 l 694 633 q 683 639 683 633 l 676 639 l 673 618 l 683 609 l 683 602 l 666 599 l 656 599 l 648 582 l 648 578 l 656 572 l 659 572 l 676 575 l 680 559 q 683 564 681 562 m 751 913 l 751 909 q 772 897 762 909 l 775 897 l 785 906 l 775 923 l 772 923 q 751 913 760 913 m 749 692 q 748 689 749 691 l 741 689 l 741 686 l 776 662 l 776 675 q 758 705 758 687 q 753 701 755 705 l 754 699 l 754 692 l 749 692 m 690 679 l 690 666 l 701 666 l 701 669 l 697 679 l 690 679 m 669 699 l 669 692 l 676 686 l 676 699 l 669 699 m 765 788 l 772 781 q 806 801 802 791 l 803 804 q 765 788 786 788 m 682 411 l 682 404 l 689 398 l 692 401 l 692 404 l 686 411 l 682 411 m 574 309 l 574 308 l 574 309 l 574 309 m 482 64 l 482 61 l 524 45 l 527 41 l 530 41 l 527 58 l 527 64 l 534 75 l 507 75 l 482 64 m 530 199 l 530 193 l 534 189 l 541 189 l 541 193 l 534 199 l 530 199 m 551 269 l 544 259 l 547 259 l 557 262 l 551 269 m 280 473 l 280 467 l 291 467 l 291 473 l 280 473 m 238 394 l 245 387 l 256 387 l 256 394 l 238 394 m 218 427 l 218 421 l 221 421 l 228 427 l 218 427 m 249 538 l 249 536 l 256 526 l 256 519 q 242 509 256 509 l 242 507 l 260 507 l 263 523 q 253 538 258 534 l 249 538 m 251 435 l 245 431 l 245 427 l 252 427 q 262 435 252 435 l 262 441 l 255 437 l 255 433 l 251 435 m 416 758 l 427 758 l 434 766 l 424 766 l 416 758 m 451 779 l 451 772 q 441 766 441 772 l 451 766 l 454 776 l 454 779 l 451 779 m 372 745 l 368 730 l 378 730 l 382 745 l 372 745 m 431 819 l 437 819 l 444 825 l 437 825 l 431 819 m 326 741 l 326 737 l 330 737 q 357 753 331 753 l 357 768 q 326 741 326 757 m 472 896 q 465 882 472 882 l 454 886 l 451 882 l 451 872 q 462 862 462 872 l 465 862 q 482 880 465 880 l 493 880 q 472 896 486 891 m 376 508 l 376 505 l 390 505 l 386 508 l 386 511 l 376 508 m 310 508 l 310 505 q 324 492 324 505 l 331 492 q 348 518 331 507 q 310 508 310 515 m 355 538 l 355 535 q 379 518 355 530 l 379 526 q 369 535 369 526 l 366 538 l 362 538 l 360 538 l 355 538 m 321 538 l 331 538 l 334 542 l 338 542 l 334 551 l 321 538 m 397 551 l 397 545 q 410 555 410 550 l 397 551 m 405 591 l 404 591 l 382 575 l 372 578 l 372 566 l 382 566 q 407 585 382 578 l 407 591 l 406 591 l 405 589 l 405 591 m 378 913 l 378 909 q 399 897 389 909 l 402 897 l 412 906 l 402 923 l 399 923 q 378 913 387 913 m 375 681 l 403 662 l 403 675 q 385 705 385 687 q 375 689 380 705 l 368 689 l 368 686 l 380 686 l 375 681 m 317 679 l 317 666 l 328 666 l 328 669 l 324 679 l 317 679 m 296 693 l 296 692 l 303 686 l 303 693 l 296 693 m 392 788 l 399 781 q 433 801 429 791 l 430 804 q 392 788 413 788 m 316 398 l 319 401 l 319 404 l 313 411 l 309 411 l 309 404 l 311 402 l 313 404 l 317 400 q 316 398 317 399 m 109 64 l 109 61 l 151 45 l 154 41 l 157 41 l 154 58 l 154 64 l 161 75 l 134 75 l 109 64 m 157 199 l 157 193 l 161 189 l 168 189 l 168 193 l 161 199 l 157 199 m 208 308 l 208 315 l 194 315 l 201 309 l 201 309 l 201 308 l 208 308 m 469 312 l 481 323 l 465 323 l 461 309 l 469 309 l 469 312 m 347 378 l 350 378 l 348 380 l 347 378 m 503 385 l 496 378 l 496 378 l 505 376 l 508 378 l 508 381 l 503 385 m 136 376 l 134 378 l 134 375 l 136 374 l 136 376 m 349 330 l 347 323 l 351 323 l 353 324 l 349 330 m 571 578 l 583 589 l 567 589 l 563 575 l 571 575 l 571 578 m 448 644 l 452 645 l 448 648 l 448 644 m 605 651 l 597 645 l 597 644 l 606 642 l 610 645 l 610 648 l 605 651 m 237 644 l 235 645 l 235 642 l 236 641 l 237 644 m 450 596 l 449 589 l 453 589 l 454 591 l 450 596 m 207 374 l 209 372 l 210 376 l 207 374 m 198 352 l 218 337 l 222 340 q 215 342 219 341 l 214 345 q 206 361 206 349 l 208 371 l 208 372 l 205 372 l 201 366 l 198 352 m 219 366 q 212 367 215 366 l 214 364 l 219 366 l 219 366 m 323 606 q 317 609 321 608 l 316 612 q 308 627 308 615 l 310 637 l 310 639 l 307 639 l 302 633 l 300 618 l 320 604 l 323 606 m 208 312 q 215 325 215 312 l 219 329 l 222 329 l 236 325 l 236 329 q 222 340 236 334 l 222 340 l 222 344 q 214 345 218 344 l 212 359 l 212 363 l 219 363 l 219 366 l 224 368 l 221 381 l 210 376 l 210 378 l 207 374 l 205 372 l 201 372 l 201 366 l 199 364 l 190 364 l 162 375 l 146 371 l 136 376 l 236 641 l 260 624 l 268 631 l 283 631 l 300 618 l 310 609 l 310 602 l 293 599 l 283 599 l 275 582 l 275 578 l 283 572 l 286 572 l 303 575 l 307 559 l 310 559 l 310 578 q 317 591 317 578 l 321 595 l 324 595 l 338 591 l 338 595 q 323 606 338 601 l 324 607 l 324 610 q 316 612 319 610 l 313 625 l 313 629 l 321 629 l 321 633 q 310 637 311 633 l 312 645 l 307 639 l 303 639 l 302 633 l 300 631 l 292 631 l 264 642 l 248 637 l 237 644 l 361 975 l 572 975 l 448 648 l 444 651 l 441 648 l 440 648 l 440 644 l 442 643 l 448 644 l 348 380 l 342 385 l 339 382 l 338 382 l 338 378 l 340 376 l 347 378 l 205 0 l -5 0 l 136 374 l 158 357 l 166 364 l 182 364 l 198 352 l 208 342 l 208 336 l 191 332 l 181 332 l 174 315 l 174 312 l 181 305 l 184 305 l 201 309 l 201 308 l 205 292 l 208 292 l 208 312 m 374 348 l 373 348 l 374 349 l 374 348 m 386 383 l 390 386 l 387 385 l 397 416 l 398 416 l 398 418 l 411 454 l 423 454 q 431 454 427 454 l 484 454 l 484 454 l 507 454 l 475 365 l 462 367 l 450 367 q 441 357 450 357 l 441 350 l 466 363 q 473 360 469 361 l 454 308 l 452 309 l 448 309 l 448 305 l 452 304 l 447 288 l 429 288 l 413 302 l 396 295 l 369 309 l 365 309 q 389 281 370 292 l 444 281 l 441 271 l 346 271 l 370 336 l 386 320 l 390 320 l 381 330 l 386 345 l 378 360 l 374 368 l 374 375 l 386 383 m 745 319 l 741 315 l 753 315 l 753 292 l 745 284 q 731 286 736 284 l 745 330 l 745 319 m 765 370 l 765 367 l 761 363 l 765 360 l 765 357 q 753 354 760 357 l 761 376 l 765 370 m 793 446 l 793 436 l 789 436 l 785 433 l 789 429 q 806 416 789 416 q 813 426 806 426 l 821 391 l 806 391 l 806 385 q 821 374 821 385 l 846 357 l 846 329 l 834 329 l 834 315 l 842 305 l 842 284 l 838 281 q 821 271 821 281 l 769 271 l 761 277 l 761 281 l 777 281 l 777 315 q 793 326 793 315 l 782 326 l 782 333 q 802 343 802 335 l 802 350 q 789 374 789 363 l 793 391 l 777 398 q 766 391 770 395 l 786 453 l 793 446 m 25 271 q 9 281 25 281 l 5 285 l 5 306 l 14 316 l 14 330 l 1 330 l 1 357 l 25 375 q 41 385 25 385 l 41 392 l 25 392 l 33 427 q 41 416 41 427 q 58 430 58 416 l 62 433 l 58 437 l 53 437 l 53 447 l 62 454 l 85 454 l 102 444 q 110 454 102 454 l 130 454 l 94 355 q 81 357 87 357 l 81 361 l 85 364 l 81 368 l 81 371 l 90 382 q 70 399 87 391 l 53 392 l 58 375 q 45 351 58 363 l 45 344 q 66 334 45 336 l 66 326 l 53 326 q 70 316 53 316 l 70 281 l 85 281 l 85 278 l 77 271 l 25 271 m 846 395 l 830 395 l 830 408 l 838 416 l 846 416 l 846 395 m 726 272 l 725 271 l 689 271 l 689 274 l 705 288 l 717 288 l 729 279 l 732 277 l 726 272 m 1 416 l 9 416 l 18 409 l 18 395 l 1 395 l 1 416 m 475 614 l 475 614 l 475 615 l 475 614 m 488 650 l 492 652 l 488 652 l 499 683 l 500 683 l 500 684 l 513 721 l 525 721 q 532 720 528 721 l 586 720 l 586 721 l 609 721 l 576 631 l 564 633 l 551 633 q 543 623 551 623 l 543 616 l 568 630 q 574 627 570 628 l 556 574 l 554 575 l 550 575 l 550 572 l 554 570 l 549 555 l 530 555 l 515 568 l 498 562 l 471 575 l 467 575 q 490 548 471 559 l 546 548 l 543 537 l 448 537 l 471 603 l 488 587 l 492 587 l 483 597 l 488 611 l 479 627 l 475 635 l 475 642 l 488 650 m 847 585 l 843 582 l 855 582 l 855 558 l 847 551 q 833 553 838 551 l 847 596 l 847 585 m 867 637 l 867 633 l 863 630 l 867 627 l 867 623 q 855 621 861 623 l 863 643 l 867 637 m 895 713 l 895 703 l 891 703 l 887 699 l 891 696 q 907 682 891 682 q 915 692 907 692 l 923 658 l 907 658 l 907 651 q 923 641 923 651 l 947 623 l 947 595 l 936 595 l 936 582 l 943 572 l 943 551 l 939 547 q 923 537 923 547 l 871 537 l 863 544 l 863 547 l 879 547 l 879 582 q 895 592 895 582 l 884 592 l 884 600 q 903 610 903 602 l 903 616 q 891 641 891 629 l 895 658 l 879 665 q 867 658 872 661 l 888 720 l 895 713 m 127 538 q 111 548 127 548 l 106 551 l 106 572 l 115 583 l 115 596 l 102 596 l 102 624 l 127 642 q 143 652 127 652 l 143 659 l 127 659 l 135 693 q 143 683 143 693 q 159 696 159 683 l 163 700 l 159 703 l 155 703 l 155 713 l 163 721 l 187 721 l 203 710 q 212 721 203 721 l 232 721 l 195 621 q 183 624 189 624 l 183 627 l 187 631 l 183 634 l 183 637 l 191 648 q 172 665 189 657 l 155 659 l 159 642 q 146 617 159 630 l 146 610 q 168 600 146 602 l 168 593 l 155 593 q 172 583 155 583 l 172 548 l 187 548 l 187 545 l 179 538 l 127 538 m 947 661 l 932 661 l 932 675 l 939 682 l 947 682 l 947 661 m 828 538 l 827 537 l 791 537 l 791 541 l 806 554 l 819 554 l 831 546 l 834 544 l 828 538 m 102 683 l 111 683 l 119 675 l 119 662 l 102 662 l 102 683 m 578 0 l 368 0 l 734 975 l 945 975 l 578 0 m 212 367 q 208 371 209 368 l 209 372 l 212 367 z "},"$":{"ha":823,"x_min":0,"x_max":789,"o":"m 385 972 l 388 969 l 388 808 q 309 795 388 801 q 332 812 312 807 l 345 808 l 351 808 l 351 814 l 315 814 l 315 808 l 292 808 l 296 792 q 246 736 246 757 l 243 720 l 243 700 q 411 604 243 633 l 414 602 l 411 598 l 411 591 l 424 602 q 667 526 594 565 l 726 476 l 726 473 l 716 473 l 716 479 q 703 493 703 479 l 690 493 l 713 473 l 716 454 l 709 454 l 709 447 l 713 447 l 723 450 l 713 427 l 743 427 q 752 417 743 417 q 766 391 752 408 q 782 361 782 385 l 772 355 l 739 355 q 723 342 739 349 l 700 342 l 700 335 q 723 328 715 335 q 736 335 723 335 l 746 345 q 755 328 750 328 l 759 332 l 762 328 q 782 351 763 351 l 785 349 l 785 326 l 782 322 q 762 315 782 315 q 755 299 762 299 q 743 283 743 299 l 716 283 l 716 279 l 720 263 l 723 263 l 723 269 l 720 273 l 746 283 l 762 283 l 762 276 l 769 276 l 782 283 l 782 302 l 789 302 q 775 207 785 243 l 772 210 l 766 210 l 766 207 l 772 207 q 752 168 768 168 l 743 171 l 743 164 l 755 161 q 730 121 748 141 l 726 125 l 723 125 q 703 92 723 104 l 700 95 l 696 95 l 703 118 l 667 148 l 673 148 l 673 151 l 667 158 l 650 155 l 650 184 q 664 194 650 192 l 664 197 q 637 207 664 205 l 644 197 l 644 174 l 641 174 l 631 178 l 637 168 l 637 161 l 624 148 l 621 151 l 618 148 l 611 148 l 608 151 l 604 151 q 624 174 604 174 l 624 178 l 604 191 l 585 191 l 588 187 l 588 184 l 581 178 q 555 187 557 178 l 559 191 l 552 197 q 578 210 552 210 l 581 214 l 581 217 q 562 233 567 217 q 575 292 575 256 l 591 289 q 604 306 598 306 l 604 309 l 598 315 l 588 315 l 578 309 l 575 309 l 552 338 l 552 342 l 555 342 l 578 338 q 591 349 578 349 l 591 351 l 595 349 l 608 349 l 614 355 l 614 361 q 588 374 597 361 l 578 374 l 568 368 l 519 368 l 509 374 l 496 371 q 473 385 473 379 l 473 388 q 493 401 481 388 q 450 417 477 416 l 450 414 l 431 420 l 427 417 l 394 456 q 368 437 387 437 q 345 420 368 426 l 345 414 l 332 414 q 30 687 30 465 l 30 700 q 326 969 30 928 l 385 972 m 424 972 q 677 890 566 972 q 730 818 730 836 q 772 690 747 818 l 772 680 l 661 667 l 661 670 l 568 661 q 522 766 555 741 q 420 802 495 789 l 420 808 l 424 828 l 420 861 l 420 966 l 424 969 l 424 972 m 506 946 l 506 943 l 516 940 l 516 946 l 506 946 m 575 923 l 588 933 l 585 933 l 575 923 m 180 900 l 187 894 l 191 894 l 197 900 l 197 907 l 180 900 m 85 848 l 92 841 l 95 841 l 95 848 l 85 848 m 661 848 l 661 841 l 641 841 l 641 835 l 657 835 l 673 838 l 680 828 l 690 831 l 690 841 l 684 848 l 661 848 m 171 841 l 171 835 q 187 828 187 835 l 194 828 l 184 841 l 171 841 m 618 814 l 618 808 l 631 808 l 631 814 l 618 814 m 739 769 l 739 752 l 749 746 l 749 749 l 743 769 l 739 769 m 184 641 l 184 637 l 223 631 l 201 644 l 184 641 m 250 618 l 250 611 l 260 611 l 260 618 l 250 618 m 401 585 l 401 581 l 404 565 q 391 545 397 565 l 374 545 l 378 532 l 374 522 q 408 572 408 547 l 408 585 l 401 585 m 98 575 l 109 565 l 112 575 l 109 578 l 98 575 m 144 572 l 144 559 l 151 552 l 151 572 l 144 572 m 180 539 l 178 536 l 178 532 l 194 532 l 194 536 l 180 539 m 273 539 l 269 536 l 269 532 l 283 532 l 283 536 l 273 539 m 463 516 l 476 516 l 476 522 l 470 522 l 463 516 m 121 519 l 128 513 l 135 513 l 135 519 l 121 519 m 644 513 l 650 496 l 637 490 l 634 493 l 624 493 l 618 486 l 618 483 l 624 473 l 624 460 l 618 447 l 602 447 l 591 454 l 591 440 l 568 440 l 568 437 l 585 431 l 595 440 l 598 440 l 608 433 q 627 447 611 447 l 627 431 l 618 431 l 618 420 l 631 408 l 637 414 l 637 437 l 644 444 l 647 444 l 657 440 l 657 463 l 634 463 l 634 467 l 637 483 l 641 483 l 657 479 q 664 493 657 493 q 644 513 661 504 m 365 506 l 365 490 l 368 490 l 368 506 l 365 506 m 499 493 l 493 486 l 493 479 l 503 479 l 503 493 l 499 493 m 349 467 l 322 473 l 335 454 l 349 454 q 361 463 349 462 l 361 470 l 371 476 l 368 486 l 349 467 m 664 470 l 661 460 l 670 460 l 670 470 l 664 470 m 730 467 l 732 467 q 746 447 746 460 l 730 447 l 723 454 l 723 460 l 730 467 m 473 460 l 470 456 l 470 454 l 479 454 l 473 460 m 684 447 l 684 440 l 703 444 l 703 447 l 684 447 m 391 440 l 401 440 l 411 431 l 411 420 l 408 420 l 391 427 l 391 440 m 667 433 l 667 427 l 680 424 l 680 431 l 667 433 m 687 420 l 693 414 l 696 414 l 690 420 l 687 420 m 374 420 l 397 420 l 408 411 l 408 394 q 345 414 345 406 l 374 414 l 374 420 m 555 408 l 552 397 l 559 397 l 565 404 l 562 408 l 555 408 m 641 404 q 624 388 641 388 l 624 378 l 627 378 l 657 401 l 641 404 m 703 394 l 703 388 l 716 385 l 726 385 l 726 388 q 703 394 711 388 m 667 374 l 667 368 l 684 368 l 677 374 l 667 374 m 673 335 l 673 328 l 657 328 q 618 319 651 323 l 614 322 l 614 315 l 644 315 q 650 296 644 296 l 657 296 l 650 306 l 650 309 l 657 315 l 680 315 l 690 309 l 690 322 l 687 326 l 687 328 l 693 335 l 673 335 m 207 328 l 210 326 l 210 322 l 203 312 l 203 309 q 217 276 217 309 q 250 223 231 242 l 250 220 l 246 223 l 243 223 l 243 217 l 246 217 l 250 220 q 342 180 312 184 l 342 171 l 349 171 l 349 178 l 368 178 q 388 168 388 176 l 388 141 q 378 135 388 135 l 374 138 l 368 138 l 368 135 q 381 118 381 133 l 371 102 q 381 95 381 102 l 381 89 l 378 73 l 374 75 l 371 75 l 368 73 l 368 59 q 388 46 382 59 l 388 26 q 374 20 388 20 l 385 7 l 378 0 l 361 0 q 338 26 361 7 l 338 33 l 319 33 l 319 30 l 328 30 l 328 13 l 302 13 q 279 39 286 39 l 276 36 l 276 33 q 286 13 286 33 l 283 13 l 269 10 q 141 56 203 18 q 158 79 146 79 l 158 89 q 128 73 140 86 l 115 73 q 13 223 41 126 l 7 263 l 13 269 l 13 273 l 10 269 l 7 269 q 0 312 0 284 l 7 319 l 10 319 l 13 315 l 16 319 l 26 319 l 46 315 l 66 322 l 112 322 l 112 312 l 115 312 q 125 326 117 326 l 184 326 l 207 328 m 132 309 l 138 302 l 144 309 l 144 315 l 138 315 l 132 309 m 726 315 l 726 309 l 730 309 l 736 315 l 726 315 m 696 302 l 703 289 l 713 302 l 696 302 m 13 299 l 13 276 l 16 276 q 26 283 16 283 l 26 286 l 20 299 l 13 299 m 82 296 l 79 292 l 79 286 l 89 286 l 89 289 l 82 296 m 174 289 l 174 283 q 187 269 187 283 l 197 269 l 197 276 l 191 283 l 187 283 l 191 286 l 191 296 l 180 296 l 174 289 m 53 276 l 69 276 l 69 283 l 59 283 l 53 276 m 654 269 l 654 263 l 670 263 l 670 283 q 664 269 664 283 l 654 269 m 128 269 l 135 263 l 144 263 l 141 276 l 128 269 m 602 276 l 608 269 l 611 269 l 604 276 l 602 276 m 98 269 l 98 256 l 105 256 l 105 269 l 98 269 m 575 256 l 575 253 q 598 243 575 243 q 604 230 598 230 l 611 230 l 618 237 l 581 256 l 575 256 m 670 256 l 670 243 l 677 243 l 677 256 l 670 256 m 46 243 l 56 243 l 56 250 l 53 250 l 46 243 m 700 250 l 700 243 l 707 237 l 709 237 l 709 250 l 700 250 m 644 243 l 644 240 q 664 223 644 234 l 664 237 q 647 243 647 237 l 644 243 m 709 233 l 709 220 l 713 220 l 720 227 l 709 233 m 624 223 l 624 217 l 637 210 l 641 210 l 641 217 l 624 223 m 164 217 l 164 210 l 171 197 l 178 197 l 178 203 l 171 217 l 164 217 m 680 210 l 680 207 l 690 203 l 690 210 l 680 210 m 59 197 l 59 194 l 66 194 l 66 203 l 59 197 m 670 164 l 670 161 l 677 161 l 677 158 l 693 171 q 709 187 709 171 l 713 187 q 700 197 713 197 l 700 203 l 696 203 q 690 171 690 203 l 670 164 m 115 191 l 118 171 l 125 171 l 125 174 l 121 191 l 115 191 m 207 191 q 197 180 207 180 l 197 174 l 214 191 l 207 191 m 509 194 q 549 178 530 194 q 581 155 581 178 l 591 151 l 595 155 l 602 144 l 598 141 l 598 138 q 618 112 618 122 l 624 112 q 650 128 624 125 l 654 125 l 650 121 l 650 115 l 654 112 q 644 95 652 95 l 644 82 q 627 66 644 66 q 644 56 627 58 l 644 59 l 647 62 l 650 62 l 650 85 l 657 85 l 657 89 l 654 92 q 677 109 656 109 q 690 85 682 85 l 690 82 q 585 30 622 30 l 585 36 l 549 30 l 549 33 l 552 43 l 549 43 l 539 39 l 539 36 l 545 26 l 545 20 q 424 0 545 5 l 420 3 l 420 43 l 424 46 l 424 50 l 440 46 l 447 46 q 454 62 454 46 l 463 73 l 463 79 l 460 79 l 456 75 l 454 75 q 440 115 454 92 l 444 125 l 420 144 l 420 164 q 437 174 420 172 l 454 171 q 486 184 454 184 l 486 164 l 454 164 l 463 144 l 467 144 l 467 151 l 493 151 l 490 155 l 490 158 l 496 158 l 506 151 l 509 155 l 513 135 l 519 135 l 519 144 l 516 161 l 519 164 q 506 180 509 164 l 496 180 l 496 184 l 509 194 m 536 168 l 539 158 l 545 164 l 545 174 l 542 174 l 536 168 m 233 164 q 246 158 233 158 l 243 155 l 243 151 l 256 144 l 256 148 l 246 164 l 233 164 m 355 148 l 355 138 l 365 138 l 365 141 l 358 148 l 355 148 m 549 138 l 549 132 l 565 132 l 559 138 l 549 138 m 700 138 l 700 132 l 709 132 l 709 138 l 700 138 m 661 135 l 673 135 l 673 121 l 664 118 l 661 121 l 661 135 m 210 118 l 214 118 l 217 121 l 220 121 l 230 112 l 233 112 l 233 115 l 230 125 l 217 125 l 210 118 m 420 128 l 427 128 l 431 118 l 427 109 l 420 109 l 420 128 m 138 115 l 138 112 l 151 112 l 148 115 l 148 118 l 138 115 m 312 115 l 312 112 l 319 105 l 322 105 l 332 109 l 332 112 l 315 115 l 312 115 m 276 112 l 276 102 l 289 92 l 296 92 l 296 105 l 292 105 l 289 102 q 279 112 279 102 l 276 112 m 431 102 l 447 98 l 447 73 l 427 73 l 420 79 l 420 95 q 431 102 420 102 m 602 98 q 591 89 602 89 l 591 85 l 604 85 l 608 98 l 602 98 m 565 95 l 565 79 l 588 82 l 588 85 q 572 95 572 85 l 565 95 m 214 92 l 220 85 l 223 85 l 217 92 l 214 92 m 496 85 q 506 73 501 73 l 513 73 l 513 75 l 503 85 l 496 85 m 240 73 l 237 69 l 237 59 l 240 62 l 243 62 l 256 59 l 240 73 m 588 46 l 608 46 l 608 53 l 602 59 l 598 59 l 588 46 m 187 56 l 187 53 q 210 33 210 53 l 217 33 l 217 39 l 220 43 l 217 46 l 191 56 l 187 56 m 302 53 l 302 39 l 309 39 l 309 46 l 302 53 m 460 36 l 460 20 l 476 26 q 460 36 476 34 m 440 13 l 440 10 l 463 7 l 460 16 l 440 13 m 299 13 l 299 10 l 296 7 l 296 3 l 286 7 l 286 10 l 299 13 m 312 7 l 326 7 l 326 0 l 322 0 l 312 3 l 312 7 m 333 888 l 333 880 l 338 873 l 341 876 l 341 880 l 336 888 l 333 888 m 460 580 l 460 545 l 466 545 l 469 556 l 463 580 l 460 580 m 471 486 l 466 467 l 466 463 l 476 467 l 473 486 l 471 486 m 341 463 l 341 444 l 346 444 l 346 463 l 341 463 m 416 444 l 421 435 q 446 459 443 446 l 444 463 q 416 444 431 444 m 371 444 l 371 435 l 376 427 l 376 444 l 371 444 m 326 427 l 338 412 l 346 412 q 326 427 346 422 m 386 420 l 386 404 l 393 404 l 393 408 l 391 420 l 386 420 m 481 424 l 481 385 l 476 385 l 476 392 l 473 420 l 476 424 l 481 424 m 433 166 l 433 162 l 435 162 q 456 178 437 178 l 456 193 q 433 166 433 181 m 466 170 l 463 154 l 471 154 l 473 170 l 466 170 m 380 131 l 380 123 q 373 115 373 123 l 380 115 l 383 127 l 383 131 l 380 131 m 355 107 l 363 107 l 368 115 l 361 115 l 355 107 m 410 1173 l 410 1168 l 420 1173 l 420 1179 l 417 1179 l 410 1173 m 425 1176 l 425 1168 l 428 1168 l 438 1173 l 438 1179 l 435 1179 l 425 1176 m 351 -51 q 376 -64 361 -51 q 386 -54 376 -54 q 410 -71 386 -60 l 410 -64 q 379 -43 393 -64 l 358 -43 l 351 -51 m 420 1152 l 420 1141 l 428 1141 l 428 1145 l 420 1152 m 355 1145 q 372 1117 355 1126 l 390 1141 l 390 1145 l 387 1145 q 372 1138 387 1138 l 372 1131 l 369 1131 l 369 1138 l 362 1145 l 355 1145 m 310 -85 l 310 -92 l 327 -92 l 327 -85 l 323 -89 l 320 -89 l 310 -85 m 410 1124 l 410 1120 l 414 1110 l 417 1110 l 425 1117 l 410 1124 m 379 -99 l 382 -113 l 389 -113 l 396 -106 l 389 -99 l 379 -99 m 338 1110 l 338 1103 l 345 1103 q 355 1097 345 1097 l 355 1072 l 362 1072 l 366 1090 q 338 1110 346 1110 m 382 -119 l 382 -134 l 386 -134 l 386 -119 l 382 -119 m 448 -126 l 451 -144 l 462 -134 l 454 -126 l 448 -126 m 397 1082 l 404 1072 l 387 1065 q 400 1055 387 1060 q 417 1065 400 1061 l 420 1062 l 417 1076 l 414 1072 l 407 1072 l 407 1082 l 397 1082 m 330 -140 l 330 -154 l 341 -157 l 348 -137 l 330 -140 m 334 1062 l 334 1059 l 338 1059 l 355 1062 l 355 1069 l 352 1069 l 334 1062 m 372 -151 l 372 -157 l 382 -182 l 386 -182 l 386 -161 q 379 -151 379 -161 l 372 -151 m 302 -196 l 302 -196 l 302 -193 l 302 -193 l 302 -34 l 309 -34 l 336 -41 l 344 -34 l 347 -34 l 351 -37 l 354 -34 l 492 -34 l 498 -41 l 498 -44 l 495 -44 l 478 -41 l 475 -44 l 475 -47 l 503 -55 l 506 -44 l 513 -44 l 513 -106 q 475 -89 488 -103 l 454 -89 l 454 -82 l 433 -82 q 419 -68 433 -68 l 419 -72 q 437 -103 427 -103 q 447 -113 447 -103 l 450 -117 l 454 -117 q 465 -103 454 -103 l 475 -96 l 495 -110 l 503 -110 l 506 -106 l 509 -106 l 513 -130 l 513 -176 l 509 -179 l 513 -182 l 513 -186 l 509 -210 l 485 -206 l 478 -214 l 471 -214 l 471 -210 l 447 -214 l 406 -214 l 402 -210 l 399 -214 l 374 -214 l 371 -210 l 368 -214 l 347 -214 l 333 -210 l 319 -214 l 302 -214 l 302 -196 m 507 1027 l 493 1031 l 493 1021 l 496 1021 l 507 1024 l 507 1006 l 500 1006 l 493 1014 l 466 1006 l 376 1006 q 362 1027 369 1006 l 359 1027 l 352 1017 l 341 1021 l 341 1017 q 324 1006 341 1006 l 304 1006 l 304 1014 l 321 1014 l 321 1017 l 317 1021 l 321 1031 l 324 1031 l 328 1027 l 331 1027 l 334 1031 l 334 1048 q 324 1055 334 1055 l 321 1052 l 317 1052 l 307 1055 l 311 1052 l 307 1048 l 307 1044 l 311 1034 l 304 1017 l 296 1017 l 296 1059 l 300 1062 l 296 1065 l 296 1138 l 300 1138 q 311 1110 307 1138 l 314 1110 q 321 1138 314 1131 l 321 1141 l 300 1162 l 300 1173 l 304 1176 l 300 1179 l 300 1186 q 331 1155 321 1186 l 328 1152 l 334 1152 l 338 1155 l 341 1152 l 345 1152 l 355 1162 l 338 1179 l 338 1186 l 341 1186 l 345 1183 l 349 1183 l 352 1186 l 369 1183 l 397 1183 l 414 1186 l 414 1183 l 417 1186 l 428 1186 l 438 1183 l 455 1186 l 507 1186 l 507 1027 m 379 -185 q 372 -195 379 -195 l 372 -202 l 386 -195 l 386 -185 l 379 -185 z "},"%":{"ha":977,"x_min":0,"x_max":933,"o":"m 382 -30 l 172 -30 l 538 977 l 749 977 l 382 -30 m 355 248 l 348 237 l 351 237 l 361 241 l 355 248 m 334 176 l 334 169 l 338 165 l 345 165 l 345 169 l 338 176 l 334 176 m 286 37 l 286 33 l 328 16 l 331 13 l 334 13 l 331 30 l 331 37 l 338 47 l 311 47 l 286 37 m 371 296 l 378 288 l 385 288 l 385 296 l 371 296 m 486 395 l 486 388 l 493 381 l 496 385 l 496 388 l 490 395 l 486 395 m 569 784 l 576 777 q 610 798 606 787 l 607 801 q 569 784 590 784 m 473 692 l 473 685 l 480 678 l 480 692 l 473 692 m 494 671 l 494 658 l 505 658 l 505 661 l 501 671 l 494 671 m 545 682 l 545 678 l 580 654 l 580 667 q 562 699 562 680 q 552 682 557 699 l 545 682 m 555 913 l 555 909 q 576 896 566 909 l 579 896 l 589 906 l 579 924 l 576 924 q 555 913 564 913 m 480 630 l 477 609 l 487 599 l 487 592 l 470 589 l 460 589 l 452 571 l 452 568 l 460 561 l 463 561 l 480 564 l 484 547 l 487 547 l 487 568 q 494 581 494 568 l 498 585 l 501 585 l 515 581 l 515 585 q 494 599 515 592 l 490 616 l 490 620 l 498 620 l 498 623 q 487 630 487 623 l 480 630 m 559 564 l 549 568 l 549 554 l 559 554 q 584 574 559 568 l 584 581 l 581 581 l 559 564 m 574 540 l 574 533 q 587 543 587 538 l 574 540 m 498 526 l 508 526 l 511 530 l 515 530 l 511 540 l 498 526 m 532 526 l 532 523 q 556 505 532 517 l 556 513 q 546 523 546 513 l 543 526 l 532 526 m 487 495 l 487 492 q 501 478 501 492 l 508 478 q 525 505 508 494 q 487 495 487 502 m 553 495 l 553 492 l 567 492 l 563 495 l 563 498 l 553 495 m 649 895 q 642 882 649 882 l 631 885 l 628 882 l 628 871 q 639 861 639 871 l 642 861 q 659 878 642 878 l 670 878 q 649 895 663 890 m 503 736 l 503 732 l 507 732 q 534 748 508 748 l 534 764 q 503 736 503 751 m 608 816 l 614 816 l 621 823 l 614 823 l 608 816 m 549 740 l 545 724 l 555 724 l 559 740 l 549 740 m 628 774 l 628 768 q 618 761 618 768 l 628 761 l 631 771 l 631 774 l 628 774 m 593 753 l 604 753 l 611 761 l 601 761 l 593 753 m 422 415 l 422 412 l 429 412 q 439 419 429 419 l 439 426 l 422 415 m 426 528 l 426 524 l 433 513 l 433 507 q 419 496 433 496 l 419 493 l 437 493 l 440 510 q 426 528 433 526 m 395 412 l 395 405 l 398 405 l 405 412 l 395 412 m 415 377 l 422 370 l 433 370 l 433 377 l 415 377 m 384 357 l 391 347 l 401 350 l 398 363 l 384 357 m 457 458 l 457 452 l 468 452 l 468 458 l 457 458 m 191 975 q 325 920 282 972 l 326 922 l 326 920 l 325 918 q 357 817 357 869 l 357 635 q 325 536 357 574 l 321 536 l 321 534 l 323 528 l 310 518 l 309 518 l 309 522 l 305 522 l 303 516 l 305 511 q 191 473 275 479 l 191 568 q 243 640 243 587 l 243 822 q 191 880 232 873 l 191 975 m 319 947 l 323 947 q 328 943 323 943 l 328 938 l 325 938 q 321 943 321 938 l 319 943 l 319 940 l 314 940 l 319 947 m 252 863 l 254 852 l 257 852 l 255 854 l 255 856 l 258 863 l 252 863 m 287 848 l 291 845 l 292 847 l 292 848 l 287 848 m 303 635 l 303 632 l 314 632 l 314 629 l 316 629 l 316 632 l 310 635 l 303 635 m 166 880 q 114 823 125 873 l 114 640 q 166 569 114 587 l 166 473 q 52 511 81 480 l 54 517 l 52 522 l 48 522 l 48 518 l 47 518 l 34 529 l 36 534 l 36 536 l 32 536 q 0 636 0 575 l 0 817 q 32 919 0 870 l 31 920 l 31 922 l 32 920 q 166 975 75 972 l 166 880 m 43 940 l 37 940 l 37 943 l 36 943 q 32 939 36 939 l 28 939 l 28 943 q 34 947 34 943 l 37 947 l 43 940 m 54 788 l 62 777 l 62 774 l 58 771 l 66 771 l 70 788 l 54 788 m 64 849 l 64 847 l 66 846 l 70 849 l 64 849 m 47 636 l 41 633 l 41 629 l 43 629 l 43 633 l 54 633 l 54 636 l 47 636 m 767 503 q 901 448 859 499 l 903 449 l 903 448 l 901 446 q 933 344 933 397 l 933 163 q 901 63 933 102 l 897 63 l 897 62 l 899 56 l 886 45 l 885 45 l 885 49 l 882 49 l 880 43 l 882 38 q 767 1 852 7 l 767 96 q 819 167 819 114 l 819 349 q 767 407 808 401 l 767 503 m 896 474 l 899 474 q 905 471 899 471 l 905 465 l 901 465 q 897 471 897 465 l 896 471 l 896 467 l 890 467 l 896 474 m 828 390 l 830 380 l 833 380 l 831 381 l 831 383 l 835 390 l 828 390 m 863 376 l 867 372 l 869 374 l 869 376 l 863 376 m 880 163 l 880 159 l 890 159 l 890 156 l 892 156 l 892 159 l 886 163 l 880 163 m 743 408 q 690 350 701 401 l 690 167 q 743 96 690 114 l 743 1 q 628 39 658 7 l 630 44 l 628 49 l 625 49 l 625 45 l 623 45 l 610 56 l 612 62 l 612 64 l 608 64 q 576 163 576 102 l 576 344 q 608 446 576 397 l 607 448 l 607 450 l 608 448 q 743 503 651 500 l 743 408 m 619 467 l 614 467 l 614 471 l 612 471 q 608 466 612 466 l 605 466 l 605 471 q 610 474 610 471 l 614 474 l 619 467 m 630 315 l 638 304 l 638 301 l 634 298 l 642 298 l 646 315 l 630 315 m 641 376 l 641 374 l 642 373 l 646 376 l 641 376 m 623 163 l 617 160 l 617 156 l 619 156 l 619 160 l 630 160 l 630 163 l 623 163 z "},"&":{"ha":850,"x_min":-1,"x_max":823,"o":"m 339 899 l 336 897 l 319 900 q 309 893 309 900 q 336 886 326 893 l 339 889 l 339 789 q 257 745 284 783 l 254 745 l 250 748 l 250 752 l 254 755 l 247 755 l 247 728 l 240 728 l 243 703 q 305 607 243 633 q 339 604 327 607 l 339 591 l 336 593 l 323 590 q 315 576 323 576 l 315 569 l 319 569 q 339 583 319 578 l 339 422 q 274 400 285 417 l 264 404 l 260 404 l 260 400 l 264 397 l 250 382 l 226 382 l 226 372 l 229 369 l 243 376 l 222 324 l 226 321 l 226 279 q 240 245 240 258 l 240 235 l 233 228 l 195 207 l 198 190 l 202 190 q 209 203 202 203 l 216 203 l 219 186 l 219 176 q 209 169 219 169 l 209 155 l 229 155 q 254 176 254 167 l 260 176 l 260 186 l 264 210 l 315 190 q 339 180 336 190 l 339 18 q 323 21 334 20 l 323 41 l 319 41 q 309 24 319 24 q 302 3 309 3 l 298 3 l 240 7 q 264 62 241 35 l 264 66 l 254 58 l 236 58 l 240 48 l 236 38 l 236 35 l 226 38 q 205 17 213 17 q 153 41 153 36 q 64 104 119 41 q 105 131 94 131 l 105 138 l 98 145 l 81 145 l 71 155 l 71 165 q 95 179 95 170 l 95 186 l 78 193 l 74 193 l 74 190 l 78 186 l 78 183 q 60 172 78 177 l 50 179 l 47 179 l 22 176 l 16 190 l 22 203 q -1 286 4 203 l 2 290 l -1 290 q 12 314 -1 308 q 2 321 12 321 q 19 372 6 372 l 16 376 q 95 473 54 473 q 119 503 95 491 q 136 511 136 503 q 191 538 174 538 l 191 549 l 164 549 q 146 531 164 531 l 115 549 l 123 559 l 123 569 l 112 572 l 115 607 l 92 607 l 105 624 l 102 624 l 85 621 l 81 645 l 81 652 q 109 690 92 680 l 105 693 l 105 696 l 109 700 l 109 707 l 105 711 l 109 714 l 102 714 l 98 700 l 92 700 l 88 703 l 74 690 l 74 686 l 78 683 l 78 676 l 71 669 l 67 669 l 64 673 l 47 673 l 43 652 q 26 714 31 652 q 36 724 26 724 l 36 728 l 26 731 q 40 807 26 774 q 336 972 102 972 l 339 972 l 339 941 l 330 941 l 330 938 l 339 936 l 339 899 m 271 921 l 264 914 q 274 907 274 914 l 285 907 l 285 914 q 274 921 274 914 l 271 921 m 216 886 l 216 873 l 219 873 l 226 886 l 216 886 m 243 852 l 233 852 l 233 845 l 243 845 l 260 842 l 260 848 l 243 852 m 188 814 l 188 810 l 198 810 l 198 827 q 188 814 193 827 m 247 817 l 236 810 l 219 810 l 216 800 q 236 783 236 797 l 240 783 l 250 814 l 250 817 l 247 817 m 326 814 l 323 804 l 330 804 l 336 810 l 326 814 m 150 804 q 123 779 130 800 l 123 776 l 126 772 l 130 772 l 133 776 q 153 800 144 800 l 153 804 l 150 804 m 54 797 l 54 789 l 71 789 l 71 797 l 54 797 m 229 779 l 226 776 l 219 776 l 219 766 l 222 762 q 233 776 228 762 l 229 779 m 123 734 l 164 724 l 168 724 l 157 755 l 164 766 q 123 734 138 766 m 102 759 l 102 755 l 109 762 l 109 766 l 102 759 m 202 755 l 198 755 l 205 728 l 219 728 l 222 731 l 219 759 l 202 755 m 105 734 l 105 718 l 109 718 l 112 734 l 105 734 m 67 731 l 67 714 l 74 714 l 74 724 l 67 731 m 226 690 l 222 690 l 222 686 l 236 680 l 236 686 l 226 690 m 178 686 q 188 673 183 673 l 191 673 l 195 686 l 178 686 m 140 680 l 146 659 l 153 659 l 153 662 l 150 665 l 150 669 l 153 673 l 140 680 m 78 648 l 78 645 l 71 645 l 71 655 l 78 648 m 64 631 l 60 627 l 64 624 l 64 621 l 57 621 q 43 645 43 627 l 60 648 l 64 648 l 64 631 m 267 617 l 264 604 l 267 604 l 274 610 l 274 617 l 267 617 m 85 593 l 85 583 l 81 583 l 57 610 l 71 621 q 85 593 71 610 m 205 610 l 198 610 q 150 590 150 602 l 157 590 l 168 597 l 184 597 l 184 590 l 212 590 l 219 597 l 219 604 l 205 610 m 226 562 l 233 555 l 240 555 l 240 566 l 226 562 m 312 538 l 312 534 l 319 528 l 333 528 l 326 541 l 312 538 m 205 521 l 202 521 l 209 514 l 212 514 l 205 521 m 240 511 l 229 486 l 233 486 q 247 503 240 488 l 240 511 m 315 486 q 298 469 300 478 l 302 469 q 319 479 311 479 l 319 486 l 315 486 m 153 455 q 126 486 153 467 q 98 476 111 476 l 98 473 l 109 473 l 112 476 l 133 469 q 123 438 130 438 l 71 438 q 64 428 71 428 l 60 428 l 57 431 l 54 428 l 50 428 l 47 431 l 47 424 l 54 414 l 40 393 l 40 390 l 43 393 q 57 372 49 393 l 47 355 q 67 341 47 350 l 67 338 l 64 334 l 64 331 l 71 324 l 74 324 l 78 328 l 74 303 l 78 286 l 85 286 l 88 290 l 85 307 l 109 307 l 119 296 l 119 283 l 115 279 l 119 276 l 119 262 l 102 255 l 85 258 l 78 248 l 78 245 l 126 241 l 133 224 l 133 220 l 130 217 l 126 217 l 123 220 l 95 203 l 98 203 l 115 207 l 115 203 l 119 200 l 119 197 l 115 193 q 123 176 121 193 q 153 193 153 185 q 174 210 153 210 l 168 217 q 178 231 169 231 l 178 235 l 174 238 l 171 235 q 143 245 143 238 l 143 252 l 153 269 l 143 279 l 146 293 l 140 314 l 133 307 l 109 314 l 109 341 l 95 341 q 78 352 86 352 l 78 355 l 88 366 q 64 407 88 382 l 64 414 q 85 420 79 414 q 92 431 85 431 l 95 431 l 123 424 l 126 428 q 133 410 133 428 l 143 410 q 161 431 143 431 l 153 455 m 229 424 l 236 417 l 247 417 l 247 424 l 229 424 m 219 417 l 219 410 l 229 410 l 229 417 l 219 417 m 78 407 l 78 404 l 88 400 l 88 410 l 78 407 m 136 362 l 136 355 l 150 352 l 143 341 l 164 341 l 161 345 l 164 349 l 157 362 l 136 362 m 22 334 l 29 328 l 36 334 l 22 334 m 19 269 l 19 258 l 26 266 l 26 269 l 19 269 m 47 252 l 47 248 l 54 238 q 43 220 54 220 l 43 214 q 57 207 57 214 l 64 207 l 60 224 l 71 248 l 71 252 l 47 252 m 19 238 l 12 238 l 12 228 l 22 228 l 26 231 l 19 238 m 264 220 q 247 186 264 206 q 222 200 226 186 q 247 231 247 220 l 250 231 l 264 220 m 109 169 l 102 162 q 119 152 102 156 l 119 155 l 112 169 l 109 169 m 64 152 l 64 138 l 57 131 l 50 131 l 36 145 l 36 152 l 54 159 l 57 159 l 64 152 m 319 138 l 315 121 l 315 111 l 319 111 q 336 124 319 124 l 333 138 l 319 138 m 143 138 l 140 134 l 140 127 l 143 127 l 150 134 l 150 138 l 143 138 m 295 58 l 295 45 l 309 45 l 309 58 l 295 58 m 582 208 l 585 218 l 585 221 l 574 221 l 574 208 l 582 208 m 568 249 q 578 256 568 256 l 578 259 l 571 259 l 571 263 l 574 280 q 595 294 595 287 l 595 298 l 582 294 l 578 294 l 574 298 q 568 311 574 311 l 568 332 l 564 332 l 561 315 l 544 318 l 541 318 l 533 311 l 533 308 l 541 290 l 551 290 l 568 287 l 568 280 l 557 270 l 561 249 l 568 249 m 592 339 l 595 349 l 592 349 l 589 353 l 578 353 l 592 339 m 606 374 q 589 401 589 385 l 582 401 q 568 387 582 387 l 568 384 q 606 374 568 377 m 656 229 l 656 232 l 661 235 l 646 235 l 646 232 l 656 229 m 521 369 l 517 386 l 500 386 l 500 382 q 514 372 514 382 l 514 366 l 507 355 l 507 351 q 521 369 514 353 m 549 420 l 549 427 l 538 427 l 538 420 l 549 420 m 631 479 l 631 486 l 623 492 l 620 489 l 620 486 l 627 479 l 631 479 m 565 132 l 563 138 l 562 138 l 562 134 l 565 132 m 427 914 l 427 907 l 438 907 q 427 914 438 914 m 486 886 l 493 873 l 496 873 l 496 886 l 486 886 m 452 848 l 452 842 l 469 845 l 479 845 l 479 852 l 469 852 l 452 848 m 514 827 l 514 810 l 524 810 l 524 814 q 514 827 519 827 m 462 817 l 462 814 l 472 783 l 476 783 q 496 800 476 797 l 493 810 l 476 810 l 465 817 l 462 817 m 376 810 l 382 804 l 389 804 l 386 814 l 376 810 m 559 804 l 559 800 q 579 776 568 800 l 583 772 l 586 772 l 589 776 l 589 779 q 562 804 582 800 l 559 804 m 642 797 l 642 789 l 659 789 l 659 797 l 642 797 m 479 776 q 490 762 484 762 l 493 766 l 493 776 l 486 776 l 483 779 l 479 776 m 548 766 l 555 755 l 545 724 l 548 724 l 589 734 q 548 766 574 766 m 604 766 l 604 762 l 610 755 l 610 759 l 604 766 m 493 759 l 490 731 l 493 728 l 507 728 l 514 755 l 510 755 l 493 759 m 600 734 l 604 718 l 607 718 l 607 734 l 600 734 m 638 724 l 638 714 l 645 714 l 645 731 l 638 724 m 476 686 l 476 680 l 490 686 l 490 690 l 486 690 l 476 686 m 517 686 l 521 673 l 524 673 q 534 686 529 673 l 517 686 m 559 673 l 562 669 l 562 665 l 559 662 l 559 659 l 566 659 l 572 680 l 559 673 m 438 617 l 438 610 l 445 604 l 448 604 l 445 617 l 438 617 m 493 604 l 493 597 l 500 590 l 528 590 l 528 597 l 545 597 l 555 590 l 562 590 q 514 610 562 602 l 507 610 l 493 604 m 472 566 l 472 555 l 479 555 l 486 562 l 472 566 m 386 541 l 379 528 l 393 528 l 400 534 l 400 538 l 386 541 m 500 514 l 503 514 l 510 521 l 507 521 l 500 514 m 465 503 q 479 486 472 488 l 483 486 l 472 511 l 465 503 m 393 486 l 393 479 q 410 469 401 479 l 414 469 q 397 486 412 478 l 393 486 m 465 424 l 465 417 l 476 417 l 483 424 l 465 424 m 483 417 l 483 410 l 493 410 l 493 417 l 483 417 m 379 138 l 376 124 q 393 111 393 124 l 397 111 l 397 121 l 393 138 l 379 138 m 404 58 l 404 45 l 417 45 l 417 58 l 404 58 m 672 87 l 662 92 l 659 92 l 665 81 l 672 87 m 648 153 l 655 160 l 655 163 l 648 163 l 645 160 l 645 153 l 648 153 m 696 33 l 696 41 l 689 41 l 682 33 l 696 33 m 448 914 l 441 921 l 438 921 q 448 914 438 914 m 659 415 l 659 422 l 648 422 l 648 415 l 659 415 m 732 517 l 725 527 l 715 524 l 718 510 l 732 517 m 701 496 l 694 503 l 684 503 l 684 496 l 701 496 m 722 462 l 722 469 l 718 469 l 711 462 l 722 462 m 694 458 l 694 462 l 687 462 q 677 454 687 454 l 677 448 l 694 458 m 642 655 l 642 645 l 634 645 l 634 648 l 642 655 m 648 648 l 652 648 l 669 645 q 655 621 669 627 l 648 621 l 648 624 l 652 627 l 648 631 l 648 648 m 642 621 l 655 610 l 631 583 l 627 583 l 627 593 q 642 621 642 610 m 462 231 l 465 231 q 490 200 465 220 q 465 186 486 186 q 448 220 448 206 l 462 231 m 694 380 q 696 377 695 379 l 697 377 l 697 380 l 694 380 m 589 503 l 604 545 l 814 545 l 719 285 l 823 0 l 613 0 l 593 54 q 559 41 574 41 q 507 17 559 36 q 486 38 499 17 l 476 35 l 476 38 l 472 48 l 476 58 l 458 58 l 448 66 l 448 62 q 472 7 471 35 l 414 3 l 410 3 q 404 24 404 3 q 393 41 393 24 l 389 41 l 389 21 q 373 18 378 20 l 373 180 q 397 190 376 190 l 448 210 l 452 186 l 452 176 l 458 176 q 483 155 458 167 l 503 155 l 503 169 q 493 176 493 169 l 493 186 l 496 203 l 503 203 q 510 190 510 203 l 514 190 l 517 207 l 479 228 l 472 235 l 472 245 q 486 279 472 258 l 486 321 l 490 324 l 469 376 l 483 369 l 486 372 l 486 382 l 462 382 l 448 397 l 452 400 l 452 404 l 448 404 l 438 400 q 373 422 427 417 l 373 583 q 393 569 393 578 l 397 569 l 397 576 q 389 590 389 576 l 376 593 l 373 591 l 373 604 q 407 607 385 607 q 469 703 469 633 l 472 728 l 465 728 l 465 755 l 458 755 l 462 752 l 462 748 l 458 745 l 455 745 q 373 789 428 783 l 373 889 l 376 886 q 404 893 386 893 q 393 900 404 900 l 376 897 l 373 899 l 373 936 l 382 938 l 382 941 l 373 941 l 373 972 l 376 972 q 672 807 610 972 q 686 731 686 774 l 676 728 l 676 724 q 686 714 686 724 q 669 652 681 652 l 665 673 l 648 673 l 645 669 l 642 669 l 634 676 l 634 683 l 638 686 l 638 690 l 624 703 l 621 700 l 614 700 l 610 714 l 604 714 l 607 711 l 604 707 l 604 700 l 607 696 l 607 693 l 604 690 q 631 652 621 680 l 631 645 l 627 621 l 610 624 l 607 624 l 621 607 l 597 607 l 600 572 l 589 569 l 589 559 l 597 549 l 566 531 q 548 549 548 531 l 521 549 l 521 538 q 576 511 538 538 q 589 503 576 504 m 629 325 l 633 325 l 633 326 l 629 326 l 629 325 m 637 309 l 636 309 l 635 311 l 629 309 l 629 306 q 627 305 628 306 l 624 290 l 627 286 l 634 286 l 638 303 l 637 309 m 612 341 l 604 341 l 604 338 l 605 334 l 612 341 m 629 382 q 625 374 627 378 q 629 378 629 376 l 629 382 l 629 382 m 562 429 l 581 483 q 559 455 559 466 l 551 431 q 562 429 557 431 m 755 115 l 742 115 l 742 104 l 745 104 l 755 108 l 755 115 m 714 129 l 693 132 l 683 122 l 676 122 l 673 139 l 673 149 l 655 157 l 652 157 l 645 149 l 645 146 l 648 129 l 631 125 l 631 122 l 652 122 q 665 115 652 115 l 669 111 l 669 108 l 665 94 l 669 94 q 683 115 676 94 l 700 119 l 704 119 l 704 111 l 707 111 q 714 122 707 122 l 714 129 m 610 111 l 610 101 l 614 98 l 614 94 l 624 98 l 610 111 m 589 84 q 579 122 586 122 l 576 122 q 562 108 576 108 l 562 101 q 589 84 578 101 m 731 43 l 728 43 l 728 29 l 731 33 l 734 33 l 731 43 m 594 169 q 612 183 610 176 l 608 183 l 597 176 l 591 176 q 581 190 581 176 l 577 190 l 577 172 l 594 169 m 543 152 l 536 152 l 536 141 l 543 141 l 543 152 z "},"'":{"ha":267,"x_min":0,"x_max":218,"o":"m 218 968 q 180 937 218 947 l 176 941 l 176 934 l 180 930 l 176 927 l 176 923 l 189 913 l 210 930 l 218 930 l 218 927 l 214 923 l 214 920 l 218 916 l 214 899 l 214 871 l 218 854 l 214 854 l 218 851 l 218 840 l 214 830 l 218 813 l 218 754 l 210 727 l 218 720 l 218 716 l 214 713 l 218 709 l 218 572 l 210 565 l 206 565 l 206 568 l 210 585 l 206 589 l 202 589 l 193 561 l 206 557 l 206 551 l 130 551 q 152 589 134 576 l 152 610 l 160 610 l 160 630 q 176 644 176 630 l 172 644 q 134 627 134 636 q 122 616 134 616 l 118 613 l 118 610 q 134 599 134 610 l 142 589 l 126 568 l 126 561 l 130 557 l 130 554 l 101 551 l 46 551 l 42 554 l 38 551 l 34 551 l 5 554 l 9 578 l 0 585 l 0 592 l 5 592 l 0 616 l 0 658 l 5 661 l 0 665 l 0 689 l 5 692 l 0 696 l 0 716 l 5 730 l 0 744 l 0 768 l 9 775 l 0 802 l 0 892 q 26 906 0 899 l 26 909 l 13 916 l 18 927 l 13 927 q 0 944 0 927 l 0 964 l 9 964 l 9 947 l 13 947 l 18 951 l 30 947 l 30 944 l 26 941 l 26 937 l 30 934 l 50 934 q 59 944 59 934 l 55 947 l 55 951 l 59 961 l 55 958 l 50 961 l 46 961 l 34 958 l 13 964 l 13 972 l 64 972 l 68 968 l 72 972 l 160 972 l 160 968 q 126 958 160 961 l 126 954 q 160 947 152 954 l 164 947 l 189 968 l 202 968 l 206 964 l 210 968 l 218 968 m 202 858 l 197 858 l 202 848 l 210 848 l 210 851 l 202 858 m 206 844 l 197 844 l 197 840 l 202 830 l 210 830 l 210 833 l 206 844 m 193 706 q 176 682 193 696 q 189 671 189 682 q 168 648 182 671 l 176 648 q 202 678 176 664 l 202 699 l 193 706 m 176 848 l 164 848 l 164 840 l 168 840 l 176 848 m 168 913 q 134 896 145 913 l 164 878 l 168 878 l 168 882 q 160 896 160 882 l 152 896 l 152 899 l 160 899 l 168 906 l 168 913 m 152 747 l 142 747 l 142 730 l 152 730 l 146 734 l 146 737 l 152 747 m 142 858 l 138 858 l 126 854 l 126 851 l 134 844 l 142 858 m 134 678 l 118 675 l 118 668 l 126 661 l 134 668 l 134 678 m 126 930 l 118 930 l 118 923 q 110 913 110 923 l 80 913 l 80 906 l 101 903 q 126 930 126 922 m 110 675 l 92 675 l 92 671 l 110 671 l 110 675 m 101 610 l 80 606 l 92 595 l 101 603 l 101 610 m 92 871 l 80 865 l 72 882 q 59 868 65 882 q 72 851 66 868 l 68 848 l 84 851 l 80 854 l 80 861 l 92 861 l 92 871 m 84 727 l 68 727 l 64 716 l 88 709 l 84 727 m 68 934 l 64 934 l 64 930 l 68 913 l 76 913 l 76 916 l 68 934 m 72 686 l 64 686 l 34 675 l 34 671 l 59 671 q 72 678 59 678 l 72 686 m 30 775 l 18 775 l 18 772 l 22 761 l 26 761 l 30 775 m 30 678 q 18 686 18 678 l 9 686 l 18 671 l 30 671 l 30 678 z "},"(":{"ha":475,"x_min":2,"x_max":442,"o":"m 363 1141 l 363 1137 l 338 1154 l 355 1154 l 363 1141 m 442 1123 l 442 957 l 435 949 l 419 949 l 405 960 l 398 960 l 398 957 l 401 954 l 401 949 l 385 946 l 372 957 l 372 954 l 369 949 l 370 954 q 349 946 349 954 q 224 832 247 946 l 224 142 q 328 3 224 37 l 324 -7 l 324 -11 l 335 -11 q 366 0 348 0 l 435 0 l 442 -7 l 442 -73 l 435 -80 l 442 -90 l 442 -177 l 435 -184 l 382 -184 q 102 -108 174 -184 l 106 -97 l 102 -87 l 96 -87 l 96 -94 l 92 -94 l 68 -73 l 71 -62 l 71 -59 l 64 -59 q 2 135 2 16 l 2 821 q 64 1019 2 924 l 61 1023 l 61 1026 l 64 1023 q 349 1130 153 1130 l 435 1130 l 442 1123 m 85 1061 l 75 1061 l 75 1067 l 71 1067 q 64 1057 71 1057 l 58 1057 l 58 1067 q 68 1074 68 1067 l 75 1074 l 85 1061 m 376 974 l 376 970 l 379 967 l 386 974 l 376 974 m 390 939 l 390 936 l 382 936 l 382 946 l 390 939 m 193 911 l 199 898 l 199 895 l 196 891 l 203 891 l 207 911 l 193 911 m 127 884 l 127 880 l 130 877 l 137 884 l 127 884 m 92 135 l 82 128 l 82 121 l 85 121 l 85 128 l 106 128 l 106 135 l 92 135 m 388 -31 q 390 -18 382 -18 l 382 -18 l 379 -21 q 369 -35 374 -35 l 369 -39 l 372 -42 l 388 -31 m 435 -39 q 429 -24 435 -33 l 429 -28 l 419 -24 l 409 -35 l 416 -42 q 395 -66 416 -66 l 395 -70 l 398 -73 q 429 -42 429 -63 l 435 -42 l 435 -39 m 342 -39 l 335 -56 l 349 -59 l 355 -45 l 355 -39 l 342 -39 m 372 -80 l 372 -90 l 379 -90 l 379 -80 l 372 -80 m 380 -94 l 380 -97 l 379 -97 l 379 -94 l 380 -94 m 379 -104 l 379 -108 l 369 -115 l 369 -104 l 379 -104 z "},")":{"ha":475,"x_min":2,"x_max":442,"o":"m 89 1154 l 106 1154 l 82 1137 l 82 1141 l 89 1154 m 9 1130 l 96 1130 q 380 1023 291 1130 l 383 1026 l 383 1023 l 380 1019 q 442 821 442 924 l 442 135 q 380 -59 442 16 l 373 -59 l 373 -62 l 376 -73 l 352 -94 l 349 -94 l 349 -87 l 342 -87 l 338 -97 l 342 -108 q 62 -184 270 -184 l 9 -184 l 2 -177 l 2 -90 l 9 -80 l 2 -73 l 2 -7 l 9 0 l 78 0 q 109 -11 96 0 l 120 -11 l 120 -7 l 117 3 q 220 142 220 37 l 220 832 q 96 946 197 946 q 75 954 96 954 l 75 949 l 72 954 l 72 957 l 60 946 l 43 949 l 43 954 l 46 957 l 46 960 l 39 960 l 25 949 l 9 949 l 2 957 l 2 1123 l 9 1130 m 370 1074 l 376 1074 q 387 1067 376 1067 l 387 1057 l 380 1057 q 373 1067 373 1057 l 370 1067 l 370 1061 l 359 1061 l 370 1074 m 58 974 l 65 967 l 68 970 l 68 974 l 58 974 m 62 946 l 62 936 l 55 936 l 55 939 l 62 946 m 238 911 l 241 891 l 248 891 l 245 895 l 245 898 l 252 911 l 238 911 m 307 884 l 314 877 l 317 880 l 317 884 l 307 884 m 338 135 l 338 128 l 359 128 l 359 121 l 363 121 l 363 128 l 352 135 l 338 135 m 56 -31 l 72 -42 l 75 -39 l 75 -35 q 65 -21 71 -35 l 62 -18 l 55 -18 q 56 -31 62 -18 m 9 -39 l 9 -42 l 15 -42 q 46 -73 15 -63 l 50 -70 l 50 -66 q 28 -42 28 -66 l 36 -35 l 25 -24 l 15 -28 l 15 -24 q 9 -39 9 -33 m 89 -39 l 89 -45 l 96 -59 l 109 -56 l 102 -39 l 89 -39 m 65 -80 l 65 -90 l 72 -90 l 72 -80 l 65 -80 m 65 -94 l 65 -97 l 64 -97 l 64 -94 l 65 -94 m 75 -104 l 75 -115 l 65 -108 l 65 -104 l 75 -104 z "},"*":{"ha":475,"x_min":1,"x_max":425,"o":"m 203 878 l 154 1068 l 271 1068 l 222 876 l 388 983 l 425 872 l 230 859 l 380 729 l 283 663 l 214 850 l 145 666 l 49 732 l 197 859 l 1 873 l 38 984 l 203 878 m 215 876 l 213 876 l 210 873 l 215 873 l 215 876 m 138 886 l 133 886 l 133 885 l 134 881 l 138 881 l 138 886 m 195 871 l 194 871 l 183 870 l 183 866 q 191 859 191 866 q 200 867 197 860 l 195 871 m 158 898 l 155 898 l 155 892 l 159 888 l 161 888 l 161 890 l 158 898 m 180 873 l 174 874 l 174 871 l 180 871 l 180 873 m 170 887 l 167 887 l 165 878 l 164 878 q 153 882 159 878 l 152 882 l 152 880 q 158 878 152 878 l 160 869 l 167 869 l 170 887 m 155 869 l 153 871 l 149 871 q 143 867 149 867 l 143 863 q 153 868 150 868 l 153 865 l 155 865 l 155 869 m 224 880 l 227 890 l 226 895 l 222 895 l 222 880 l 224 880 m 231 918 l 232 926 l 226 927 l 226 926 l 229 918 l 231 918 m 118 690 l 118 697 l 115 697 l 115 690 l 118 690 m 194 935 q 212 927 204 935 l 213 928 q 197 938 212 933 l 194 935 m 137 697 l 137 703 l 134 701 l 134 697 l 137 697 m 105 703 q 118 709 118 706 l 113 709 l 105 703 m 146 707 l 148 711 l 148 713 l 143 713 l 143 707 l 146 707 m 235 943 l 235 958 l 232 958 l 232 955 l 231 944 l 232 943 l 235 943 m 153 728 q 157 721 155 721 q 165 734 157 729 l 165 741 l 150 730 l 150 728 l 153 728 m 110 730 q 119 725 114 730 l 121 725 l 125 733 l 121 738 l 119 738 q 110 732 115 732 l 110 730 m 232 970 l 232 975 l 222 975 l 222 972 l 232 970 m 215 985 l 216 985 l 216 987 q 205 996 205 991 l 201 996 l 201 991 l 205 992 l 215 985 m 104 751 q 112 761 112 753 q 105 769 105 764 l 102 769 l 102 755 l 104 753 l 104 751 m 218 1002 q 212 1006 218 1004 l 212 1003 l 218 1002 m 151 766 l 153 770 l 151 770 l 150 772 l 145 772 l 151 766 m 197 1009 l 199 1010 q 203 1015 199 1015 l 203 1019 q 193 1010 193 1013 l 193 1009 l 197 1009 m 207 1021 l 207 1023 l 208 1025 l 202 1025 l 202 1023 l 207 1021 m 205 1044 q 219 1034 205 1038 l 219 1040 q 207 1046 208 1040 l 205 1046 l 205 1044 m 231 1043 l 229 1050 l 224 1050 l 226 1043 l 231 1043 m 273 866 l 273 869 q 269 872 269 869 l 265 872 l 265 871 l 273 866 m 282 866 q 289 874 286 867 l 288 882 l 279 882 l 279 880 q 286 876 286 880 l 286 872 l 282 868 l 282 866 m 257 872 l 254 876 l 252 876 l 252 872 l 257 872 m 270 888 l 270 891 l 265 891 l 262 888 l 270 888 m 189 823 l 191 829 l 186 831 l 182 826 l 189 823 m 302 897 l 302 901 l 296 901 l 296 897 l 302 897 m 96 947 q 89 950 89 947 l 90 954 q 80 951 87 951 l 80 949 q 87 945 80 946 l 89 946 l 92 941 l 89 941 l 89 939 l 94 939 l 96 947 m 94 904 l 89 904 q 94 900 89 902 l 94 904 m 86 911 l 84 911 l 81 909 l 86 909 l 86 911 m 71 920 l 66 920 l 66 920 l 68 916 l 71 916 l 71 920 m 66 907 l 65 907 l 54 905 l 54 901 q 62 895 62 901 q 71 903 68 895 l 66 907 m 62 965 l 59 965 l 54 961 l 58 954 l 59 954 l 62 957 l 60 964 l 62 965 m 59 930 l 56 930 l 56 925 l 60 920 l 62 920 l 62 922 l 59 930 m 52 909 l 45 909 l 45 907 l 52 907 l 52 909 m 41 962 l 39 962 l 35 958 l 37 958 l 41 962 m 41 922 l 38 922 l 37 913 l 35 913 q 24 918 31 913 l 23 918 l 23 916 q 29 913 23 913 l 31 904 l 38 904 l 41 922 m 34 950 l 33 950 l 33 945 l 35 945 l 35 946 l 34 950 m 169 796 l 169 798 q 162 804 162 798 l 159 804 q 151 792 159 797 q 169 796 169 793 m 183 795 q 186 802 183 802 l 191 800 l 193 802 l 193 807 q 188 811 188 807 l 186 811 q 178 804 186 804 l 174 804 q 183 795 176 798 m 178 813 l 175 813 l 172 810 l 175 810 l 178 813 m 169 832 l 169 836 q 173 838 173 836 l 169 838 l 167 833 l 167 832 l 169 832 m 184 842 l 180 842 l 176 838 l 181 838 l 184 842 m 137 734 l 143 747 l 140 749 l 137 745 l 136 735 l 137 734 m 147 770 l 154 777 l 155 778 l 149 779 l 146 771 l 147 770 m 151 701 l 151 708 l 147 708 l 147 701 l 151 701 m 186 770 l 185 775 q 167 773 170 777 l 168 771 q 186 770 177 774 m 132 708 l 132 711 l 128 714 l 128 708 l 132 708 m 160 714 l 152 720 l 147 720 q 160 714 147 717 m 122 718 l 122 724 l 117 724 l 117 722 l 119 718 l 122 718 m 144 795 l 146 795 l 149 806 l 151 809 l 148 810 l 140 797 l 144 795 m 155 741 l 155 743 q 146 749 151 743 l 144 749 l 140 744 l 144 736 l 146 736 q 155 741 151 741 m 177 817 l 179 819 l 170 823 l 168 819 l 177 817 m 202 835 l 205 832 l 208 837 l 204 839 q 190 836 201 833 l 189 833 l 190 833 l 202 835 m 161 764 l 163 766 l 163 780 l 160 780 q 153 772 160 775 q 161 762 153 764 l 161 764 m 201 840 l 202 842 q 195 841 195 843 l 201 840 m 120 783 l 115 783 l 114 781 l 113 781 l 114 777 l 120 783 m 88 721 l 88 723 q 81 729 81 723 l 78 729 q 71 717 78 722 q 88 721 88 718 m 110 721 q 113 727 110 727 l 118 726 l 119 727 l 119 732 q 115 736 115 732 l 113 736 q 105 729 113 729 l 100 729 q 110 721 103 724 m 97 738 l 94 738 l 91 735 l 94 735 l 97 738 m 88 757 l 88 760 q 92 763 92 760 l 88 763 l 86 758 l 86 757 l 88 757 m 314 869 l 318 876 l 315 878 l 311 871 l 314 869 m 334 867 l 338 871 l 333 871 l 332 868 l 334 867 m 310 888 q 324 886 322 884 l 320 889 l 310 888 m 347 870 l 351 873 l 351 874 l 347 877 l 345 871 l 347 870 m 363 886 q 364 877 361 878 q 378 884 368 884 l 381 890 l 362 888 l 361 887 l 363 886 m 328 908 q 333 899 331 906 l 334 899 l 342 903 l 341 909 l 340 911 q 328 910 332 907 l 328 908 m 351 889 q 357 889 353 892 l 358 890 l 355 892 l 356 894 l 361 900 q 372 900 370 897 l 373 902 l 367 903 l 366 904 l 365 907 q 365 913 368 912 l 370 921 l 368 922 l 363 916 l 357 922 l 356 922 l 352 922 l 351 920 l 350 911 l 354 909 l 359 904 l 358 901 l 352 899 l 349 890 l 351 889 m 333 930 q 345 934 341 927 q 343 945 340 941 l 341 946 l 334 934 l 334 932 l 333 930 m 381 918 l 385 921 l 383 922 l 383 924 l 379 926 l 381 918 m 381 941 q 395 928 380 939 q 394 943 391 937 l 391 945 q 382 943 388 939 l 381 941 m 363 952 q 375 954 370 951 l 371 957 q 368 967 363 961 l 366 968 q 360 967 364 964 l 357 962 l 358 960 l 363 959 q 363 952 366 958 m 383 956 l 386 955 l 385 959 l 382 960 l 383 956 m 319 686 l 319 693 l 316 693 l 316 686 l 319 686 m 300 693 l 300 696 l 297 699 l 297 693 l 300 693 m 329 699 l 321 705 l 316 705 q 329 699 316 702 m 291 703 l 291 709 l 286 709 l 286 707 l 288 703 l 291 703 m 284 724 l 284 726 l 269 736 l 269 730 q 277 717 277 725 q 281 724 279 717 l 284 724 m 324 726 l 324 728 q 315 734 319 728 l 313 734 l 309 729 l 313 721 l 315 721 q 324 726 320 726 m 330 749 l 332 751 l 332 765 l 329 765 q 322 757 329 760 q 330 747 322 749 l 330 749 m 289 768 l 284 768 l 283 766 l 281 766 l 283 762 l 289 768 m 257 823 l 254 828 l 249 827 l 250 820 l 257 823 m 265 792 q 283 788 265 789 q 275 800 275 793 l 272 800 q 265 794 272 794 l 265 792 m 243 792 q 253 800 250 795 l 248 800 q 240 808 240 800 l 239 808 q 234 804 239 804 l 234 798 l 235 797 l 240 798 q 243 792 243 798 m 259 806 l 262 806 l 259 809 l 256 809 l 259 806 m 253 834 l 258 834 l 254 838 l 250 838 l 253 834 m 298 731 l 297 741 l 294 745 l 291 743 l 297 730 l 298 731 m 288 767 l 286 775 l 279 774 l 280 772 l 287 766 l 288 767 m 287 696 l 287 704 l 283 704 l 283 696 l 287 696 m 248 766 q 267 767 256 770 l 267 769 q 249 771 264 773 l 248 766 m 306 704 l 306 710 l 302 707 l 302 704 l 306 704 m 274 710 q 287 716 287 713 l 282 716 l 274 710 m 315 713 l 317 718 l 317 720 l 312 720 l 312 713 l 315 713 m 288 793 l 281 806 l 279 805 l 280 802 l 283 791 l 286 791 l 288 793 m 279 736 q 288 732 283 736 l 290 732 l 294 740 l 290 745 l 288 745 q 279 739 283 739 l 279 736 m 266 815 l 264 819 l 255 815 l 256 812 l 266 815 m 244 821 l 245 821 l 244 823 q 230 827 233 821 l 227 825 l 229 820 l 232 823 l 244 821 m 273 758 q 281 768 281 760 q 274 776 274 771 l 271 776 l 271 762 l 273 760 l 273 758 m 239 837 q 231 838 238 839 l 233 836 l 239 837 m 320 772 l 321 777 l 320 777 l 319 779 l 314 779 l 320 772 m 340 722 q 358 718 340 720 q 351 730 351 723 l 347 730 q 340 724 347 724 l 340 722 m 324 717 q 334 725 331 720 l 329 725 q 321 732 321 725 l 319 732 q 315 728 319 728 l 315 723 l 316 722 l 321 723 q 324 717 324 723 m 340 731 l 343 731 l 340 734 l 337 734 l 340 731 m 348 753 l 348 754 l 346 759 l 342 759 q 346 756 342 756 l 346 753 l 348 753 z "},"+":{"ha":570,"x_min":0,"x_max":516,"o":"m 351 725 l 351 642 l 345 635 l 338 642 l 326 642 l 326 639 q 351 629 326 629 l 351 570 l 348 567 l 351 563 l 351 518 q 334 508 334 516 l 338 505 l 338 501 l 341 505 l 351 505 l 351 418 l 341 418 l 345 415 l 341 412 l 341 405 l 345 405 l 348 408 l 351 408 l 351 284 l 345 277 l 174 277 l 168 284 l 168 374 l 178 374 q 168 380 178 380 l 168 577 l 174 587 l 168 597 l 168 725 l 174 732 l 202 732 l 207 729 l 210 732 l 319 732 l 319 725 l 330 725 l 330 732 l 345 732 l 351 725 m 306 701 l 298 691 l 309 688 l 313 691 l 313 694 l 306 701 m 302 415 q 288 435 288 415 l 292 439 l 277 442 l 277 422 l 298 412 l 302 412 l 302 415 m 292 584 l 277 587 l 277 581 l 284 574 l 292 584 m 277 660 l 263 660 l 270 653 l 277 653 l 277 660 m 260 456 l 260 446 l 270 446 l 260 456 m 252 705 l 249 708 l 245 708 l 241 705 l 241 701 l 245 698 l 231 688 l 210 688 l 210 684 l 214 673 l 217 673 q 252 705 240 683 m 214 591 l 207 591 l 207 584 l 214 577 l 214 591 m 207 694 l 199 694 l 199 688 l 207 680 l 207 694 m 207 508 l 185 515 l 185 511 l 195 501 l 207 501 l 207 508 m 192 670 l 178 670 l 178 667 l 189 663 l 192 667 l 192 670 m 185 460 l 178 460 l 171 453 l 185 453 l 185 460 m 142 414 l 9 414 l 0 421 l 0 587 l 9 593 l 124 593 l 124 583 q 133 593 133 583 l 142 593 l 142 414 m 381 593 l 507 593 l 516 587 l 516 559 l 512 555 l 516 552 l 516 446 l 507 446 l 507 435 l 516 435 l 516 421 l 507 414 l 399 414 l 390 421 l 399 428 l 399 439 l 394 439 q 381 414 381 439 l 381 593 m 475 459 l 463 466 l 458 456 l 463 452 l 467 452 l 475 459 m 161 463 q 182 477 161 477 l 186 473 l 189 487 l 168 487 l 158 466 l 158 463 l 161 463 m 335 473 l 338 487 l 332 487 l 324 480 l 335 473 m 422 487 l 422 500 l 413 494 l 413 487 l 422 487 m 203 504 l 193 504 l 193 494 l 203 504 m 480 511 l 484 514 l 484 518 l 480 522 l 475 522 l 471 518 l 458 532 l 458 552 l 452 552 l 439 549 l 439 545 q 480 511 452 523 m 342 549 l 342 555 l 335 555 l 328 549 l 342 549 m 467 555 l 467 563 l 458 563 l 448 555 l 467 555 m 257 555 l 264 576 l 260 576 l 250 566 l 250 555 l 257 555 m 435 570 l 435 583 l 431 583 l 426 573 l 431 570 l 435 570 m 208 576 l 208 583 l 200 590 l 200 576 l 208 576 z "},",":{"ha":271,"x_min":0,"x_max":218,"o":"m 218 192 q 180 161 218 170 l 176 164 l 176 157 l 180 154 l 176 151 l 176 146 l 189 136 l 210 154 l 218 154 l 218 151 l 214 146 l 214 143 l 218 140 l 214 123 l 214 95 l 218 78 l 214 78 l 218 75 l 218 64 l 214 54 l 218 37 l 218 -22 l 210 -50 l 218 -57 l 218 -60 l 214 -64 l 218 -67 l 218 -205 l 210 -212 l 206 -212 l 206 -208 l 210 -191 l 206 -188 l 202 -188 l 193 -216 l 206 -219 l 206 -226 l 130 -226 q 152 -188 134 -201 l 152 -167 l 160 -167 l 160 -146 q 176 -132 176 -146 l 172 -132 q 134 -150 134 -140 q 122 -160 134 -160 l 118 -163 l 118 -167 q 134 -178 134 -167 l 142 -188 l 126 -208 l 126 -216 l 130 -219 l 130 -222 l 101 -226 l 46 -226 l 42 -222 l 38 -226 l 34 -226 l 5 -222 l 9 -198 l 0 -191 l 0 -184 l 5 -184 l 0 -160 l 0 -119 l 5 -115 l 0 -112 l 0 -87 l 5 -84 l 0 -81 l 0 -60 l 5 -46 l 0 -33 l 0 -8 l 9 -1 l 0 26 l 0 116 q 26 130 0 123 l 26 133 l 13 140 l 18 151 l 13 151 q 0 168 0 151 l 0 188 l 9 188 l 9 171 l 13 171 l 18 174 l 30 171 l 30 168 l 26 164 l 26 161 l 30 157 l 50 157 q 59 168 59 157 l 55 171 l 55 174 l 59 184 l 55 181 l 50 184 l 46 184 l 34 181 l 13 188 l 13 195 l 64 195 l 68 192 l 72 195 l 160 195 l 160 192 q 126 181 160 184 l 126 178 q 160 171 152 178 l 164 171 l 189 192 l 202 192 l 206 188 l 210 192 l 218 192 m 202 81 l 197 81 l 202 71 l 210 71 l 210 75 l 202 81 m 206 67 l 197 67 l 197 64 l 202 54 l 210 54 l 210 57 l 206 67 m 193 -71 q 176 -95 193 -81 q 189 -105 189 -95 q 168 -129 182 -105 l 176 -129 q 202 -98 176 -113 l 202 -77 l 193 -71 m 176 71 l 164 71 l 164 64 l 168 64 l 176 71 m 168 136 q 134 119 145 136 l 164 102 l 168 102 l 168 105 q 160 119 160 105 l 152 119 l 152 123 l 160 123 l 168 130 l 168 136 m 152 -29 l 142 -29 l 142 -46 l 152 -46 l 146 -43 l 146 -39 l 152 -29 m 142 81 l 138 81 l 126 78 l 126 75 l 134 67 l 142 81 m 134 -98 l 118 -102 l 118 -109 l 126 -115 l 134 -109 l 134 -98 m 126 154 l 118 154 l 118 146 q 110 136 110 146 l 80 136 l 80 130 l 101 126 q 126 154 126 146 m 110 -102 l 92 -102 l 92 -105 l 110 -105 l 110 -102 m 101 -167 l 80 -170 l 92 -181 l 101 -174 l 101 -167 m 92 95 l 80 88 l 72 105 q 59 92 65 105 q 72 75 66 92 l 68 71 l 84 75 l 80 78 l 80 85 l 92 85 l 92 95 m 84 -50 l 68 -50 l 64 -60 l 88 -67 l 84 -50 m 68 157 l 64 157 l 64 154 l 68 136 l 76 136 l 76 140 l 68 157 m 72 -91 l 64 -91 l 34 -102 l 34 -105 l 59 -105 q 72 -98 59 -98 l 72 -91 m 30 -1 l 18 -1 l 18 -5 l 22 -16 l 26 -16 l 30 -1 m 30 -98 q 18 -91 18 -98 l 9 -91 l 18 -105 l 30 -105 l 30 -98 z "},"-":{"ha":504,"x_min":0,"x_max":456,"o":"m 7 600 l 90 600 l 97 593 l 90 587 l 90 576 l 94 576 q 104 600 104 576 l 162 600 l 165 597 l 170 600 l 214 600 q 224 583 216 583 l 228 587 l 231 587 l 228 590 l 228 600 l 314 600 l 314 590 l 317 593 l 321 590 l 328 590 l 328 593 l 324 597 l 324 600 l 448 600 l 456 593 l 456 428 l 448 421 l 359 421 l 359 431 q 352 421 352 431 l 155 421 l 145 428 l 135 421 l 7 421 l 0 428 l 0 455 l 3 459 l 0 463 l 0 569 l 7 569 l 7 579 l 0 579 l 0 593 l 7 600 m 31 555 l 41 549 l 45 559 l 41 562 l 38 562 l 31 555 m 317 552 q 297 538 317 538 l 294 542 l 290 528 l 311 528 l 321 549 l 321 552 l 317 552 m 149 542 l 145 528 l 152 528 l 159 534 l 149 542 m 73 528 l 73 514 l 79 521 l 79 528 l 73 528 m 276 511 l 286 511 l 286 521 l 276 511 m 28 504 l 24 500 l 24 496 l 28 493 l 31 493 l 35 496 l 45 483 l 45 463 l 49 463 l 59 466 l 59 469 q 28 504 50 492 m 142 466 l 142 459 l 149 459 l 155 466 l 142 466 m 38 459 l 38 452 l 45 452 l 52 459 l 38 459 m 224 459 l 218 438 l 221 438 l 231 448 l 231 459 l 224 459 m 62 445 l 62 431 l 66 431 l 69 441 l 66 445 l 62 445 m 273 438 l 273 431 l 279 425 l 279 438 l 273 438 z "},".":{"ha":275,"x_min":0,"x_max":221,"o":"m 221 179 l 221 170 q 204 155 214 155 l 211 149 l 221 152 l 221 56 l 214 56 q 208 73 214 73 l 186 83 l 186 79 q 208 69 186 74 l 211 52 l 211 48 l 201 38 l 193 38 l 173 56 l 173 52 l 190 31 l 186 21 l 190 21 q 211 35 211 21 l 221 35 l 221 7 l 214 0 l 193 0 l 183 7 l 176 0 l 152 0 q 145 10 145 0 l 124 10 q 117 0 124 0 l 100 0 l 79 17 l 76 17 l 76 0 l 35 0 l 35 10 l 14 10 l 14 7 l 21 7 l 21 0 l 7 0 l 0 7 l 0 10 l 7 21 l 7 38 l 0 38 l 0 69 l 14 90 q 3 100 14 100 l 0 104 l 0 128 l 7 135 l 21 135 l 31 128 l 41 128 l 38 132 l 21 138 l 14 159 l 7 159 l 7 142 l 0 142 l 0 179 l 221 179 m 83 176 l 83 170 q 73 163 73 170 l 83 163 l 86 173 l 86 176 l 83 176 m 48 155 l 59 155 l 66 163 l 56 163 l 48 155 m 86 90 l 86 86 l 94 86 q 104 94 94 94 l 104 100 l 86 90 m 124 100 l 124 97 l 132 86 l 132 79 q 117 69 132 69 l 117 66 l 135 66 l 138 83 q 124 100 132 99 m 59 86 l 59 79 l 62 79 l 69 86 l 59 86 m 79 52 l 86 45 l 97 45 l 97 52 l 79 52 m 48 31 l 56 21 l 66 24 l 62 38 l 48 31 m 155 31 l 155 24 l 166 24 l 166 31 l 155 31 z "},"/":{"ha":566,"x_min":-12,"x_max":566,"o":"m 199 -36 l -12 -36 l 355 970 l 566 970 l 199 -36 m 172 242 l 165 231 l 168 231 l 178 235 l 172 242 m 151 170 l 151 163 l 155 159 l 161 159 l 161 163 l 155 170 l 151 170 m 103 31 l 103 27 l 144 10 l 148 7 l 151 7 l 148 24 l 148 31 l 155 41 l 127 41 l 103 31 m 188 290 l 195 282 l 202 282 l 202 290 l 188 290 m 302 389 l 302 382 l 310 375 l 313 378 l 313 382 l 307 389 l 302 389 m 386 778 l 393 770 q 427 791 423 781 l 424 795 q 386 778 407 778 m 290 686 l 290 679 l 297 672 l 297 686 l 290 686 m 311 665 l 311 652 l 321 652 l 321 655 l 318 665 l 311 665 m 362 675 l 362 672 l 397 648 l 397 661 q 379 692 379 673 q 369 675 374 692 l 362 675 m 372 907 l 372 903 q 393 890 382 903 l 396 890 l 406 900 l 396 918 l 393 918 q 372 907 381 907 m 297 624 l 294 603 l 304 593 l 304 586 l 287 583 l 277 583 l 269 565 l 269 562 l 277 555 l 280 555 l 297 558 l 300 541 l 304 541 l 304 562 q 311 575 311 562 l 315 579 l 318 579 l 332 575 l 332 579 q 311 593 332 586 l 307 610 l 307 614 l 315 614 l 315 617 q 304 624 304 617 l 297 624 m 376 558 l 366 562 l 366 548 l 376 548 q 401 568 376 562 l 401 575 l 397 575 l 376 558 m 391 534 l 391 527 q 404 537 404 532 l 391 534 m 315 520 l 325 520 l 328 524 l 332 524 l 328 534 l 315 520 m 349 520 l 349 517 q 373 499 349 511 l 373 507 q 363 517 363 507 l 359 520 l 349 520 m 304 489 l 304 486 q 318 472 318 486 l 325 472 q 342 499 325 488 q 304 489 304 496 m 370 489 l 370 486 l 384 486 l 380 489 l 380 492 l 370 489 m 466 889 q 459 876 466 876 l 448 879 l 445 876 l 445 865 q 456 854 456 865 l 459 854 q 476 872 459 872 l 487 872 q 466 889 480 884 m 320 730 l 320 726 l 323 726 q 351 742 325 742 l 351 758 q 320 730 320 745 m 425 810 l 431 810 l 438 817 l 431 817 l 425 810 m 366 734 l 361 718 l 372 718 l 376 734 l 366 734 m 445 768 l 445 762 q 435 755 435 762 l 445 755 l 448 765 l 448 768 l 445 768 m 410 747 l 421 747 l 428 755 l 418 755 l 410 747 m 239 409 l 239 406 l 246 406 q 256 413 246 413 l 256 420 l 239 409 m 243 522 l 243 518 l 250 507 l 250 500 q 236 490 250 490 l 236 487 l 254 487 l 257 504 q 243 522 250 520 m 212 406 l 212 399 l 215 399 l 222 406 l 212 406 m 232 371 l 239 364 l 250 364 l 250 371 l 232 371 m 201 351 l 208 340 l 218 344 l 215 357 l 201 351 m 274 452 l 274 446 l 285 446 l 285 452 l 274 452 z "},":":{"ha":271,"x_min":0,"x_max":221,"o":"m 221 179 l 221 170 q 204 155 214 155 l 211 149 l 221 152 l 221 56 l 214 56 q 208 73 214 73 l 186 83 l 186 79 q 208 69 186 74 l 211 52 l 211 48 l 201 38 l 193 38 l 173 56 l 173 52 l 190 31 l 186 21 l 190 21 q 211 35 211 21 l 221 35 l 221 7 l 214 0 l 193 0 l 183 7 l 176 0 l 152 0 q 145 10 145 0 l 124 10 q 117 0 124 0 l 100 0 l 79 17 l 76 17 l 76 0 l 35 0 l 35 10 l 14 10 l 14 7 l 21 7 l 21 0 l 7 0 l 0 7 l 0 10 l 7 21 l 7 38 l 0 38 l 0 69 l 14 90 q 3 100 14 100 l 0 104 l 0 128 l 7 135 l 21 135 l 31 128 l 41 128 l 38 132 l 21 138 l 14 159 l 7 159 l 7 142 l 0 142 l 0 179 l 221 179 m 83 176 l 83 170 q 73 163 73 170 l 83 163 l 86 173 l 86 176 l 83 176 m 48 155 l 59 155 l 66 163 l 56 163 l 48 155 m 86 90 l 86 86 l 94 86 q 104 94 94 94 l 104 100 l 86 90 m 124 100 l 124 97 l 132 86 l 132 79 q 117 69 132 69 l 117 66 l 135 66 l 138 83 q 124 100 132 99 m 59 86 l 59 79 l 62 79 l 69 86 l 59 86 m 79 52 l 86 45 l 97 45 l 97 52 l 79 52 m 48 31 l 56 21 l 66 24 l 62 38 l 48 31 m 155 31 l 155 24 l 166 24 l 166 31 l 155 31 m 221 695 l 221 686 q 204 671 214 671 l 211 665 l 221 668 l 221 572 l 214 572 q 208 589 214 589 l 186 599 l 186 595 q 208 585 186 590 l 211 568 l 211 564 l 201 554 l 193 554 l 173 572 l 173 568 l 190 547 l 186 537 l 190 537 q 211 551 211 537 l 221 551 l 221 523 l 214 516 l 193 516 l 183 523 l 176 516 l 152 516 q 145 526 145 516 l 124 526 q 117 516 124 516 l 100 516 l 79 533 l 76 533 l 76 516 l 35 516 l 35 526 l 14 526 l 14 523 l 21 523 l 21 516 l 7 516 l 0 523 l 0 526 l 7 537 l 7 554 l 0 554 l 0 585 l 14 606 q 3 616 14 616 l 0 620 l 0 644 l 7 651 l 21 651 l 31 644 l 41 644 l 38 648 l 21 654 l 14 675 l 7 675 l 7 658 l 0 658 l 0 695 l 221 695 m 83 692 l 83 686 q 73 679 73 686 l 83 679 l 86 689 l 86 692 l 83 692 m 48 671 l 59 671 l 66 679 l 56 679 l 48 671 m 86 606 l 86 602 l 94 602 q 104 610 94 610 l 104 616 l 86 606 m 124 616 l 124 613 l 132 602 l 132 595 q 117 585 132 585 l 117 582 l 135 582 l 138 599 q 124 616 132 615 m 59 602 l 59 595 l 62 595 l 69 602 l 59 602 m 79 568 l 86 561 l 97 561 l 97 568 l 79 568 m 48 547 l 56 537 l 66 541 l 62 554 l 48 547 m 155 547 l 155 541 l 166 541 l 166 547 l 155 547 z "},";":{"ha":271,"x_min":0,"x_max":221,"o":"m 221 695 l 221 686 q 204 671 214 671 l 211 665 l 221 668 l 221 572 l 214 572 q 208 589 214 589 l 186 599 l 186 595 q 208 585 186 590 l 211 568 l 211 564 l 201 554 l 193 554 l 173 572 l 173 568 l 190 547 l 186 537 l 190 537 q 211 551 211 537 l 221 551 l 221 523 l 214 516 l 193 516 l 183 523 l 176 516 l 152 516 q 145 526 145 516 l 124 526 q 117 516 124 516 l 100 516 l 79 533 l 76 533 l 76 516 l 35 516 l 35 526 l 14 526 l 14 523 l 21 523 l 21 516 l 7 516 l 0 523 l 0 526 l 7 537 l 7 554 l 0 554 l 0 585 l 14 606 q 3 616 14 616 l 0 620 l 0 644 l 7 651 l 21 651 l 31 644 l 41 644 l 38 648 l 21 654 l 14 675 l 7 675 l 7 658 l 0 658 l 0 695 l 221 695 m 83 692 l 83 686 q 73 679 73 686 l 83 679 l 86 689 l 86 692 l 83 692 m 48 671 l 59 671 l 66 679 l 56 679 l 48 671 m 86 606 l 86 602 l 94 602 q 104 610 94 610 l 104 616 l 86 606 m 124 616 l 124 613 l 132 602 l 132 595 q 117 585 132 585 l 117 582 l 135 582 l 138 599 q 124 616 132 615 m 59 602 l 59 595 l 62 595 l 69 602 l 59 602 m 79 568 l 86 561 l 97 561 l 97 568 l 79 568 m 48 547 l 56 537 l 66 541 l 62 554 l 48 547 m 155 547 l 155 541 l 166 541 l 166 547 l 155 547 m 218 192 q 180 161 218 170 l 176 164 l 176 157 l 180 154 l 176 151 l 176 146 l 189 136 l 210 154 l 218 154 l 218 151 l 214 146 l 214 143 l 218 140 l 214 123 l 214 95 l 218 78 l 214 78 l 218 75 l 218 64 l 214 54 l 218 37 l 218 -22 l 210 -50 l 218 -57 l 218 -60 l 214 -64 l 218 -67 l 218 -205 l 210 -212 l 206 -212 l 206 -208 l 210 -191 l 206 -188 l 202 -188 l 193 -216 l 206 -219 l 206 -226 l 130 -226 q 152 -188 134 -201 l 152 -167 l 160 -167 l 160 -146 q 176 -132 176 -146 l 172 -132 q 134 -150 134 -140 q 122 -160 134 -160 l 118 -163 l 118 -167 q 134 -178 134 -167 l 142 -188 l 126 -208 l 126 -216 l 130 -219 l 130 -222 l 101 -226 l 46 -226 l 42 -222 l 38 -226 l 34 -226 l 5 -222 l 9 -198 l 0 -191 l 0 -184 l 5 -184 l 0 -160 l 0 -119 l 5 -115 l 0 -112 l 0 -87 l 5 -84 l 0 -81 l 0 -60 l 5 -46 l 0 -33 l 0 -8 l 9 -1 l 0 26 l 0 116 q 26 130 0 123 l 26 133 l 13 140 l 18 151 l 13 151 q 0 168 0 151 l 0 188 l 9 188 l 9 171 l 13 171 l 18 174 l 30 171 l 30 168 l 26 164 l 26 161 l 30 157 l 50 157 q 59 168 59 157 l 55 171 l 55 174 l 59 184 l 55 181 l 50 184 l 46 184 l 34 181 l 13 188 l 13 195 l 64 195 l 68 192 l 72 195 l 160 195 l 160 192 q 126 181 160 184 l 126 178 q 160 171 152 178 l 164 171 l 189 192 l 202 192 l 206 188 l 210 192 l 218 192 m 202 81 l 197 81 l 202 71 l 210 71 l 210 75 l 202 81 m 206 67 l 197 67 l 197 64 l 202 54 l 210 54 l 210 57 l 206 67 m 193 -71 q 176 -95 193 -81 q 189 -105 189 -95 q 168 -129 182 -105 l 176 -129 q 202 -98 176 -113 l 202 -77 l 193 -71 m 176 71 l 164 71 l 164 64 l 168 64 l 176 71 m 168 136 q 134 119 145 136 l 164 102 l 168 102 l 168 105 q 160 119 160 105 l 152 119 l 152 123 l 160 123 l 168 130 l 168 136 m 152 -29 l 142 -29 l 142 -46 l 152 -46 l 146 -43 l 146 -39 l 152 -29 m 142 81 l 138 81 l 126 78 l 126 75 l 134 67 l 142 81 m 134 -98 l 118 -102 l 118 -109 l 126 -115 l 134 -109 l 134 -98 m 126 154 l 118 154 l 118 146 q 110 136 110 146 l 80 136 l 80 130 l 101 126 q 126 154 126 146 m 110 -102 l 92 -102 l 92 -105 l 110 -105 l 110 -102 m 101 -167 l 80 -170 l 92 -181 l 101 -174 l 101 -167 m 92 95 l 80 88 l 72 105 q 59 92 65 105 q 72 75 66 92 l 68 71 l 84 75 l 80 78 l 80 85 l 92 85 l 92 95 m 84 -50 l 68 -50 l 64 -60 l 88 -67 l 84 -50 m 68 157 l 64 157 l 64 154 l 68 136 l 76 136 l 76 140 l 68 157 m 72 -91 l 64 -91 l 34 -102 l 34 -105 l 59 -105 q 72 -98 59 -98 l 72 -91 m 30 -1 l 18 -1 l 18 -5 l 22 -16 l 26 -16 l 30 -1 m 30 -98 q 18 -91 18 -98 l 9 -91 l 18 -105 l 30 -105 l 30 -98 z "},"<":{"ha":760,"x_min":-1,"x_max":720,"o":"m 545 680 l 547 688 l 547 690 l 539 686 l 545 680 m 593 698 l 598 693 l 601 693 l 601 698 l 598 701 l 593 701 l 593 698 m 688 718 l 688 698 l 696 703 l 701 703 l 713 701 l 713 703 l 711 705 l 699 736 l 696 736 l 688 718 m 504 663 l 510 663 l 510 668 l 504 673 l 504 663 m 431 585 l 436 581 l 438 581 l 441 583 l 436 589 l 431 589 l 431 585 m 123 496 l 121 498 l 121 496 l 0 496 l 0 549 l 720 812 l 720 656 l 282 496 l 123 496 m 210 593 l 221 593 l 216 597 l 210 597 l 210 593 m 226 577 l 233 574 l 236 574 l 236 583 l 226 583 l 226 577 m 106 530 q 94 522 94 526 q 117 509 107 522 l 126 509 l 109 534 l 106 534 l 106 530 m 256 587 q 262 579 262 587 l 264 579 l 264 585 l 267 585 l 279 583 q 290 567 285 567 l 293 567 l 290 577 l 290 579 l 293 583 q 302 587 302 583 l 318 587 l 318 590 l 305 593 l 308 605 l 308 608 l 302 613 l 300 613 l 287 608 l 287 600 l 285 587 l 279 587 l 272 595 l 256 593 l 256 587 m 180 509 l 180 506 l 185 506 q 200 524 190 524 l 200 532 l 190 532 l 193 524 l 180 509 m 208 503 q 216 513 212 503 l 211 513 l 208 503 m 323 570 l 331 567 l 331 570 l 334 572 l 334 579 l 323 570 m 221 536 l 223 534 q 231 527 231 534 l 237 527 q 223 544 227 544 l 221 544 l 221 536 m 349 559 q 369 572 357 572 l 369 577 q 359 587 359 577 l 357 587 q 349 559 351 587 m 241 522 l 244 522 l 246 519 l 246 529 l 244 529 l 241 522 m 157 552 l 169 552 q 181 573 169 572 l 181 575 l 178 575 q 157 552 167 575 m 62 525 l 75 527 l 75 535 l 62 532 l 62 525 m 408 623 l 413 623 q 418 630 413 630 l 418 635 l 416 635 l 408 623 m 345 622 l 358 625 l 358 637 l 355 637 q 348 627 355 627 l 343 627 l 335 633 l 332 633 q 345 622 334 627 m 418 648 l 423 653 l 423 656 l 418 656 l 418 648 m 444 627 l 449 627 l 449 635 l 444 641 l 444 627 m 454 653 l 464 651 l 467 659 l 459 664 l 454 653 m 384 602 l 389 602 l 389 610 l 384 610 l 384 602 m 205 431 l 197 436 l 197 434 l 200 426 l 205 431 m 151 446 l 146 446 l 144 444 l 144 439 l 146 439 l 151 444 l 151 446 m 39 466 l 33 451 l 31 449 l 31 446 l 43 449 l 49 449 l 56 444 l 56 464 l 56 466 l 276 466 l 719 304 l 719 149 l -1 411 l -1 466 l 39 466 m 241 419 l 235 414 l 235 408 l 241 408 l 241 419 m 314 334 l 309 334 l 304 329 l 307 326 l 309 326 l 314 331 l 314 334 m 602 273 l 597 267 q 612 242 604 245 l 614 244 q 602 273 602 257 m 534 343 l 529 343 l 524 338 l 534 338 l 534 343 m 519 328 l 509 328 l 509 320 l 511 320 l 519 323 l 519 328 m 526 290 l 524 290 l 506 264 l 516 264 q 539 277 525 277 q 526 285 539 281 l 526 290 m 698 283 l 695 283 q 685 267 695 275 l 685 265 l 692 258 l 706 265 l 706 267 q 698 283 698 276 m 488 338 l 473 340 l 465 333 l 460 333 l 458 346 l 458 353 l 444 359 l 442 359 l 437 353 l 437 351 l 439 338 l 427 336 l 427 333 l 442 333 q 452 328 442 328 l 455 326 l 455 323 l 452 313 l 455 313 q 465 328 460 313 l 477 331 l 481 331 l 481 326 l 483 326 q 488 333 483 333 l 488 338 m 439 279 l 442 287 l 432 287 l 432 279 q 447 261 442 279 l 452 261 l 452 264 l 439 279 m 421 269 l 416 269 q 424 259 420 259 l 421 269 m 411 326 l 411 317 l 414 315 l 414 313 l 421 315 l 411 326 m 411 300 l 409 300 q 395 282 405 300 l 401 282 q 409 290 401 290 l 411 292 l 411 300 m 388 333 l 386 333 q 376 323 386 323 l 376 317 q 395 305 387 317 q 388 333 393 333 m 388 285 l 386 285 l 386 274 l 388 277 l 391 277 l 388 285 m 684 213 q 675 218 675 213 l 677 227 l 675 229 l 667 229 q 659 220 667 220 l 659 218 q 672 205 672 218 l 672 197 q 684 213 681 203 m 566 321 l 564 321 l 564 319 q 576 298 576 317 l 587 298 q 566 321 578 321 m 626 244 l 626 239 l 631 234 l 631 239 l 626 244 m 570 288 l 557 290 l 557 283 l 570 280 l 570 288 m 595 229 l 590 229 q 585 236 590 236 l 585 229 l 593 227 l 595 227 l 595 229 m 580 254 l 580 246 l 585 241 l 585 249 l 580 254 m 329 381 l 326 381 l 326 376 q 332 368 332 376 l 337 368 l 329 381 m 412 378 l 410 378 l 401 373 l 397 373 q 389 383 389 373 l 387 383 l 387 370 l 399 368 q 412 378 411 373 m 326 401 l 321 401 l 321 399 l 326 394 l 326 401 m 300 387 l 296 381 l 296 374 l 300 374 l 300 387 m 286 410 l 278 404 l 281 397 l 291 399 l 286 410 m 361 355 l 356 355 l 356 347 l 361 347 l 361 355 z "},"=":{"ha":506,"x_min":0,"x_max":456,"o":"m 7 725 l 90 725 l 97 718 l 90 711 l 90 701 l 94 701 q 104 725 104 701 l 162 725 l 165 722 l 170 725 l 214 725 q 224 708 216 708 l 228 711 l 231 711 l 228 715 l 228 725 l 314 725 l 314 715 l 317 718 l 321 715 l 328 715 l 328 718 l 324 722 l 324 725 l 448 725 l 456 718 l 456 553 l 448 546 l 359 546 l 359 556 q 352 546 352 556 l 155 546 l 145 553 l 135 546 l 7 546 l 0 553 l 0 580 l 3 584 l 0 587 l 0 694 l 7 694 l 7 704 l 0 704 l 0 718 l 7 725 m 31 680 l 41 673 l 45 684 l 41 687 l 38 687 l 31 680 m 317 677 q 297 663 317 663 l 294 667 l 290 652 l 311 652 l 321 673 l 321 677 l 317 677 m 149 667 l 145 652 l 152 652 l 159 659 l 149 667 m 73 652 l 73 639 l 79 646 l 79 652 l 73 652 m 276 635 l 286 635 l 286 646 l 276 635 m 28 629 l 24 625 l 24 621 l 28 618 l 31 618 l 35 621 l 45 608 l 45 587 l 49 587 l 59 591 l 59 594 q 28 629 50 616 m 142 591 l 142 584 l 149 584 l 155 591 l 142 591 m 38 584 l 38 576 l 45 576 l 52 584 l 38 584 m 224 584 l 218 563 l 221 563 l 231 573 l 231 584 l 224 584 m 62 570 l 62 556 l 66 556 l 69 566 l 66 570 l 62 570 m 273 563 l 273 556 l 279 549 l 279 563 l 273 563 m 7 475 l 90 475 l 97 469 l 90 462 l 90 451 l 94 451 q 104 475 104 451 l 162 475 l 165 472 l 170 475 l 214 475 q 224 458 216 458 l 228 462 l 231 462 l 228 465 l 228 475 l 314 475 l 314 465 l 317 469 l 321 465 l 328 465 l 328 469 l 324 472 l 324 475 l 448 475 l 456 469 l 456 303 l 448 296 l 359 296 l 359 307 q 352 296 352 307 l 155 296 l 145 303 l 135 296 l 7 296 l 0 303 l 0 330 l 3 334 l 0 338 l 0 444 l 7 444 l 7 454 l 0 454 l 0 469 l 7 475 m 31 431 l 41 424 l 45 434 l 41 437 l 38 437 l 31 431 m 317 427 q 297 413 317 413 l 294 417 l 290 403 l 311 403 l 321 424 l 321 427 l 317 427 m 149 417 l 145 403 l 152 403 l 159 410 l 149 417 m 73 403 l 73 389 l 79 396 l 79 403 l 73 403 m 276 386 l 286 386 l 286 396 l 276 386 m 28 379 l 24 376 l 24 372 l 28 368 l 31 368 l 35 372 l 45 358 l 45 338 l 49 338 l 59 341 l 59 345 q 28 379 50 367 m 142 341 l 142 334 l 149 334 l 155 341 l 142 341 m 38 334 l 38 327 l 45 327 l 52 334 l 38 334 m 224 334 l 218 313 l 221 313 l 231 323 l 231 334 l 224 334 m 62 320 l 62 307 l 66 307 l 69 317 l 66 320 l 62 320 m 273 313 l 273 307 l 279 300 l 279 313 l 273 313 z "},">":{"ha":766,"x_min":-1,"x_max":720,"o":"m 180 686 l 172 690 l 172 688 l 175 680 l 180 686 m 126 701 l 121 701 l 119 698 l 119 693 l 121 693 l 126 698 l 126 701 m 24 736 l 21 736 l 8 705 l 6 703 l 6 701 l 18 703 l 24 703 l 31 698 l 31 718 l 24 736 m 216 673 l 210 668 l 210 663 l 216 663 l 216 673 m 289 589 l 283 589 l 279 583 l 281 581 l 283 581 l 289 585 l 289 589 m 437 496 l -1 656 l -1 812 l 720 549 l 720 496 l 599 496 l 599 498 l 597 496 l 437 496 m 509 597 l 504 597 l 498 593 l 509 593 l 509 597 m 494 583 l 484 583 l 484 574 l 486 574 l 494 577 l 494 583 m 614 534 l 611 534 l 593 509 l 603 509 q 626 522 612 522 q 614 530 626 526 l 614 534 m 463 593 l 448 595 l 440 587 l 435 587 l 433 600 l 433 608 l 419 613 l 417 613 l 412 608 l 412 605 l 414 593 l 401 590 l 401 587 l 417 587 q 427 583 417 583 l 430 579 l 430 577 l 427 567 l 430 567 q 440 583 435 567 l 452 585 l 456 585 l 456 579 l 458 579 q 463 587 458 587 l 463 593 m 527 524 l 530 532 l 519 532 l 519 524 q 534 506 530 524 l 539 506 l 539 509 l 527 524 m 509 513 l 504 513 q 511 503 508 503 l 509 513 m 386 579 l 386 572 l 389 570 l 389 567 l 396 570 l 386 579 m 498 544 l 496 544 q 483 527 492 544 l 489 527 q 496 534 489 534 l 498 536 l 498 544 m 370 559 q 363 587 368 587 l 361 587 q 351 577 361 577 l 351 572 q 370 559 362 572 m 475 529 l 473 529 l 473 519 l 475 522 l 478 522 l 475 529 m 562 552 q 541 575 553 575 l 538 575 l 538 573 q 551 552 551 572 l 562 552 m 657 532 l 645 535 l 645 527 l 657 525 l 657 532 m 304 635 l 301 635 l 301 630 q 307 623 307 630 l 312 623 l 304 635 m 374 622 q 387 633 386 627 l 385 633 l 376 627 l 372 627 q 364 637 364 627 l 361 637 l 361 625 l 374 622 m 301 656 l 296 656 l 296 653 l 301 648 l 301 656 m 275 641 l 271 635 l 271 627 l 275 627 l 275 641 m 260 664 l 253 659 l 256 651 l 266 653 l 260 664 m 336 610 l 331 610 l 331 602 l 336 602 l 336 610 m 519 426 l 522 434 l 522 436 l 514 431 l 519 426 m 568 444 l 573 439 l 576 439 l 576 444 l 573 446 l 568 446 l 568 444 m 720 466 l 720 411 l 1 149 l 1 304 l 444 466 l 664 466 l 663 464 l 663 444 l 671 449 l 676 449 l 688 446 l 688 449 l 686 451 l 680 466 l 720 466 m 479 408 l 485 408 l 485 414 l 479 419 l 479 408 m 406 331 l 411 326 l 413 326 l 416 329 l 411 334 l 406 334 l 406 331 m 117 273 q 105 244 117 257 l 107 242 q 123 267 115 245 l 117 273 m 185 338 l 196 338 l 191 343 l 185 343 l 185 338 m 201 323 l 208 320 l 211 320 l 211 328 l 201 328 l 201 323 m 193 285 q 180 277 180 281 q 203 264 195 277 l 214 264 l 196 290 l 193 290 l 193 285 m 22 283 q 14 267 22 276 l 14 265 l 27 258 l 35 265 l 35 267 q 24 283 24 275 l 22 283 m 231 333 q 237 326 237 333 l 239 326 l 239 331 l 242 331 l 254 328 q 264 313 260 313 l 268 313 l 264 323 l 264 326 l 268 328 q 277 333 277 328 l 293 333 l 293 336 l 280 338 l 283 351 l 283 353 l 277 359 l 275 359 l 262 353 l 262 346 l 260 333 l 254 333 l 247 340 l 231 338 l 231 333 m 268 264 l 268 261 l 273 261 q 288 279 277 279 l 288 287 l 277 287 l 280 279 l 268 264 m 296 259 q 303 269 299 259 l 298 269 l 296 259 m 298 315 l 306 313 l 306 315 l 309 317 l 309 326 l 298 315 m 309 292 l 311 290 q 318 282 318 290 l 324 282 q 311 300 315 300 l 309 300 l 309 292 m 332 333 q 324 305 326 333 q 344 317 332 317 l 344 323 q 334 333 334 323 l 332 333 m 329 277 l 332 277 l 334 274 l 334 285 l 332 285 l 329 277 m 35 213 q 47 197 39 203 l 47 205 q 60 218 47 218 l 60 220 q 53 229 53 220 l 45 229 l 43 227 l 45 218 q 35 213 45 213 m 153 321 q 132 298 142 321 l 144 298 q 156 319 144 317 l 156 321 l 153 321 m 89 239 l 89 234 l 94 239 l 94 244 l 89 239 m 150 280 l 162 283 l 162 290 l 150 288 l 150 280 m 124 227 l 127 227 l 134 229 l 134 236 q 130 229 130 236 l 124 229 l 124 227 m 134 249 l 134 241 l 140 246 l 140 254 l 134 249 m 382 368 l 388 368 q 393 376 388 376 l 393 381 l 391 381 l 382 368 m 307 378 q 320 368 309 373 l 333 370 l 333 383 l 330 383 q 323 373 330 373 l 318 373 l 310 378 l 307 378 m 393 394 l 398 399 l 398 401 l 393 401 l 393 394 m 419 374 l 424 374 l 424 381 l 419 387 l 419 374 m 429 399 l 439 397 l 441 404 l 434 410 l 429 399 m 359 347 l 363 347 l 363 355 l 359 355 l 359 347 z "},"?":{"ha":560,"x_min":0,"x_max":517,"o":"m 267 587 l 260 576 l 263 576 l 273 581 l 267 587 m 304 556 l 304 549 l 308 546 l 315 546 l 315 549 l 308 556 l 304 556 m 304 500 l 304 497 l 346 480 l 349 477 l 353 477 l 349 494 l 349 500 l 356 511 l 329 511 l 304 500 m 356 477 l 363 469 l 370 469 l 370 477 l 356 477 m 214 469 l 214 463 l 222 456 l 225 459 l 225 463 l 218 469 l 214 469 m 279 916 l 273 923 l 269 923 q 279 916 269 916 m 359 216 q 376 218 366 218 l 376 232 q 347 216 354 225 l 189 216 l 189 274 l 196 281 l 199 281 l 220 274 l 220 270 l 237 274 l 265 274 q 252 281 265 281 l 252 288 l 227 288 l 220 294 l 224 309 q 210 347 210 309 l 206 342 l 196 342 l 189 350 l 189 377 l 199 377 l 196 381 l 196 385 l 199 395 l 189 412 l 189 425 l 187 425 l 186 593 q 238 609 188 609 q 300 705 300 635 l 303 730 l 296 730 l 296 758 l 290 758 l 293 754 l 293 750 l 290 747 l 286 747 q 186 791 255 791 l 7 791 l 0 799 l 0 968 l 7 975 l 207 975 q 503 809 441 975 q 517 733 517 776 l 507 730 l 507 726 q 517 716 517 726 q 500 654 512 654 l 496 675 l 479 675 l 476 671 l 473 671 l 465 678 l 465 685 l 469 688 l 469 692 l 455 705 l 452 702 l 445 702 l 441 716 l 435 716 l 438 713 l 435 709 l 435 702 l 438 699 l 438 695 l 435 692 q 462 654 452 682 l 462 647 l 458 623 l 441 626 l 438 626 l 452 609 l 428 609 l 438 570 l 427 567 l 427 557 l 435 547 l 414 516 q 410 518 412 517 l 410 443 l 393 443 l 376 454 q 362 439 376 439 q 355 419 362 419 l 338 419 l 328 426 l 321 415 l 324 412 l 345 412 l 345 405 q 372 388 361 405 l 379 398 q 369 405 369 398 l 369 426 l 390 426 l 397 419 l 397 401 q 386 395 386 401 q 410 377 400 395 l 410 336 l 386 309 l 404 309 l 404 322 l 410 322 l 410 216 l 359 216 m 224 256 q 217 243 224 243 l 206 246 l 203 243 l 203 232 q 214 222 214 232 l 217 222 q 234 239 217 239 l 245 239 q 224 256 238 252 m 338 256 l 338 253 l 352 253 l 348 256 l 348 260 l 338 256 m 272 256 l 272 253 q 286 239 286 253 l 293 239 q 310 267 293 255 q 272 256 272 263 m 317 288 l 317 284 q 341 267 317 279 l 341 274 q 331 284 331 274 l 328 288 l 317 288 m 283 288 l 293 288 l 296 291 l 300 291 l 296 301 l 283 288 m 359 301 l 359 294 q 372 304 372 300 l 359 301 m 345 326 l 334 329 l 334 315 l 345 315 q 369 336 345 329 l 369 342 l 366 342 l 345 326 m 382 370 l 382 363 l 404 363 l 404 374 l 382 370 m 265 391 l 262 370 l 272 360 l 272 353 l 255 350 l 245 350 l 237 332 l 237 329 l 245 322 l 248 322 l 265 326 l 269 309 l 272 309 l 272 329 q 279 342 279 329 l 283 347 l 286 347 l 300 342 l 300 347 q 279 360 300 353 l 275 377 l 275 381 l 283 381 l 283 385 q 272 391 272 385 l 265 391 m 206 381 l 206 377 q 227 363 217 377 l 231 363 l 241 374 l 231 391 l 227 391 q 206 381 216 381 m 237 497 l 237 494 l 271 469 l 271 483 q 254 514 254 495 q 243 497 248 514 l 237 497 m 279 433 l 279 419 l 290 419 l 290 422 l 286 433 l 279 433 m 397 492 l 390 474 l 390 471 l 404 474 l 400 492 l 397 492 m 324 606 l 324 599 l 331 592 l 359 592 l 359 599 l 376 599 l 387 592 l 393 592 q 345 612 393 604 l 338 612 l 324 606 m 269 619 l 269 612 l 276 606 l 279 606 l 276 619 l 269 619 m 390 675 l 393 671 l 393 667 l 390 664 l 390 661 l 397 661 l 404 682 l 390 675 m 349 688 l 352 675 l 355 675 q 366 688 360 675 l 349 688 m 307 688 l 307 682 l 321 688 l 321 692 l 317 692 l 307 688 m 469 726 l 469 716 l 476 716 l 476 733 l 469 726 m 431 736 l 435 720 l 438 720 l 438 736 l 431 736 m 324 761 l 321 733 l 324 730 l 338 730 l 345 758 l 341 758 l 324 761 m 435 768 l 435 764 l 441 758 l 441 761 l 435 768 m 379 768 l 387 758 l 376 726 l 379 726 l 420 736 q 379 768 405 768 m 311 778 q 321 764 315 764 l 324 768 l 324 778 l 317 778 l 314 781 l 311 778 m 473 799 l 473 791 l 490 791 l 490 799 l 473 799 m 390 806 l 390 802 q 410 778 399 802 l 414 774 l 417 774 l 420 778 l 420 781 q 393 806 413 802 l 390 806 m 207 812 l 214 806 l 220 806 l 217 816 l 207 812 m 293 819 l 293 816 l 303 785 l 307 785 q 328 802 307 799 l 324 812 l 307 812 l 296 819 l 293 819 m 345 829 l 345 812 l 355 812 l 355 816 q 345 829 350 829 m 283 850 l 283 844 l 300 847 l 311 847 l 311 854 l 300 854 l 283 850 m 317 888 l 324 875 l 328 875 l 328 888 l 317 888 m 197 909 l 193 905 l 193 902 l 207 888 q 235 895 217 895 q 224 902 235 902 l 207 899 l 197 909 m 17 920 l 17 916 l 24 909 l 35 912 l 35 916 l 21 920 l 17 920 m 186 937 l 186 923 l 193 923 l 193 930 l 186 937 m 200 943 l 200 937 l 214 940 l 214 943 l 200 943 m 76 971 l 76 954 l 93 958 l 76 971 m 258 916 l 258 909 l 269 909 q 258 916 269 916 m 473 657 l 473 647 l 465 647 l 465 650 l 473 657 m 193 332 q 210 312 210 330 q 196 294 196 304 l 189 294 l 189 326 l 193 329 l 193 332 m 410 436 l 410 401 l 404 401 l 404 408 l 400 433 l 404 436 l 410 436 m 223 575 l 228 575 l 228 578 q 220 592 220 578 l 207 595 l 203 592 l 203 585 q 223 575 220 581 m 224 427 q 214 426 218 427 l 224 426 l 224 427 m 340 458 q 324 450 332 454 l 328 446 q 362 467 358 456 l 361 469 q 345 460 353 465 q 340 458 343 459 m 473 623 l 486 612 l 462 585 l 458 585 l 458 595 q 473 623 473 612 m 479 650 l 483 650 l 500 647 q 486 623 500 629 l 479 623 l 479 626 l 483 629 l 479 633 l 479 650 m 413 179 l 413 170 q 396 155 406 155 l 403 149 l 413 152 l 413 56 l 406 56 q 399 73 406 73 l 378 83 l 378 79 q 399 69 378 74 l 403 52 l 403 48 l 393 38 l 385 38 l 365 56 l 365 52 l 382 31 l 378 21 l 382 21 q 403 35 403 21 l 413 35 l 413 7 l 406 0 l 385 0 l 375 7 l 368 0 l 344 0 q 337 10 337 0 l 316 10 q 309 0 316 0 l 292 0 l 271 17 l 268 17 l 268 0 l 227 0 l 227 10 l 205 10 l 205 7 l 213 7 l 213 0 l 199 0 l 192 7 l 192 10 l 199 21 l 199 38 l 192 38 l 192 69 l 205 90 q 195 100 205 100 l 192 104 l 192 128 l 199 135 l 213 135 l 223 128 l 233 128 l 230 132 l 213 138 l 205 159 l 199 159 l 199 142 l 192 142 l 192 179 l 413 179 m 275 176 l 275 170 q 264 163 264 170 l 275 163 l 278 173 l 278 176 l 275 176 m 240 155 l 251 155 l 258 163 l 248 163 l 240 155 m 278 90 l 278 86 l 286 86 q 296 94 286 94 l 296 100 l 278 90 m 316 100 l 316 97 l 323 86 l 323 79 q 309 69 323 69 l 309 66 l 327 66 l 330 83 q 316 100 323 99 m 251 86 l 251 79 l 254 79 l 261 86 l 251 86 m 271 52 l 278 45 l 289 45 l 289 52 l 271 52 m 240 31 l 248 21 l 258 24 l 254 38 l 240 31 m 347 31 l 347 24 l 358 24 l 358 31 l 347 31 z "},"@":{"ha":1233,"x_min":1,"x_max":1209,"o":"m 367 256 q 374 251 367 251 l 374 235 l 379 241 l 379 262 q 393 271 379 271 l 393 273 l 391 280 l 386 280 q 372 256 378 280 l 367 256 m 330 53 l 330 46 q 340 53 340 50 l 330 53 m 379 66 l 379 63 l 391 58 q 399 63 391 63 l 399 66 l 393 71 l 384 71 l 379 66 m 411 92 l 406 73 l 411 58 l 393 51 l 397 43 l 401 43 q 411 53 401 49 l 423 53 l 423 48 q 433 33 430 48 l 441 33 l 436 51 q 443 58 443 51 l 438 73 l 438 75 l 443 75 l 443 83 l 438 83 l 433 78 l 433 75 l 436 53 l 414 71 l 414 80 l 418 87 l 418 90 l 411 92 m 423 113 l 423 110 l 426 102 l 431 102 l 431 113 l 423 113 m 468 117 q 460 113 468 113 q 470 96 470 104 l 473 96 l 477 100 l 477 102 q 468 117 477 115 m 361 130 q 352 122 352 130 l 361 122 l 361 127 l 369 130 l 367 137 l 364 135 l 361 135 l 361 130 m 347 142 q 340 137 347 137 l 345 132 l 347 132 l 357 137 l 357 142 l 347 142 m 379 182 l 379 172 l 386 172 q 393 176 386 176 l 393 182 l 381 179 l 379 182 m 416 191 l 416 186 l 433 186 l 433 189 l 426 191 l 426 189 l 423 191 l 416 191 m 426 216 l 423 214 l 423 212 l 431 206 l 433 206 l 433 208 l 426 216 m 393 216 l 393 212 l 404 212 l 404 216 l 393 216 m 448 231 l 448 221 l 450 224 l 453 224 l 450 231 l 448 231 m 364 231 l 364 229 l 376 224 l 374 231 l 364 231 m 414 260 l 414 258 l 418 262 l 418 265 l 414 260 m 446 280 q 458 271 452 271 l 458 256 l 463 256 l 468 265 q 453 280 463 275 l 446 280 m 473 315 l 470 312 l 470 310 l 477 310 l 473 315 m 401 345 l 401 342 l 406 337 l 408 340 l 408 345 l 401 345 m 429 379 q 418 364 429 364 l 420 362 l 420 359 q 414 349 414 359 l 423 349 q 433 369 423 369 l 433 379 l 429 379 m 431 423 l 431 418 l 443 421 l 443 423 l 431 423 m 477 503 l 477 497 l 488 495 l 488 497 l 480 503 l 477 503 m 771 21 q 724 169 730 169 l 532 169 l 569 298 l 688 298 l 688 300 q 616 557 638 456 l 613 557 q 515 199 613 528 q 477 85 487 100 l 473 85 l 473 80 l 477 73 l 463 21 l 460 21 l 453 24 l 441 21 l 429 21 l 420 24 l 408 21 l 376 21 l 361 24 l 354 21 l 354 24 l 352 21 l 322 21 l 322 53 l 325 68 l 322 75 l 325 73 l 327 73 l 330 75 l 330 78 l 322 78 l 322 110 l 327 115 l 332 115 l 340 113 l 340 115 l 337 122 l 332 122 l 330 119 l 322 122 l 325 142 l 327 142 l 347 206 l 354 201 l 357 203 l 357 206 l 349 212 l 364 256 l 367 256 l 367 258 l 381 305 l 391 305 l 391 300 l 399 300 l 399 307 l 393 315 l 399 330 l 397 332 l 393 332 q 389 315 393 315 l 386 315 l 441 478 l 443 478 l 443 473 l 448 473 l 443 480 q 453 500 446 500 l 450 503 l 450 505 l 525 718 l 705 718 l 925 95 q 1037 184 1000 112 q 1093 443 1093 290 q 935 809 1079 670 q 610 937 802 937 q 343 843 471 937 q 161 602 216 750 q 115 357 115 481 q 203 11 115 145 q 410 -186 291 -124 q 626 -249 529 -249 q 1016 -108 812 -249 l 1016 -159 q 629 -283 838 -283 q 316 -200 466 -283 q 83 32 166 -117 q 1 345 1 180 q 85 660 1 509 q 319 891 169 810 q 629 972 469 972 q 1042 817 874 972 q 1209 433 1209 661 q 1090 135 1209 250 q 950 39 1013 59 q 771 21 887 18 z "},"A":{"ha":904,"x_min":0,"x_max":878,"o":"m 534 972 l 878 0 l 627 0 q 562 207 570 207 l 293 207 l 345 387 l 511 387 l 511 390 q 410 748 441 608 l 407 748 q 269 248 407 707 q 217 90 230 111 l 210 90 l 210 83 l 217 73 l 197 0 l 193 0 l 183 3 l 165 0 l 149 0 l 138 3 l 121 0 l 76 0 l 55 3 l 45 0 l 45 3 l 41 0 l 0 0 l 0 45 l 3 66 l 0 76 l 3 73 l 7 73 l 10 76 l 10 79 l 0 79 l 0 124 l 7 131 l 14 131 l 24 127 l 24 131 l 21 141 l 14 141 l 10 138 l 0 141 l 3 169 l 7 169 l 35 258 l 45 252 l 48 255 l 48 258 l 38 266 l 58 328 l 62 328 q 73 321 62 321 l 73 300 l 79 307 l 79 338 q 100 349 79 349 l 100 352 l 96 362 l 90 362 q 69 328 78 362 l 62 328 l 62 331 l 83 397 l 96 397 l 96 390 l 107 390 l 107 400 l 100 410 l 107 431 l 104 435 l 100 435 q 93 410 100 410 l 90 410 l 165 638 l 169 638 l 169 631 l 176 631 l 169 642 q 183 669 173 669 l 179 673 l 179 676 l 283 972 l 534 972 m 217 673 l 217 665 l 231 662 l 231 665 l 220 673 l 217 673 m 152 562 l 152 555 l 169 559 l 169 562 l 152 562 m 149 500 q 134 479 149 479 l 138 476 l 138 473 q 127 458 127 473 l 141 458 q 155 486 141 486 l 155 500 l 149 500 m 111 452 l 111 448 l 117 441 l 121 445 l 121 452 l 111 452 m 210 410 l 207 407 l 207 404 l 217 404 l 210 410 m 172 362 q 190 349 182 349 l 190 328 l 197 328 l 203 341 q 183 362 197 355 l 172 362 m 127 334 l 127 331 l 134 338 l 134 341 l 127 334 m 58 293 l 58 290 l 76 283 l 73 293 l 58 293 m 176 293 l 176 279 l 179 283 l 183 283 l 179 293 l 176 293 m 100 273 l 100 266 l 114 266 l 114 273 l 100 273 m 145 273 l 141 269 l 141 266 l 152 258 l 155 258 l 155 262 l 145 273 m 131 238 l 131 231 l 155 231 l 155 235 l 145 238 l 145 235 l 141 238 l 131 238 m 79 224 l 79 210 l 90 210 q 100 217 90 217 l 100 224 l 83 220 l 79 224 m 35 169 q 24 162 35 162 l 31 155 l 35 155 l 48 162 l 48 169 l 35 169 m 55 152 q 41 141 41 152 l 55 141 l 55 149 l 66 152 l 62 162 l 58 159 l 55 159 l 55 152 m 203 134 q 193 127 203 127 q 207 104 207 115 l 210 104 l 217 111 l 217 114 q 203 134 217 131 m 141 127 l 141 124 l 145 114 l 152 114 l 152 127 l 141 127 m 124 100 l 117 73 l 124 52 l 100 41 l 104 31 l 111 31 q 124 45 111 39 l 141 45 l 141 38 q 155 17 151 38 l 165 17 l 159 41 q 169 52 169 41 l 162 73 l 162 76 l 169 76 l 169 86 l 162 86 l 155 79 l 155 76 l 159 45 l 127 69 l 127 83 l 134 93 l 134 96 l 124 100 m 79 62 l 79 58 l 96 52 q 107 58 96 58 l 107 62 l 100 69 l 86 69 l 79 62 m 10 45 l 10 35 q 24 45 24 39 l 10 45 z "},"B":{"ha":843,"x_min":-1,"x_max":800,"o":"m 262 972 l 462 972 q 758 807 696 972 q 772 731 772 774 l 762 728 l 762 724 q 772 714 772 724 q 755 652 767 652 l 751 673 l 734 673 l 731 669 l 728 669 l 720 676 l 720 683 l 724 686 l 724 690 l 710 703 l 707 700 l 700 700 l 696 714 l 690 714 l 693 711 l 690 707 l 690 700 l 693 696 l 693 693 l 690 690 q 717 652 707 680 l 717 645 l 713 621 l 696 624 l 693 624 l 707 607 l 683 607 l 686 572 l 675 569 l 675 559 l 683 549 l 652 531 q 634 549 634 531 l 607 549 l 607 538 q 662 511 624 538 q 679 503 662 503 q 703 473 703 491 q 783 376 745 473 l 779 372 q 796 321 792 372 q 786 314 786 321 q 800 290 800 308 l 796 290 l 800 286 q 776 203 794 203 l 783 190 l 776 176 l 751 179 l 748 179 l 738 172 q 720 183 720 177 l 720 186 l 724 190 l 724 193 l 720 193 l 703 186 l 703 179 q 728 165 703 170 l 728 155 l 717 145 l 700 145 l 693 138 l 693 131 q 734 104 705 131 q 645 41 680 41 q 593 17 645 36 q 572 38 585 17 l 562 35 l 562 38 l 558 48 l 562 58 l 545 58 l 534 66 l 534 62 q 558 7 557 35 l 500 3 l 496 3 q 490 24 490 3 q 479 41 479 24 l 475 41 l 475 21 q 455 14 455 18 l 458 3 l 455 0 l 262 0 l 255 7 l 255 176 l 262 183 l 400 183 l 414 172 l 417 172 l 414 176 l 414 179 l 434 186 l 445 186 q 452 176 445 176 l 458 176 q 483 190 458 190 l 534 210 l 538 186 l 538 176 l 545 176 q 569 155 545 167 l 589 155 l 589 169 q 579 176 579 169 l 579 186 l 583 203 l 589 203 q 596 190 596 203 l 600 190 l 604 207 l 566 228 l 558 235 l 558 245 q 572 279 558 258 l 572 321 l 576 324 l 555 376 l 569 369 l 572 372 l 572 382 l 548 382 l 534 397 l 538 400 l 538 404 l 534 404 l 524 400 q 407 424 509 424 l 262 424 l 255 431 l 255 593 l 262 600 l 434 600 l 434 590 l 441 590 q 493 607 441 607 q 555 703 555 633 l 558 728 l 551 728 l 551 755 l 545 755 l 548 752 l 548 748 l 545 745 l 541 745 q 441 789 510 789 l 262 789 l 255 797 l 255 966 l 262 972 m 331 969 l 331 951 l 348 956 l 331 969 m 455 941 l 455 935 l 469 938 l 469 941 l 455 941 m 441 935 l 441 921 l 448 921 l 448 928 l 441 935 m 524 921 q 513 914 524 914 l 513 907 l 524 907 q 534 914 524 914 l 528 921 l 524 921 m 272 918 l 272 914 l 279 907 l 290 910 l 290 914 l 276 918 l 272 918 m 452 907 l 448 903 l 448 900 l 462 886 q 490 893 472 893 q 479 900 490 900 l 462 897 l 452 907 m 572 886 l 579 873 l 583 873 l 583 886 l 572 886 m 538 848 l 538 842 l 555 845 l 566 845 l 566 852 l 555 852 l 538 848 m 600 827 l 600 810 l 610 810 l 610 814 q 600 827 605 827 m 548 817 l 548 814 l 558 783 l 562 783 q 583 800 562 797 l 579 810 l 562 810 l 551 817 l 548 817 m 462 810 l 469 804 l 475 804 l 472 814 l 462 810 m 645 804 l 645 800 q 665 776 654 800 l 669 772 l 672 772 l 675 776 l 675 779 q 648 804 668 800 l 645 804 m 728 797 l 728 789 l 745 789 l 745 797 l 728 797 m 566 776 q 576 762 570 762 l 579 766 l 579 776 l 572 776 l 569 779 l 566 776 m 634 766 l 642 755 l 631 724 l 634 724 l 675 734 q 634 766 660 766 m 690 766 l 690 762 l 696 755 l 696 759 l 690 766 m 579 759 l 576 731 l 579 728 l 593 728 l 600 755 l 596 755 l 579 759 m 686 734 l 690 718 l 693 718 l 693 734 l 686 734 m 724 724 l 724 714 l 731 714 l 731 731 l 724 724 m 562 686 l 562 680 l 576 686 l 576 690 l 572 690 l 562 686 m 604 686 l 607 673 l 610 673 q 621 686 615 673 l 604 686 m 645 673 l 648 669 l 648 665 l 645 662 l 645 659 l 652 659 l 659 680 l 645 673 m 728 655 l 728 645 l 720 645 l 720 648 l 728 655 m 734 648 l 738 648 l 755 645 q 741 621 755 627 l 734 621 l 734 624 l 738 627 l 734 631 l 734 648 m 524 617 l 524 610 l 531 604 l 534 604 l 531 617 l 524 617 m 728 621 l 741 610 l 717 583 l 713 583 l 713 593 q 728 621 728 610 m 579 604 l 579 597 l 586 590 l 614 590 l 614 597 l 631 597 l 642 590 l 648 590 q 600 610 648 602 l 593 610 l 579 604 m 462 593 l 458 590 l 458 583 q 479 569 479 578 l 483 569 l 483 576 q 475 590 475 576 l 462 593 m 558 566 l 558 555 l 566 555 l 572 562 l 558 566 m 472 541 l 465 528 l 479 528 l 486 534 l 486 538 l 472 541 m 586 514 l 589 514 l 596 521 l 593 521 l 586 514 m 551 503 q 566 486 558 488 l 569 486 l 558 511 l 551 503 m 479 486 l 479 479 q 496 469 488 479 l 500 469 q 483 486 498 478 l 479 486 m 637 431 q 655 410 655 431 l 665 410 q 672 428 665 428 l 675 424 l 703 431 l 707 431 q 713 420 713 431 q 734 414 719 414 l 734 407 q 710 366 710 382 l 720 355 l 720 352 q 703 341 712 352 l 690 341 l 690 314 l 665 307 l 659 314 l 652 293 l 655 279 l 645 269 l 655 252 l 655 245 q 627 235 655 238 l 624 238 l 621 235 l 621 231 q 631 217 629 231 l 624 210 q 645 193 645 210 q 675 176 645 185 q 683 193 677 193 l 679 197 l 679 200 l 683 203 l 683 207 l 700 203 l 703 203 l 675 220 l 672 217 l 669 217 l 665 220 l 665 224 l 672 241 l 720 245 l 720 248 l 713 258 l 696 255 l 679 262 l 679 276 l 683 279 l 679 283 l 679 296 l 690 307 l 713 307 l 710 290 l 713 286 l 720 286 l 724 303 l 720 328 l 724 324 l 728 324 l 734 331 l 734 334 l 731 338 l 731 341 q 751 355 751 350 l 741 372 q 755 393 749 393 l 758 390 l 758 393 l 745 414 l 751 424 l 751 431 l 748 428 l 745 428 l 741 431 l 738 428 l 734 428 q 728 438 728 428 l 675 438 q 665 469 669 438 l 686 476 l 690 473 l 700 473 l 700 476 q 672 486 687 476 q 645 455 645 467 l 637 431 m 393 452 l 414 452 l 407 458 l 400 458 l 393 452 m 551 424 l 551 417 l 562 417 l 569 424 l 551 424 m 569 417 l 569 410 l 579 410 l 579 417 l 569 417 m 710 410 l 710 400 l 720 404 l 720 407 l 710 410 m 642 362 l 634 349 l 637 345 l 634 341 l 655 341 l 648 352 l 662 355 l 662 362 l 642 362 m 762 334 l 769 328 l 776 334 l 762 334 m 772 269 l 772 266 l 779 258 l 779 269 l 772 269 m 728 252 l 728 248 l 738 224 l 734 207 l 741 207 q 755 214 741 214 l 755 220 q 745 238 745 220 l 751 248 l 751 252 l 728 252 m 772 231 l 776 228 l 786 228 l 786 238 l 779 238 l 772 231 m 548 231 l 551 231 q 576 200 551 220 q 551 186 572 186 q 534 220 534 206 l 548 231 m 417 155 l 434 149 l 438 152 l 441 152 l 434 169 q 417 155 418 162 m 686 169 l 679 155 l 679 152 q 696 162 696 156 l 690 169 l 686 169 m 382 162 l 382 159 q 410 149 385 149 l 414 149 q 393 162 410 162 l 382 162 m 741 159 l 745 159 l 762 152 l 762 145 l 748 131 l 741 131 l 734 138 l 734 152 l 741 159 m 348 149 q 328 124 348 141 q 355 100 334 124 q 366 114 357 114 l 362 117 l 366 134 l 366 138 q 355 149 355 138 l 348 149 m 465 138 l 462 124 q 479 111 479 124 l 483 111 l 483 121 l 479 138 l 465 138 m 648 138 l 648 134 l 655 127 l 659 127 l 659 134 l 655 138 l 648 138 m 417 107 l 417 104 l 420 100 l 420 96 l 417 93 l 420 93 l 424 96 l 441 93 l 448 93 l 448 107 l 431 111 l 417 107 m 351 79 l 351 69 l 359 76 l 355 79 l 351 79 m 490 58 l 490 45 l 503 45 l 503 58 l 490 58 m 400 55 l 400 41 l 404 41 l 407 45 l 410 45 l 414 41 l 414 45 q 400 55 414 50 m 404 35 l 404 31 l 407 21 l 414 21 l 417 35 l 404 35 m 379 24 l 376 10 l 404 10 l 404 17 l 396 24 l 379 24 m 6 975 l 214 975 l 220 968 l 220 888 l 214 881 l 207 881 q 189 902 207 890 l 189 909 l 186 909 l 182 905 l 179 905 l 200 874 l 182 861 l 186 861 l 217 878 l 220 874 l 220 442 l 203 442 l 186 453 q 172 439 186 439 q 165 418 172 418 l 148 418 l 138 425 l 131 414 l 134 411 l 155 411 l 155 404 q 182 387 171 404 l 189 397 q 179 404 179 397 l 179 425 l 200 425 l 207 418 l 207 401 q 196 394 196 401 q 220 376 210 394 l 220 335 l 196 308 l 214 308 l 214 321 l 220 321 l 220 170 q 203 155 214 155 l 210 149 l 220 152 l 220 56 l 214 56 q 207 73 214 73 l 186 83 l 186 79 q 207 69 186 74 l 210 52 l 210 48 l 200 38 l 193 38 l 172 56 l 172 52 l 189 31 l 186 21 l 189 21 q 210 35 210 21 l 220 35 l 220 7 l 214 0 l 193 0 l 182 7 l 176 0 l 151 0 q 144 10 144 0 l 123 10 q 117 0 123 0 l 100 0 l 79 17 l 75 17 l 75 0 l 34 0 l 34 10 l 13 10 l 13 7 l 20 7 l 20 0 l 6 0 l -1 7 l -1 10 l 6 21 l 6 38 l -1 38 l -1 69 l 13 90 q 3 100 13 100 l -1 104 l -1 128 l 6 135 l 20 135 l 31 128 l 41 128 l 37 132 l 20 138 l 13 159 l 6 159 l 6 142 l -1 142 l -1 273 l 6 280 l 9 280 l 31 273 l 31 269 l 47 273 l 75 273 q 62 280 75 280 l 62 287 l 37 287 l 31 294 l 34 308 q 20 346 20 308 l 16 342 l 6 342 l -1 349 l -1 376 l 9 376 l 6 380 l 6 384 l 9 394 l -1 411 l -1 968 l 6 975 m 68 964 l 62 954 l 65 954 l 75 958 l 68 964 m 106 933 l 106 926 l 110 923 l 117 923 l 117 926 l 110 933 l 106 933 m 106 878 l 106 874 l 148 857 l 151 854 l 155 854 l 151 871 l 151 878 l 158 888 l 131 888 l 106 878 m 158 854 l 165 846 l 172 846 l 172 854 l 158 854 m 16 846 l 16 840 l 24 833 l 27 836 l 27 840 l 20 846 l 16 846 m 193 574 l 193 543 l 200 543 l 203 553 l 196 574 l 193 574 m 207 491 l 200 473 l 200 470 l 214 473 l 210 491 l 207 491 m 27 470 l 27 453 l 34 453 l 34 470 l 27 470 m 131 453 l 138 446 q 172 467 168 456 l 169 470 q 131 453 152 453 m 68 453 l 68 446 l 75 439 l 75 453 l 68 453 m 6 439 l 24 425 l 34 425 q 6 439 34 434 m 89 432 l 89 418 l 100 418 l 100 422 l 96 432 l 89 432 m 220 435 l 220 401 l 214 401 l 214 408 l 210 432 l 214 435 l 220 435 m 103 384 l 103 380 l 138 356 l 138 370 q 120 401 120 382 q 110 384 115 401 l 103 384 m 16 380 l 16 376 q 37 363 27 376 l 41 363 l 51 373 l 41 391 l 37 391 q 16 380 26 380 m 75 391 l 72 370 l 82 359 l 82 353 l 65 349 l 55 349 l 47 332 l 47 328 l 55 321 l 58 321 l 75 325 l 79 308 l 82 308 l 82 328 q 89 342 89 328 l 93 346 l 96 346 l 110 342 l 110 346 q 89 359 110 353 l 85 376 l 85 380 l 93 380 l 93 384 q 82 391 82 384 l 75 391 m 193 370 l 193 363 l 214 363 l 214 373 l 193 370 m 155 325 l 144 328 l 144 315 l 155 315 q 179 335 155 328 l 179 342 l 176 342 l 155 325 m 3 332 q 20 311 20 330 q 6 294 6 304 l -1 294 l -1 325 l 3 328 l 3 332 m 169 300 l 169 294 q 182 304 182 299 l 169 300 m 93 287 l 103 287 l 106 290 l 110 290 l 106 300 l 93 287 m 127 287 l 127 283 q 151 266 127 278 l 151 273 q 141 283 141 273 l 138 287 l 127 287 m 82 256 l 82 252 q 96 239 96 252 l 103 239 q 120 266 103 254 q 82 256 82 262 m 148 256 l 148 252 l 162 252 l 158 256 l 158 259 l 148 256 m 34 256 q 27 242 34 242 l 16 245 l 13 242 l 13 231 q 24 221 24 231 l 27 221 q 44 239 27 239 l 55 239 q 34 256 48 251 m 155 208 l 155 204 l 158 204 q 186 218 159 218 l 186 231 q 155 208 155 221 m 62 218 l 68 218 l 75 224 l 68 224 l 62 218 m 200 211 l 196 197 l 207 197 l 210 211 l 200 211 m 82 176 l 82 170 q 72 163 72 170 l 82 163 l 85 173 l 85 176 l 82 176 m 47 155 l 58 155 l 65 163 l 55 163 l 47 155 m 85 90 l 85 86 l 93 86 q 103 94 93 94 l 103 100 l 85 90 m 123 100 l 123 97 l 131 86 l 131 79 q 117 69 131 69 l 117 66 l 134 66 l 138 83 q 123 100 131 99 m 58 86 l 58 79 l 62 79 l 68 86 l 58 86 m 79 52 l 85 45 l 96 45 l 96 52 l 79 52 m 47 31 l 55 21 l 65 24 l 62 38 l 47 31 m 155 31 l 155 24 l 165 24 l 165 31 l 155 31 m 220 435 l 220 401 l 214 401 l 214 408 l 210 432 l 214 435 l 220 435 m 3 332 q 20 311 20 330 q 6 294 6 304 l -1 294 l -1 325 l 3 328 l 3 332 z "},"C":{"ha":930,"x_min":-1,"x_max":893,"o":"m 441 972 l 445 969 l 445 818 l 425 804 l 425 801 l 435 798 q 441 808 435 808 l 445 808 l 445 801 l 359 771 l 303 728 l 277 735 q 290 719 283 720 q 296 728 290 728 l 296 722 q 224 551 240 654 l 220 554 l 210 554 q 220 547 210 547 l 224 544 l 224 537 q 214 498 224 498 l 210 498 l 214 494 l 214 488 l 208 481 l 197 485 l 194 481 l 194 478 l 197 475 l 201 475 l 210 478 q 233 376 222 466 l 224 366 l 220 366 l 220 363 l 227 363 l 227 366 q 243 336 243 366 l 240 333 q 293 250 248 331 q 362 198 293 243 l 418 184 l 418 175 l 415 172 l 415 168 l 412 172 l 405 172 l 405 161 l 398 161 l 398 165 l 401 168 l 401 172 l 382 175 q 346 145 372 145 l 346 138 q 355 125 355 138 l 355 122 l 369 125 l 366 129 l 366 132 q 382 138 382 132 l 382 145 l 378 155 l 382 155 l 395 158 l 401 158 l 425 152 l 425 155 q 438 145 438 150 l 435 142 l 435 138 l 438 138 l 435 135 l 435 125 l 438 122 l 438 119 l 435 115 l 431 115 l 425 122 q 415 115 425 115 l 412 99 l 415 99 l 428 102 q 441 96 428 96 l 441 89 l 435 73 l 431 73 l 418 79 l 405 69 l 405 62 l 412 62 l 412 50 l 405 43 l 392 39 l 392 50 l 398 50 l 398 56 l 389 59 q 408 96 408 83 q 385 69 401 96 l 389 66 l 385 66 l 375 73 l 372 73 l 366 66 q 378 56 366 56 l 375 46 l 378 30 l 375 33 l 372 33 l 372 30 q 385 7 382 30 l 378 7 l 378 3 l 319 16 l 323 33 l 303 39 l 296 33 q 286 46 296 46 l 283 46 q 270 33 283 33 q 128 135 210 52 l 132 149 l 128 152 l 125 152 l 118 145 l 68 214 l 72 224 l 68 224 q 26 313 56 224 q 49 343 26 343 l 45 359 q 52 349 52 359 l 56 353 l 59 353 l 62 349 l 62 359 l 72 359 l 79 353 l 68 343 l 72 340 l 72 333 l 68 336 l 66 336 l 62 313 l 79 310 l 79 313 q 112 294 99 313 l 109 290 l 112 287 l 118 287 l 112 307 l 115 307 l 125 303 l 125 307 l 135 300 l 138 303 l 144 303 l 144 296 l 151 303 l 151 307 l 148 310 l 148 313 l 151 317 l 148 320 l 144 320 q 135 307 144 307 l 132 307 q 109 323 116 323 l 102 317 l 89 317 q 75 333 82 318 q 92 359 75 349 l 95 356 l 95 359 l 109 353 l 112 356 l 112 359 l 109 363 l 115 376 l 112 379 l 115 382 l 109 382 l 105 379 l 102 379 l 92 382 l 92 379 l 85 372 l 85 376 l 66 369 l 36 369 l 36 363 l 19 363 q 6 412 6 363 l 22 402 l 33 402 l 33 409 l 29 425 l 39 435 l 36 435 l 22 425 l 16 439 l 19 441 l 6 448 q 13 429 9 429 l 9 418 q -1 491 -1 418 q 9 570 -1 570 l 6 574 l 6 577 q 92 801 16 678 q 441 972 235 972 m 878 259 q 810 149 852 205 q 484 0 665 0 l 484 7 q 494 13 494 7 l 481 13 l 481 59 l 488 59 l 488 79 l 497 79 l 507 73 l 511 73 l 524 79 l 504 106 l 504 119 q 530 158 504 154 l 527 161 l 530 165 l 530 178 l 514 175 l 514 184 l 543 191 l 543 188 l 541 184 l 541 181 l 547 181 q 600 221 547 195 q 639 264 639 254 l 662 264 l 662 267 l 659 271 l 659 273 l 656 271 l 649 271 l 649 273 q 679 296 649 279 l 679 307 l 675 323 l 679 326 l 685 326 l 688 323 l 692 326 l 695 326 q 705 317 705 326 l 708 317 l 708 330 l 692 330 q 685 340 685 330 l 688 361 l 878 259 m 718 600 l 682 633 l 685 636 l 685 640 l 646 705 q 520 788 597 765 q 481 801 481 793 l 481 966 l 488 972 q 781 857 639 972 q 883 702 869 764 l 876 692 l 876 686 l 883 679 l 883 699 q 893 683 888 699 l 718 600 m 718 864 l 718 861 q 725 850 725 861 l 731 850 l 731 864 l 718 864 m 161 804 l 161 795 q 178 811 176 802 l 174 811 l 161 804 m 850 679 q 833 669 850 669 l 833 666 l 847 666 l 867 673 l 867 679 l 860 679 l 857 676 l 853 676 l 850 679 m 68 659 l 68 652 l 79 652 l 79 659 l 68 659 m 220 593 q 210 587 220 587 l 210 581 l 214 581 l 227 593 l 220 593 m 155 587 l 155 581 l 164 581 l 164 587 l 155 587 m 68 554 l 68 547 l 75 541 l 79 544 l 79 554 l 68 554 m 98 541 l 98 534 l 109 534 l 109 537 l 98 541 m 45 528 l 45 521 l 56 517 l 56 521 l 45 528 m 118 521 l 118 517 l 121 508 q 92 498 111 500 q 79 508 92 506 l 75 505 l 75 501 q 102 468 102 501 l 98 468 q 92 458 92 468 q 66 441 66 447 l 68 441 q 98 462 98 448 l 118 465 l 118 462 l 121 465 l 128 465 l 125 462 l 125 458 l 128 455 l 132 458 l 135 458 l 141 452 l 138 448 l 155 448 l 155 452 l 151 462 l 158 462 l 158 455 l 168 455 l 164 458 l 164 465 l 168 465 l 181 455 l 191 458 l 187 462 l 187 465 l 191 481 l 171 481 l 171 488 l 168 488 l 168 481 q 144 498 144 486 l 144 501 l 141 498 l 138 498 q 121 521 126 505 l 118 521 m 56 485 l 56 475 l 66 478 l 66 485 l 62 481 l 59 481 l 56 485 m 52 441 l 52 435 l 66 435 l 59 441 l 52 441 m 95 441 l 92 429 q 98 439 98 429 l 98 441 l 95 441 m 82 418 l 82 415 l 92 425 l 89 425 l 82 418 m 194 399 l 197 395 l 197 392 l 214 395 l 214 402 l 210 402 l 194 399 m 174 392 l 178 382 l 191 395 l 184 395 l 174 392 m 132 379 l 121 382 l 118 382 l 118 379 l 141 366 l 144 366 l 141 382 l 148 389 l 144 389 l 132 379 m 178 363 q 171 353 178 353 l 158 356 l 158 353 l 155 356 l 151 356 l 138 336 l 141 323 l 144 323 q 161 343 144 336 l 171 343 l 171 340 l 164 340 l 174 323 l 191 323 l 194 326 l 197 326 l 210 313 l 214 313 q 184 346 193 346 l 184 363 l 178 363 m 16 349 l 19 349 l 33 346 l 33 343 l 22 333 l 19 333 l 16 349 m 118 343 l 115 333 l 118 323 l 121 323 l 125 333 l 135 330 l 135 340 l 118 343 m 42 310 l 39 307 l 39 303 l 72 283 l 72 290 q 62 310 72 302 l 59 307 l 56 307 l 42 310 m 715 310 l 722 303 l 725 303 l 718 310 l 715 310 m 237 294 l 237 290 l 247 290 l 247 296 l 237 294 m 692 267 l 695 257 l 699 257 l 705 264 l 705 271 l 699 277 q 692 267 692 277 m 754 271 l 758 267 l 754 264 l 764 264 l 761 277 l 754 271 m 267 271 l 267 264 l 273 257 l 279 264 l 270 271 l 267 271 m 135 250 l 148 248 l 155 257 l 141 257 l 135 250 m 711 254 l 711 250 l 715 248 l 725 248 l 725 250 l 711 254 m 672 241 l 675 231 l 679 231 l 685 237 l 685 244 l 679 250 q 672 241 672 250 m 250 234 l 254 231 l 254 227 l 250 218 l 254 214 l 260 214 q 250 234 260 231 m 277 218 l 260 201 l 290 211 l 290 214 l 277 218 m 148 211 l 151 198 l 158 198 l 164 204 l 164 211 l 161 208 l 158 211 l 148 211 m 95 191 l 95 181 l 98 181 l 109 184 l 102 191 l 95 191 m 217 191 l 217 178 l 220 178 l 224 191 l 217 191 m 366 191 l 369 188 l 369 184 l 362 184 l 362 178 l 372 184 l 375 181 l 375 184 l 369 191 l 366 191 m 115 184 l 115 175 l 118 172 l 121 172 l 121 175 l 118 184 l 115 184 m 267 181 l 267 168 q 283 145 267 152 l 290 145 l 290 158 l 267 181 m 138 158 l 144 152 l 148 155 l 148 152 l 158 155 l 155 165 l 144 165 l 138 158 m 184 152 l 191 145 l 197 145 l 201 158 l 197 158 l 184 152 m 488 155 l 494 155 l 491 138 l 488 138 l 481 145 l 481 149 l 488 155 m 171 135 l 174 135 l 181 142 l 181 145 l 171 135 m 204 145 l 204 135 l 210 135 l 210 145 l 204 145 m 214 132 l 217 129 l 214 125 l 214 122 l 220 115 l 231 119 l 231 112 l 233 112 q 247 119 233 119 l 254 125 l 254 132 l 243 125 l 224 132 l 214 132 m 530 125 l 530 122 l 541 119 l 541 125 l 530 125 m 481 115 l 488 115 l 488 89 l 481 83 l 481 115 m 191 99 l 191 96 q 214 79 197 79 l 231 79 l 231 83 l 214 85 l 204 83 l 208 85 l 208 92 l 191 99 m 254 96 l 247 85 l 254 85 l 256 96 l 254 96 m 606 85 l 606 83 l 612 83 l 616 92 l 612 92 l 606 85 m 306 76 l 306 73 l 309 69 l 319 69 l 319 73 l 306 76 m 342 76 l 349 59 l 362 59 l 362 66 q 355 76 355 66 l 342 76 m 237 69 l 233 59 l 237 59 l 250 66 l 250 69 l 243 69 l 240 73 l 237 69 m 326 59 l 323 56 l 323 53 l 329 53 l 326 50 l 326 46 l 339 46 l 339 56 l 326 59 m 441 62 l 445 62 l 445 36 l 441 33 l 441 30 l 431 33 q 441 62 435 62 m 530 50 l 527 46 l 527 39 l 537 36 l 537 43 l 530 50 m 422 30 q 441 13 441 30 l 445 3 l 441 3 l 415 0 l 415 3 l 405 16 l 401 13 l 398 13 l 398 20 l 422 30 z "},"D":{"ha":804,"x_min":0,"x_max":759,"o":"m 406 1002 l 423 1002 l 399 984 l 399 988 l 406 1002 m 7 977 l 97 977 l 100 974 l 104 977 l 191 977 l 191 974 l 184 964 l 184 960 l 187 960 l 197 967 l 205 967 q 212 949 212 967 l 222 946 l 222 481 l 218 481 l 215 486 l 212 486 l 208 481 l 208 478 l 222 465 l 222 433 l 215 433 l 218 437 l 218 440 l 208 440 q 191 399 208 414 l 174 399 l 174 381 q 184 364 184 381 l 191 364 q 205 392 196 364 l 222 395 l 222 7 l 215 0 l 208 0 l 194 10 l 191 10 q 184 0 191 0 l 170 0 q 163 10 163 0 l 142 10 q 100 0 142 0 l 83 0 l 69 3 l 56 0 l 10 0 l 0 10 l 0 18 q 35 76 21 76 l 35 80 l 28 87 l 28 76 l 10 80 l 10 69 l 7 52 l 0 52 l 0 399 q 31 406 0 406 l 38 416 l 31 427 l 31 447 l 38 458 l 38 468 l 35 468 q 18 454 35 459 l 21 450 l 14 416 l 7 416 l 0 423 l 0 614 l 18 614 l 18 621 l 10 627 l 0 624 l 0 884 l 7 890 l 14 890 l 24 884 l 24 887 l 18 898 l 18 905 l 21 908 l 21 911 l 0 911 l 0 970 l 7 977 m 263 977 l 412 977 q 696 870 608 977 l 700 873 l 700 870 l 696 867 q 759 669 759 772 l 759 318 q 696 124 759 199 l 690 124 l 690 121 l 693 110 l 669 90 l 665 90 l 665 96 l 659 96 l 655 86 l 659 75 q 343 -1 587 -1 l 263 -1 l 256 6 l 256 93 l 263 103 l 256 110 l 256 176 l 263 183 l 395 183 q 427 172 413 183 l 437 172 l 437 176 l 433 186 q 537 325 537 220 l 537 680 q 412 793 514 793 q 392 801 412 801 l 357 797 l 353 801 l 353 804 l 330 793 l 312 797 l 312 801 l 315 804 l 315 808 l 309 808 l 294 797 l 263 797 l 256 804 l 256 970 l 263 977 m 45 953 l 52 953 l 59 960 l 59 967 l 56 967 l 45 953 m 24 915 l 56 911 l 59 915 l 59 926 l 35 926 l 24 915 m 686 922 l 693 922 q 703 915 693 915 l 703 905 l 696 905 q 690 915 690 905 l 686 915 l 686 908 l 676 908 l 686 922 m 31 842 l 35 839 l 35 836 l 31 832 l 31 828 l 49 821 l 52 821 l 52 825 l 45 842 l 31 842 m 10 828 l 14 811 l 21 818 l 21 828 l 10 828 m 340 821 l 347 814 l 350 818 l 350 821 l 340 821 m 73 808 l 76 804 l 73 801 l 73 790 l 90 793 l 100 793 l 100 797 l 90 808 l 87 808 l 83 804 l 80 808 l 73 808 m 343 793 l 343 783 l 336 783 l 336 787 l 343 793 m 59 780 l 59 759 l 62 762 l 66 762 l 69 759 l 69 742 l 62 734 l 56 734 q 38 745 56 745 l 24 745 l 24 739 q 73 696 52 739 l 90 696 l 90 700 q 66 718 73 700 q 90 739 66 739 l 83 759 q 69 783 69 759 l 59 780 m 555 759 l 558 739 l 565 739 l 562 742 l 562 745 l 568 759 l 555 759 m 104 745 l 104 742 l 107 739 l 104 734 l 104 728 l 115 731 l 115 739 l 107 745 l 104 745 m 624 731 l 631 724 l 634 728 l 634 731 l 624 731 m 66 676 l 66 672 l 76 655 l 94 655 l 69 676 l 66 676 m 208 655 l 208 648 l 218 648 l 212 655 l 208 655 m 655 318 l 655 311 l 676 311 l 676 304 l 680 304 l 680 311 l 669 318 l 655 318 m 326 152 l 353 141 l 357 144 l 357 149 q 347 162 352 149 l 343 165 l 336 165 q 326 152 331 165 m 263 144 l 263 141 l 284 141 q 315 110 284 120 l 319 113 l 319 117 q 298 141 298 117 l 305 149 l 294 159 l 284 155 l 284 159 q 263 144 263 151 m 170 481 l 174 478 l 174 468 q 163 461 174 461 l 159 458 l 159 454 l 177 454 l 177 481 l 170 481 m 406 144 l 406 138 l 412 124 l 427 127 l 419 144 l 406 144 m 132 478 l 128 475 l 128 465 l 132 468 l 149 465 l 159 475 l 132 478 m 115 454 l 115 423 l 121 412 q 142 423 142 417 l 142 427 l 125 423 l 118 433 l 118 437 l 121 454 l 115 454 m 347 103 l 347 93 l 353 93 l 353 103 l 347 103 m 364 90 l 364 86 l 381 86 l 381 90 l 364 90 m 357 79 l 357 68 l 364 75 l 364 79 l 357 79 m 149 406 l 149 399 l 163 385 l 166 385 l 166 388 l 159 388 l 159 392 l 170 406 l 149 406 m 41 381 l 41 378 l 45 378 l 52 385 l 52 388 l 49 388 l 41 381 m 59 357 l 59 353 q 66 330 66 345 l 69 333 l 73 333 l 87 322 l 87 333 l 69 357 l 59 357 m 59 322 l 59 312 l 66 312 l 66 315 l 59 322 m 159 305 l 159 294 l 166 288 l 170 288 l 170 298 l 163 305 l 159 305 m 90 302 l 90 294 l 111 294 l 111 302 l 90 302 m 149 288 l 142 271 l 142 263 q 156 284 156 271 l 153 288 l 149 288 m 62 271 l 66 271 q 80 281 80 275 l 73 281 l 62 271 m 62 263 l 52 239 l 62 232 l 90 239 l 90 243 q 66 263 66 252 l 62 263 m 125 253 l 121 250 l 121 246 l 132 246 l 125 253 m 174 232 l 146 232 q 180 218 146 225 l 184 218 l 191 225 l 191 236 l 174 232 m 115 174 l 115 163 l 121 156 l 125 156 l 132 163 q 118 174 118 163 l 115 174 m 191 149 l 191 138 l 201 135 l 205 138 l 205 142 l 194 149 l 191 149 m 177 125 q 166 104 177 104 l 146 107 q 138 97 146 97 l 138 94 l 156 87 q 174 100 174 94 l 177 100 l 180 97 l 184 97 q 191 111 184 111 q 177 125 188 121 m 31 100 l 31 97 l 45 97 l 45 107 l 38 107 l 31 100 m 83 59 q 107 38 107 50 l 111 38 q 138 52 128 52 l 132 59 l 100 59 l 90 66 l 83 59 m 177 52 l 177 31 l 180 31 l 187 45 l 184 59 l 177 52 m 191 45 l 191 41 l 197 49 l 197 52 l 191 45 m 45 24 l 49 14 q 66 28 64 20 l 66 31 l 52 31 l 45 24 z "},"E":{"ha":766,"x_min":0,"x_max":724,"o":"m 52 972 l 52 962 l 55 962 q 69 972 55 970 l 76 962 l 76 956 q 66 945 66 956 l 52 938 l 38 941 q 24 924 31 926 l 21 928 l 17 928 l 7 914 l 28 910 l 28 886 q 14 876 14 886 l 0 876 l 0 914 l 3 945 l 0 969 l 3 972 l 52 972 m 96 972 l 214 972 l 220 966 l 220 873 l 214 873 q 207 893 214 893 l 200 886 l 200 880 q 220 865 200 873 l 220 759 l 197 762 l 193 762 l 193 759 l 220 748 l 220 707 l 210 707 l 210 700 q 220 693 220 700 l 220 528 q 207 503 207 528 l 210 500 l 200 493 l 190 493 q 183 511 183 493 l 179 511 q 169 493 179 493 l 152 493 l 145 500 l 145 514 q 155 521 155 514 l 152 538 l 149 534 l 145 534 l 149 531 l 149 521 l 141 514 l 131 514 q 114 545 114 520 l 114 549 l 124 552 l 117 572 q 131 590 131 572 l 159 590 l 159 604 l 179 604 l 183 607 l 186 607 q 172 617 186 617 l 169 638 l 165 635 l 162 635 l 165 631 l 165 624 l 155 614 l 141 610 l 141 600 l 138 604 l 131 604 l 124 583 l 111 590 l 111 583 l 76 583 l 76 597 l 79 614 q 69 621 69 614 l 69 635 l 79 638 q 107 614 85 614 l 107 617 q 90 642 90 627 l 96 648 l 100 645 l 117 645 l 117 665 q 127 673 117 673 l 127 680 q 107 700 107 680 l 104 696 l 100 696 l 69 703 l 66 700 l 66 707 q 76 714 76 707 l 76 724 l 69 724 l 69 718 l 52 721 l 45 721 l 45 718 l 52 718 l 52 711 l 38 707 l 38 724 l 48 724 l 48 738 l 45 741 l 45 745 q 58 766 58 751 l 69 766 l 79 755 l 73 748 l 79 728 l 86 728 l 86 741 l 90 741 l 96 734 l 93 731 l 93 728 l 100 728 l 121 734 l 121 741 q 76 766 101 741 l 76 793 l 69 793 q 55 772 69 785 l 52 776 l 35 776 l 41 752 q 14 724 41 741 l 14 721 l 0 721 l 0 748 l 7 772 l 0 772 l 0 786 l 7 786 l 7 776 q 35 789 33 776 l 35 793 l 31 793 l 31 786 q 3 810 3 789 l 17 821 l 38 821 l 35 804 l 35 797 l 38 797 q 45 810 39 810 l 38 842 l 45 848 l 45 852 q 35 859 35 852 l 31 855 l 28 855 l 17 865 l 17 869 q 35 883 35 869 l 31 886 l 35 890 l 38 886 l 48 886 l 66 890 l 69 869 l 73 869 q 93 880 84 880 l 93 886 l 79 890 l 90 921 q 76 941 81 921 l 83 951 l 100 945 l 104 948 l 96 969 l 96 972 m 266 972 l 349 972 l 355 966 l 349 959 l 349 948 l 352 948 q 362 972 362 948 l 420 972 l 424 969 l 428 972 l 473 972 q 483 956 475 956 l 486 959 l 490 959 l 486 962 l 486 972 l 572 972 l 572 962 l 576 966 l 579 962 l 586 962 l 586 966 l 583 969 l 583 972 l 707 972 l 714 966 l 714 800 l 707 793 l 617 793 l 617 804 q 610 793 610 804 l 414 793 l 404 800 l 393 793 l 266 793 l 258 800 l 258 827 l 262 831 l 258 835 l 258 941 l 266 941 l 266 951 l 258 951 l 258 966 l 266 972 m 145 948 l 138 935 l 145 935 l 152 941 l 145 948 m 190 941 q 203 914 197 914 l 214 924 q 207 941 207 924 l 203 945 l 200 945 l 190 941 m 290 928 l 300 921 l 303 931 l 300 935 l 296 935 l 290 928 m 121 914 l 124 914 l 134 924 l 131 924 l 121 914 m 576 924 q 555 910 576 910 l 552 914 l 549 900 l 569 900 l 579 921 l 579 924 l 576 924 m 407 914 l 404 900 l 410 900 l 417 907 l 407 914 m 149 907 l 149 890 l 145 890 l 138 897 l 141 900 l 131 900 l 131 880 l 124 880 l 124 873 l 131 873 q 162 886 131 885 q 179 900 170 900 l 179 907 l 149 907 m 331 900 l 331 886 l 338 893 l 338 900 l 331 900 m 534 883 l 545 883 l 545 893 l 534 883 m 286 876 l 283 873 l 283 869 l 286 865 l 290 865 l 293 869 l 303 855 l 303 835 l 307 835 l 317 838 l 317 842 q 286 876 308 864 m 114 859 l 114 855 l 121 855 l 124 865 l 121 865 l 114 859 m 58 852 l 58 845 l 62 845 l 79 848 l 79 859 l 58 852 m 165 852 l 169 835 l 162 835 l 162 824 l 165 824 l 197 838 l 200 838 l 200 842 l 183 845 l 172 845 l 172 852 l 165 852 m 83 848 l 83 838 l 90 838 l 90 848 l 83 848 m 117 835 l 117 831 l 124 831 l 131 838 l 127 842 l 124 842 l 117 835 m 400 838 l 400 831 l 407 831 l 414 838 l 400 838 m 296 831 l 296 824 l 303 824 l 311 831 l 296 831 m 483 831 l 476 810 l 479 810 l 490 821 l 490 831 l 483 831 m 111 821 l 111 810 l 117 810 l 117 821 l 111 821 m 321 817 l 321 804 l 324 804 l 328 814 l 324 817 l 321 817 m 531 810 l 531 804 l 538 797 l 538 810 l 531 810 m 169 783 l 149 783 l 141 789 l 131 786 l 131 772 l 149 769 l 152 772 l 186 762 l 186 766 q 176 772 186 772 l 176 776 l 190 789 l 210 789 l 214 800 l 210 804 l 203 804 l 169 783 m 141 734 l 138 731 l 138 728 l 149 718 l 152 721 l 159 721 q 176 707 176 721 l 186 707 l 186 711 q 141 734 172 726 m 190 707 l 203 707 l 197 714 l 190 707 m 0 711 l 7 711 l 10 693 l 7 669 l 0 676 l 0 711 m 152 707 l 152 700 q 159 686 159 700 l 165 686 l 155 703 l 155 707 l 152 707 m 35 700 q 55 665 42 700 l 58 665 l 62 683 q 52 690 52 683 l 69 693 l 86 683 l 90 683 l 90 673 l 83 665 l 66 665 q 55 642 66 650 l 58 642 l 55 638 l 55 635 l 62 614 l 52 607 l 41 617 l 38 617 l 31 610 q 55 579 31 584 l 55 576 l 58 579 l 62 579 l 69 572 l 69 549 q 52 541 52 549 l 52 538 q 76 524 58 524 q 83 545 76 545 l 83 541 l 93 545 l 93 549 q 83 555 93 555 l 79 559 l 79 569 l 86 579 q 114 555 114 579 q 107 538 107 555 l 100 538 l 100 528 q 145 490 145 496 q 162 483 145 483 l 165 479 l 165 462 l 162 445 l 165 445 l 183 452 l 186 448 l 186 455 q 172 462 186 462 q 190 469 172 469 l 190 473 l 210 465 l 210 469 l 214 483 l 220 483 l 220 404 l 217 379 l 220 349 l 220 121 q 207 93 220 109 l 207 86 l 210 90 l 220 90 l 220 86 l 217 83 l 220 66 l 220 21 l 200 0 l 183 0 l 172 7 l 176 10 l 176 21 l 155 14 l 155 7 l 134 7 l 134 21 l 149 28 l 152 28 l 152 31 l 145 38 l 141 38 q 121 17 141 29 l 100 21 q 111 45 104 45 l 127 45 q 145 55 127 55 l 159 76 l 159 79 l 145 79 l 145 100 l 159 100 l 179 83 l 186 83 l 186 86 q 169 107 169 86 l 169 111 q 190 127 183 111 l 193 127 l 193 121 l 200 121 l 200 131 l 193 159 l 186 159 l 176 138 l 183 131 l 145 104 l 134 107 l 134 104 q 107 83 134 88 q 86 100 100 98 l 86 111 l 93 117 l 96 117 l 114 114 l 111 117 l 111 121 l 117 141 l 100 141 l 104 138 l 104 131 l 93 131 l 86 145 l 86 149 l 83 149 q 76 124 83 124 l 69 124 l 58 127 l 58 124 l 52 104 l 48 107 l 45 107 l 38 100 q 62 86 62 100 l 66 69 l 38 66 l 41 62 l 41 38 q 62 31 62 38 l 62 10 l 41 10 q 31 31 35 10 q 7 38 7 31 l 7 62 l 14 62 l 14 66 q 0 73 0 66 l 0 134 l 24 155 l 0 155 l 0 159 l 7 169 l 7 179 l 0 190 l 0 393 q 10 400 0 400 l 10 404 q 0 410 0 404 l 0 486 l 7 493 l 10 493 l 14 490 l 17 490 l 17 493 l 0 511 l 0 645 l 7 645 l 14 638 l 10 638 l 14 627 l 21 627 l 21 645 q 41 652 21 652 l 41 655 l 17 662 l 17 669 l 21 673 l 21 676 l 17 680 q 35 700 30 686 m 165 683 l 165 673 l 172 673 l 169 683 l 165 683 m 172 665 q 162 645 172 648 l 149 648 l 124 645 l 124 635 l 172 645 l 179 652 l 179 659 l 172 665 m 262 604 q 293 572 283 604 l 290 569 l 296 569 l 300 572 l 303 569 l 307 569 l 317 579 l 300 597 l 300 604 l 303 604 l 307 600 l 311 600 l 314 604 l 331 600 l 359 600 l 376 604 l 376 600 l 379 604 l 390 604 l 400 600 l 417 604 l 476 604 l 503 597 l 511 604 l 514 604 l 517 600 l 521 604 l 659 604 l 665 597 l 665 593 l 662 593 l 645 597 l 642 593 l 642 590 l 669 583 l 673 593 l 680 593 l 680 531 q 642 549 654 534 l 621 549 l 621 555 l 600 555 q 586 569 600 569 l 586 566 q 604 534 594 534 q 614 524 614 534 l 617 521 l 621 521 q 631 534 621 534 l 642 541 l 662 528 l 669 528 l 673 531 l 676 531 l 680 507 l 680 462 l 676 458 l 680 455 l 680 452 l 676 428 l 652 431 l 645 424 l 638 424 l 638 428 l 614 424 l 572 424 l 569 428 l 566 424 l 541 424 l 538 428 l 534 424 l 514 424 l 500 428 l 486 424 l 462 424 l 455 431 l 428 424 l 338 424 q 324 445 331 424 l 321 445 l 314 435 l 303 438 l 303 435 q 286 424 303 424 l 266 424 l 266 431 l 283 431 l 283 435 l 279 438 l 283 448 l 286 448 l 290 445 l 293 445 l 296 448 l 296 465 q 286 473 296 473 l 283 469 l 279 469 l 269 473 l 273 469 l 269 465 l 269 462 l 273 452 l 266 435 l 258 435 l 258 476 l 262 479 l 258 483 l 258 555 l 262 555 q 273 528 269 555 l 276 528 q 283 555 276 549 l 283 559 l 262 579 l 262 590 l 266 593 l 262 597 l 262 604 m 17 597 l 14 586 l 17 583 l 21 583 l 28 593 l 24 597 l 17 597 m 372 590 l 372 586 l 382 590 l 382 597 l 379 597 l 372 590 m 387 593 l 387 586 l 390 586 l 400 590 l 400 597 l 397 597 l 387 593 m 193 583 l 200 576 l 207 576 l 207 579 l 203 590 l 200 590 l 193 583 m 524 583 q 549 569 534 583 q 559 579 549 579 q 583 562 559 574 l 583 569 q 552 590 566 569 l 531 590 l 524 583 m 162 576 l 162 572 l 165 562 l 179 562 l 179 569 l 165 576 l 162 576 m 382 569 l 382 559 l 390 559 l 390 562 l 382 569 m 317 562 q 334 534 317 543 l 352 559 l 352 562 l 349 562 q 334 555 349 555 l 334 549 l 331 549 l 331 555 l 324 562 l 317 562 m 28 549 l 24 545 l 24 534 l 35 545 l 31 549 l 28 549 m 483 549 l 483 541 l 500 541 l 500 549 l 496 545 l 493 545 l 483 549 m 372 541 l 372 538 l 376 528 l 379 528 l 387 534 l 372 541 m 552 534 l 555 521 l 562 521 l 569 528 l 562 534 l 552 534 m 300 528 l 300 521 l 307 521 q 317 514 307 514 l 317 490 l 324 490 l 328 507 q 300 528 308 528 m 555 514 l 555 500 l 559 500 l 559 514 l 555 514 m 621 507 l 624 490 l 635 500 l 627 507 l 621 507 m 359 500 l 366 490 l 349 483 q 362 473 349 477 q 379 483 362 478 l 382 479 l 379 493 l 376 490 l 369 490 l 369 500 l 359 500 m 503 493 l 503 479 l 514 476 l 521 496 l 503 493 m 48 465 l 58 465 l 58 462 l 41 458 l 41 452 l 48 452 l 48 438 l 52 420 l 31 414 l 31 417 l 14 414 l 14 410 l 17 407 l 17 404 l 52 410 l 52 404 l 58 404 l 58 428 l 76 428 l 73 441 l 76 452 l 100 452 l 111 441 l 107 438 l 107 431 l 114 424 l 114 435 l 121 435 l 134 420 l 134 417 l 131 414 l 134 410 l 134 407 l 131 390 l 138 390 l 141 417 l 145 414 l 152 414 l 152 417 q 145 435 145 417 q 127 445 127 437 l 141 473 l 131 473 l 131 465 l 121 465 l 117 469 l 114 469 l 117 486 l 117 490 l 111 490 l 107 469 l 104 473 l 100 473 l 96 462 l 73 462 l 73 448 l 58 448 l 58 455 l 66 455 l 66 458 l 62 469 l 66 469 q 79 493 74 469 l 66 493 l 48 465 m 296 479 l 296 476 l 300 476 l 317 479 l 317 486 l 314 486 l 296 479 m 545 483 l 545 476 l 555 452 l 559 452 l 559 473 q 552 483 552 473 l 545 483 m 455 448 l 455 438 l 458 438 l 469 441 l 469 445 l 455 448 m 552 448 q 545 438 552 438 l 545 431 l 559 438 l 559 448 l 552 448 m 79 420 q 73 404 79 404 l 62 407 q 69 382 69 399 l 76 382 q 86 400 82 382 l 83 404 l 96 410 l 96 404 l 100 404 l 100 417 l 79 420 m 186 417 l 186 404 q 197 417 191 404 l 186 417 m 169 397 l 169 393 l 176 387 l 176 397 l 169 397 m 21 382 l 21 376 l 31 372 l 35 376 l 35 393 l 31 393 l 21 382 m 145 362 l 145 352 l 149 352 l 159 355 l 159 362 l 145 362 m 179 352 l 179 349 l 183 324 l 193 324 q 210 341 193 341 q 190 362 208 355 l 179 352 m 35 341 l 35 334 l 45 324 l 62 331 l 62 334 l 55 341 l 38 338 l 35 341 m 121 334 l 121 328 l 134 328 l 145 338 l 145 341 l 141 341 l 121 334 m 176 317 l 172 303 l 179 303 l 179 317 l 176 317 m 28 300 l 24 296 l 24 293 l 28 293 l 28 296 l 31 293 l 38 293 l 38 296 l 28 300 m 41 293 l 41 290 l 52 279 l 52 283 l 41 293 m 141 293 l 141 286 l 162 283 l 162 279 q 152 255 162 268 l 152 252 l 159 252 q 165 266 165 252 l 186 269 l 186 286 l 141 293 m 73 276 l 73 273 l 86 273 l 86 279 l 83 279 l 73 276 m 17 258 l 17 252 l 24 252 l 21 248 l 21 245 l 24 235 l 21 235 l 10 231 l 10 228 l 21 228 q 66 252 33 252 l 66 258 l 35 252 l 28 258 l 17 258 m 200 258 l 197 255 l 197 245 q 207 231 207 245 l 217 231 q 203 255 203 247 l 210 255 l 210 258 l 200 258 m 35 200 l 35 186 l 52 207 l 48 210 l 35 200 m 190 193 q 172 176 190 176 l 172 172 l 200 169 l 200 190 l 190 193 m 311 183 l 331 183 l 345 172 q 352 183 345 183 l 382 183 l 382 179 l 379 176 l 379 172 l 382 169 l 387 169 l 400 183 l 517 183 l 528 176 l 541 183 q 555 169 553 179 l 552 165 l 579 152 l 579 159 q 562 183 566 159 l 621 183 q 669 162 635 183 l 676 169 l 673 172 l 673 183 l 718 183 l 724 176 l 724 149 l 703 117 l 707 117 l 721 127 l 724 127 l 724 83 l 721 79 l 724 76 l 724 73 l 718 62 l 724 52 l 724 7 l 718 0 l 579 0 l 579 3 l 593 7 l 593 10 l 586 10 l 586 7 l 583 10 l 572 10 l 572 0 l 517 0 l 500 14 l 511 35 q 473 45 480 38 l 448 35 l 448 24 q 458 14 458 24 l 455 14 l 458 10 l 458 7 l 452 0 l 404 0 l 404 3 q 414 10 404 10 l 404 24 l 387 24 l 387 31 l 366 31 q 345 14 366 14 l 338 21 l 338 45 l 349 45 l 345 48 l 345 69 l 349 73 l 349 76 q 328 86 337 86 l 328 90 l 331 93 l 328 96 l 328 100 l 334 111 q 317 127 332 119 l 303 121 l 307 104 q 296 79 307 92 l 296 73 q 314 62 296 64 l 314 55 l 303 55 q 317 45 303 45 l 317 10 l 331 10 l 331 7 l 324 0 l 279 0 q 266 10 279 10 l 262 14 l 262 35 l 269 45 l 269 58 l 258 58 l 258 86 l 279 104 q 293 114 279 114 l 293 121 l 279 121 l 286 155 q 293 145 293 155 q 307 159 307 145 l 311 162 l 307 165 l 303 165 l 303 176 l 311 183 m 41 169 l 48 162 l 58 165 l 58 169 l 41 169 m 424 162 l 424 155 l 431 155 l 431 169 l 424 162 m 465 169 l 465 165 l 476 162 l 476 165 l 473 169 l 465 169 m 31 159 l 31 155 l 38 149 l 41 149 l 41 155 l 38 159 l 31 159 m 538 159 l 538 141 l 545 149 l 541 159 l 538 159 m 483 149 l 490 141 l 496 149 l 483 149 m 258 145 l 266 145 l 273 138 l 273 124 l 258 124 l 258 145 m 41 138 l 41 134 l 48 127 l 55 134 l 41 138 m 528 134 l 524 131 l 524 121 l 528 121 q 534 131 528 131 l 534 134 l 528 134 m 642 127 l 642 121 l 645 104 l 648 104 l 652 124 l 648 127 l 642 127 m 545 111 l 545 104 l 559 107 l 559 121 l 549 111 l 545 111 m 469 114 l 469 93 l 473 90 l 473 86 l 462 86 q 483 73 462 81 l 483 76 l 479 79 l 479 83 l 483 86 l 473 90 q 483 107 474 107 l 476 114 l 469 114 m 690 114 l 683 107 q 693 73 686 81 l 680 52 l 686 52 q 696 58 686 58 l 696 69 l 693 86 l 707 90 l 711 86 l 714 90 l 711 104 l 693 100 l 690 104 l 693 107 l 693 114 l 690 114 m 372 107 l 372 104 l 393 86 l 400 93 l 414 93 l 445 66 l 448 69 l 448 73 q 435 90 435 73 l 438 107 l 428 93 l 420 93 l 397 104 l 382 100 l 372 107 m 538 107 l 538 104 l 541 93 l 545 93 l 545 96 l 541 107 l 538 107 m 24 93 q 14 83 24 83 l 21 76 l 17 73 l 17 66 l 35 66 l 35 69 q 28 93 28 77 l 24 93 m 517 93 l 517 41 q 545 21 529 25 l 545 24 l 531 48 l 538 62 l 524 76 l 524 93 l 517 93 m 576 90 l 576 83 l 579 79 l 586 79 l 586 83 l 579 90 l 576 90 m 607 86 l 610 83 l 614 79 q 621 66 621 79 l 631 62 l 635 66 l 635 73 l 614 86 l 607 86 m 559 79 l 559 69 l 555 52 l 559 52 l 566 58 l 566 79 l 559 79 m 86 76 l 86 58 l 79 52 l 73 73 l 76 76 l 86 76 m 190 41 l 190 38 l 193 38 q 214 48 214 41 l 214 52 l 200 52 l 190 41 m 465 35 q 493 14 484 35 l 496 14 l 496 7 l 479 0 l 473 0 q 458 28 473 14 l 465 35 m 369 17 l 379 17 l 393 3 l 393 0 l 362 0 l 355 7 l 369 17 m 7 14 l 10 10 l 10 7 l 3 0 l 0 3 l 0 7 l 7 14 z "}}}
